SplineFontDB: 3.2
FontName: bbm
FullName: bbm
FamilyName: bbm
Weight: Medium
Copyright: Copyright (c) 2020, Thibaut
UComments: "2020-7-27: Created with FontForge (http://fontforge.org)"
Version: 001.000
ItalicAngle: 0
UnderlinePosition: -100
UnderlineWidth: 50
Ascent: 800
Descent: 200
InvalidEm: 0
LayerCount: 2
Layer: 0 0 "Back" 1
Layer: 1 0 "Fore" 0
XUID: [1021 122 -398774034 22969]
StyleMap: 0x0000
FSType: 0
OS2Version: 0
OS2_WeightWidthSlopeOnly: 0
OS2_UseTypoMetrics: 1
CreationTime: 1595811562
ModificationTime: 1595811564
OS2TypoAscent: 0
OS2TypoAOffset: 1
OS2TypoDescent: 0
OS2TypoDOffset: 1
OS2TypoLinegap: 90
OS2WinAscent: 0
OS2WinAOffset: 1
OS2WinDescent: 0
OS2WinDOffset: 1
HheadAscent: 0
HheadAOffset: 1
HheadDescent: 0
HheadDOffset: 1
DEI: 91125
Encoding: Custom
UnicodeInterp: none
NameList: AGL For New Fonts
DisplaySize: 720
AntiAlias: 1
FitToEm: 0
WinInfo: 0 16 4
BeginChars: 256 58

StartChar: Left-parenthesis
Encoding: 40 -1 0
Width: 491
Flags: HW
LayerCount: 2
Back
Fore
SplineSet
406.25 742.034179688 m 0
 415 746.877929688 421.885742188 749.775390625 424.861328125 749.866210938 c 0
 434.444335938 750.159179688 439.739257812 739.793945312 433.055664062 733.825195312 c 0
 431.306640625 732.263671875 423.888671875 727.650390625 416.666992188 723.633789062 c 0
 375.97265625 701.000976562 332.459960938 667.876953125 295.416992188 631.329101562 c 2
 280.555664062 616.666992188 l 1
 280.555664062 250.694335938 l 1
 280.555664062 -115.27734375 l 1
 295.416992188 -129.940429688 l 2
 332.459960938 -166.487304688 375.97265625 -199.649414062 416.666992188 -222.348632812 c 0
 432.638671875 -231.2578125 436.111328125 -234.186523438 436.111328125 -238.75 c 0
 436.111328125 -243.74609375 430.97265625 -248.611328125 425.694335938 -248.611328125 c 0
 418.098632812 -248.611328125 376.388671875 -224.48828125 343.47265625 -201.057617188 c 0
 220.884765625 -113.797851562 137.58203125 11.6669921875 109.923828125 150.694335938 c 0
 102.484375 188.091796875 100.833007812 206.25 100.833007812 250.694335938 c 0
 100.833007812 295.138671875 102.482421875 313.297851562 109.916992188 350.694335938 c 0
 142.22265625 513.194335938 250.0234375 655.557617188 406.25 742.034179688 c 0
248.611328125 250.486328125 m 2
 248.611328125 431.319335938 248.455078125 579.135742188 248.263671875 579.09765625 c 0
 248.07421875 579.059570312 243.444335938 572.916992188 238.056640625 565.555664062 c 0
 178.412109375 484.060546875 144.795898438 397.361328125 134.553710938 298.611328125 c 0
 132.420898438 278.055664062 132.422851562 223.333007812 134.556640625 202.77734375 c 0
 144.877929688 103.333007812 180.422851562 12.40234375 239.830078125 -66.52734375 c 2
 248.611328125 -78.1943359375 l 1
 248.611328125 250.486328125 l 2
EndSplineSet
Validated: 524833
EndChar

StartChar: Right-parenthesis
Encoding: 41 -1 1
Width: 491
Flags: HW
LayerCount: 2
Back
Fore
SplineSet
58.9462890625 746.52734375 m 0
 64.0048828125 751.633789062 68.75 750.821289062 84.861328125 742.090820312 c 0
 239.323242188 658.389648438 349.4609375 513.194335938 381.752929688 350.694335938 c 0
 389.184570312 313.297851562 390.833007812 295.138671875 390.833007812 250.694335938 c 0
 390.833007812 206.25 389.184570312 188.091796875 381.752929688 150.694335938 c 0
 349.4609375 -11.8056640625 239.323242188 -157.000976562 84.861328125 -240.702148438 c 0
 68.75 -249.431640625 64.0048828125 -250.244140625 58.9462890625 -245.138671875 c 0
 51.94140625 -238.069335938 55 -233.533203125 73.888671875 -222.9765625 c 0
 115.833007812 -199.53515625 158.846679688 -166.840820312 196.111328125 -130.076171875 c 2
 211.111328125 -115.27734375 l 1
 211.111328125 250.694335938 l 1
 211.111328125 616.666992188 l 1
 196.111328125 631.465820312 l 2
 158.846679688 668.229492188 115.833007812 700.923828125 73.888671875 724.366210938 c 0
 55 734.921875 51.94140625 739.458007812 58.9462890625 746.52734375 c 0
270.3046875 541.666992188 m 0
 264.919921875 549.72265625 256.638671875 561.47265625 251.805664062 567.916992188 c 2
 243.055664062 579.583007812 l 1
 243.055664062 250.694335938 l 1
 243.055664062 -78.1943359375 l 1
 251.836914062 -66.52734375 l 2
 311.243164062 12.40234375 346.7890625 103.333007812 357.110351562 202.77734375 c 0
 359.243164062 223.333007812 359.243164062 278.055664062 357.108398438 298.611328125 c 0
 347.909179688 387.22265625 318.495117188 469.583984375 270.3046875 541.666992188 c 0
EndSplineSet
Validated: 524833
EndChar

StartChar: The-numeral-1
Encoding: 49 -1 2
Width: 602
Flags: HW
LayerCount: 2
Back
Fore
SplineSet
352.083007812 658.17578125 m 0
 363.75 665.970703125 365.120117188 666.532226562 372.638671875 666.59765625 c 0
 379.444335938 666.65625 381.22265625 666.138671875 384.09765625 663.263671875 c 2
 387.5 659.861328125 l 1
 387.5 360.833007812 l 2
 387.5 170.27734375 387.995117188 60.0927734375 388.865234375 57.0830078125 c 0
 392.376953125 44.9384765625 401.52734375 37.41796875 415.97265625 34.8037109375 c 0
 428.703125 32.5 461.944335938 30.5556640625 488.611328125 30.5556640625 c 2
 512.5 30.5556640625 l 1
 512.5 15.2080078125 l 1
 512.5 -0.138671875 l 1
 476.736328125 0.97265625 l 2
 457.056640625 1.583984375 381.944335938 2.0830078125 309.72265625 2.0830078125 c 0
 237.5 2.0830078125 162.387695312 1.583984375 142.708007812 0.97265625 c 2
 106.944335938 -0.138671875 l 1
 106.944335938 15.2080078125 l 1
 106.944335938 30.5556640625 l 1
 130.833007812 30.5556640625 l 2
 157.5 30.5556640625 190.741210938 32.5 203.47265625 34.8037109375 c 0
 217.916992188 37.41796875 227.067382812 44.9384765625 230.579101562 57.0830078125 c 0
 231.4453125 60.0810546875 231.944335938 156.805664062 231.944335938 321.944335938 c 0
 231.944335938 569.02734375 231.826171875 582.047851562 229.583007812 581.381835938 c 0
 226.135742188 580.356445312 200.416992188 576.736328125 184.02734375 574.969726562 c 0
 176.395507812 574.146484375 154.65234375 573.096679688 135.763671875 572.638671875 c 2
 101.388671875 571.805664062 l 1
 101.388671875 587.291992188 l 1
 101.388671875 602.77734375 l 1
 124.02734375 602.77734375 l 2
 217.638671875 602.77734375 298.604492188 622.4453125 352.083007812 658.17578125 c 0
346.52734375 58.3330078125 m 0
 348.36328125 61.8828125 348.5703125 95.763671875 348.263671875 343.541992188 c 2
 347.916992188 624.72265625 l 1
 337.22265625 618.521484375 l 2
 323.650390625 610.653320312 298.888671875 599.822265625 283.055664062 594.827148438 c 2
 270.833007812 590.97265625 l 1
 270.833007812 326.666992188 l 2
 270.833007812 35.4169921875 270.131835938 57.8779296875 279.444335938 51.015625 c 0
 287.62890625 44.9853515625 292.77734375 43.75 309.72265625 43.75 c 0
 326.666992188 43.75 331.81640625 44.9873046875 340 51.0263671875 c 0
 342.5 52.87109375 345.35546875 56.0673828125 346.52734375 58.3330078125 c 0
EndSplineSet
Validated: 524833
EndChar

StartChar: The-numeral-2
Encoding: 50 -1 3
Width: 602
Flags: HW
LayerCount: 2
Back
Fore
SplineSet
254.861328125 665.206054688 m 0
 270.69921875 667.017578125 325.416992188 665.782226562 344.444335938 663.18359375 c 0
 422.361328125 652.541015625 485.700195312 620.251953125 519.875 573.75 c 0
 533.301757812 555.48046875 541.88671875 536.944335938 548.114257812 512.77734375 c 0
 551.583007812 499.3203125 551.951171875 495.555664062 552.013671875 472.916992188 c 0
 552.065429688 454.305664062 551.44921875 444.79296875 549.602539062 435.694335938 c 0
 538.0859375 378.946289062 504.861328125 329.745117188 442.361328125 276.888671875 c 0
 416.704101562 255.190429688 393.47265625 238.834960938 249.305664062 140.973632812 c 0
 198.888671875 106.750976562 157.326171875 78.4521484375 156.944335938 78.087890625 c 0
 155.534179688 76.7431640625 467.638671875 78.9375 483.333007812 80.3828125 c 0
 501.805664062 82.0830078125 501.805664062 82.0830078125 509.11328125 97.9169921875 c 0
 514.849609375 110.344726562 519.807617188 128.75 524.268554688 154.166992188 c 0
 526.193359375 165.138671875 527.77734375 174.354492188 527.77734375 174.583007812 c 0
 527.77734375 174.8125 533.47265625 175 540.416992188 175 c 2
 553.055664062 175 l 1
 552.22265625 171.180664062 l 2
 551.764648438 169.081054688 545.758789062 131.388671875 538.888671875 87.5 c 0
 532.01953125 43.611328125 526.013671875 5.9189453125 525.555664062 3.8193359375 c 2
 524.72265625 -0 l 1
 287.361328125 -0 l 1
 50 -0 l 1
 50 11.1806640625 l 2
 50 17.2919921875 50.673828125 23.6201171875 51.4853515625 25.138671875 c 0
 52.6611328125 27.3388671875 278.055664062 197.482421875 331.666992188 236.639648438 c 2
 344.444335938 245.97265625 l 1
 344.444335938 438.055664062 l 1
 344.444335938 630.138671875 l 1
 325.97265625 632.71875 l 2
 303.47265625 635.861328125 255.084960938 636.350585938 238.194335938 633.60546875 c 0
 183.194335938 624.66796875 138.29296875 600.576171875 109.815429688 564.72265625 c 0
 102.754882812 555.833007812 94.099609375 541.736328125 92.505859375 536.52734375 c 0
 91.5537109375 533.416992188 91.8056640625 533.333007812 102.083007812 533.333007812 c 0
 134.225585938 533.333007812 156.03515625 509.861328125 153.833984375 477.638671875 c 0
 152.122070312 452.571289062 136.111328125 435.03125 110.694335938 430.377929688 c 0
 88.1943359375 426.2578125 65.1455078125 437.806640625 55.1767578125 458.194335938 c 0
 50.7265625 467.295898438 50.6953125 467.5 50.8330078125 486.805664062 c 0
 50.947265625 502.77734375 51.607421875 508.655273438 54.53125 519.72265625 c 0
 75.1123046875 597.637695312 151.944335938 653.434570312 254.861328125 665.206054688 c 0
415.138671875 607.393554688 m 0
 407.916992188 610.755859375 399.446289062 614.49609375 396.180664062 615.763671875 c 2
 390.27734375 618.055664062 l 1
 390.27734375 449.861328125 l 2
 390.27734375 289.861328125 390.399414062 281.759765625 392.77734375 283.584960938 c 0
 413.888671875 299.78515625 451.203125 336.948242188 465.3203125 355.833007812 c 0
 495.405273438 396.079101562 508.509765625 435.27734375 506.505859375 479.02734375 c 0
 505.520507812 500.555664062 501.922851562 515.671875 493.61328125 533.194335938 c 0
 478.9453125 564.127929688 450.694335938 590.83984375 415.138671875 607.393554688 c 0
EndSplineSet
Validated: 524833
EndChar

StartChar: The-letter-A
Encoding: 65 -1 4
Width: 852
Flags: HW
LayerCount: 2
Back
Fore
SplineSet
343.40234375 713.888671875 m 0
 347.772460938 716.578125 350.416992188 716.666992188 426.388671875 716.666992188 c 0
 502.361328125 716.666992188 505.004882812 716.578125 509.375 713.888671875 c 0
 511.875 712.350585938 514.508789062 709.716796875 515.27734375 707.986328125 c 0
 516.041992188 706.266601562 562.95703125 560.555664062 619.583007812 384.02734375 c 0
 676.209960938 207.5 724.115234375 59.8837890625 726.091796875 55.8330078125 c 0
 731.01953125 45.734375 739.444335938 38.5390625 749.72265625 35.650390625 c 0
 760.524414062 32.615234375 781.25 30.658203125 803.194335938 30.6015625 c 2
 820.833007812 30.5556640625 l 1
 820.833007812 15.2080078125 l 1
 820.833007812 -0.138671875 l 1
 799.02734375 0.9541015625 l 2
 770.650390625 2.3759765625 604.02734375 2.3818359375 571.25 0.9619140625 c 2
 545.833007812 -0.138671875 l 1
 545.833007812 15.2080078125 l 1
 545.833007812 30.5556640625 l 1
 558.75 30.5556640625 l 2
 584.166992188 30.5556640625 608.967773438 35.3974609375 619.861328125 42.4853515625 c 0
 626.629882812 46.8896484375 630.555664062 53.47265625 630.555664062 60.4169921875 c 0
 630.555664062 63.8134765625 620.734375 96.59765625 605.27734375 144.791992188 c 2
 580 223.611328125 l 1
 467.22265625 223.611328125 l 1
 354.444335938 223.611328125 l 1
 350.90234375 212.84765625 l 2
 348.950195312 206.9140625 339.165039062 176.52734375 329.09765625 145.138671875 c 0
 312.169921875 92.361328125 310.885742188 87.60546875 311.543945312 80.138671875 c 0
 313.888671875 53.572265625 340.138671875 34.193359375 378.055664062 31.0400390625 c 2
 388.888671875 30.138671875 l 1
 388.888671875 15 l 1
 388.888671875 -0.138671875 l 1
 354.583007812 0.9658203125 l 2
 310 2.400390625 98.1728515625 2.404296875 60.8330078125 0.970703125 c 2
 31.9443359375 -0.138671875 l 1
 31.9443359375 15 l 1
 31.9443359375 30.138671875 l 1
 46.52734375 31.091796875 l 2
 92.0830078125 34.0693359375 124.248046875 54.0830078125 137.631835938 87.77734375 c 0
 139.239257812 91.8251953125 184.56640625 232.361328125 238.333007812 400 c 0
 292.099609375 567.638671875 336.736328125 706.267578125 337.5 707.986328125 c 0
 338.26953125 709.716796875 340.90234375 712.350585938 343.40234375 713.888671875 c 0
448.611328125 665.310546875 m 0
 442.690429688 667.474609375 390.555664062 668.432617188 378.888671875 666.591796875 c 0
 368.333007812 664.92578125 357.46875 660.057617188 354.26171875 655.555664062 c 0
 350.21875 649.87890625 172.22265625 94.3056640625 172.22265625 87.361328125 c 0
 172.22265625 82.361328125 173.055664062 80.701171875 178.055664062 75.73828125 c 0
 187.588867188 66.2783203125 197.083007812 63.3134765625 218.055664062 63.248046875 c 0
 228.333007812 63.216796875 238.533203125 63.970703125 243.055664062 65.0966796875 c 0
 260.138671875 69.3505859375 272.990234375 78.1083984375 278.171875 89.02734375 c 0
 281.466796875 95.97265625 459.72265625 651.809570312 459.72265625 655.138671875 c 0
 459.72265625 658.576171875 454.861328125 663.026367188 448.611328125 665.310546875 c 0
519.583007812 411.666992188 m 0
 491.99609375 497.638671875 468.881835938 569.353515625 468.194335938 571.111328125 c 0
 467.1796875 573.703125 465.477539062 569.72265625 459.166992188 550 c 0
 454.890625 536.637695312 431.815429688 464.72265625 407.916992188 390.27734375 c 2
 364.444335938 254.861328125 l 1
 466.458007812 254.513671875 l 2
 522.569335938 254.323242188 568.75390625 254.448242188 569.09765625 254.791992188 c 0
 569.44140625 255.135742188 547.170898438 325.694335938 519.583007812 411.666992188 c 0
EndSplineSet
Validated: 524833
EndChar

StartChar: The-letter-B
Encoding: 66 -1 5
Width: 811
Flags: HW
LayerCount: 2
Back
Fore
SplineSet
36.111328125 668.333007812 m 1
 36.111328125 683.47265625 l 1
 261.52734375 682.928710938 l 2
 507.5 682.334960938 494.810546875 682.735351562 536.944335938 674.24609375 c 0
 582.5 665.067382812 628.451171875 645.984375 661.805664062 622.393554688 c 0
 676.944335938 611.686523438 699.26171875 589.178710938 707.971679688 575.833007812 c 0
 729.000976562 543.611328125 733.333007812 508.026367188 720.092773438 476.25 c 0
 710.77734375 453.892578125 687.22265625 427.422851562 661.111328125 409.969726562 c 0
 626.204101562 386.637695312 566.805664062 364.271484375 525.416992188 358.875976562 c 0
 521.388671875 358.3515625 517.772460938 357.4765625 517.430664062 356.944335938 c 0
 517.090820312 356.415039062 521.111328125 355.571289062 526.25 355.091796875 c 0
 549.818359375 352.89453125 582.916992188 345.578125 607.638671875 337.099609375 c 0
 713.611328125 300.755859375 770.538085938 228.763671875 751.959960938 154.583007812 c 0
 734.967773438 86.7353515625 657.916992188 28.6064453125 558.194335938 8.40234375 c 0
 519.215820312 0.505859375 531.52734375 0.8544921875 273.888671875 0.337890625 c 2
 36.111328125 -0.138671875 l 1
 36.111328125 15 l 1
 36.111328125 30.138671875 l 1
 67.638671875 31.0283203125 l 2
 100.97265625 31.96875 117.924804688 34.146484375 125.27734375 38.431640625 c 0
 130.568359375 41.5146484375 135.478515625 48.3330078125 137.407226562 55.27734375 c 0
 139.3359375 62.22265625 139.3359375 621.111328125 137.407226562 628.055664062 c 0
 135.478515625 635 130.568359375 641.818359375 125.27734375 644.90234375 c 0
 117.924804688 649.186523438 100.97265625 651.364257812 67.638671875 652.3046875 c 2
 36.111328125 653.194335938 l 1
 36.111328125 668.333007812 l 1
470.555664062 651.270507812 m 0
 455.138671875 652.944335938 356.732421875 653.005859375 346.805664062 651.34765625 c 0
 338.055664062 649.885742188 332.032226562 646.235351562 328.541992188 640.27734375 c 0
 325.737304688 635.489257812 325.689453125 633.40234375 325.34765625 500.90234375 c 2
 325 366.388671875 l 1
 388.611328125 367.037109375 l 2
 457.638671875 367.741210938 462.88671875 368.209960938 494.166992188 376.478515625 c 0
 534.72265625 387.197265625 568.978515625 406.375976562 594.231445312 432.5 c 0
 635.450195312 475.139648438 641.796875 529.02734375 610.998046875 574.861328125 c 0
 582.810546875 616.80859375 531.666992188 644.633789062 470.555664062 651.270507812 c 0
257.5 638.797851562 m 0
 246.388671875 640.73046875 213.868164062 640.494140625 204.166992188 638.41015625 c 0
 194.444335938 636.322265625 187.59765625 632.314453125 183.626953125 626.388671875 c 2
 180.555664062 621.805664062 l 1
 180.555664062 341.666992188 l 1
 180.555664062 61.52734375 l 1
 183.750976562 56.8056640625 l 2
 190.563476562 46.73828125 203.47265625 43.0556640625 231.944335938 43.0556640625 c 0
 260.416992188 43.0556640625 273.325195312 46.73828125 280.137695312 56.8056640625 c 2
 283.333007812 61.52734375 l 1
 283.333007812 341.666992188 l 1
 283.333007812 621.805664062 l 1
 280.138671875 626.52734375 l 2
 275.989257812 632.663085938 268.055664062 636.962890625 257.5 638.797851562 c 0
500.694335938 340.571289062 m 0
 486.59375 343.249023438 479.236328125 343.514648438 405.208007812 344.02734375 c 2
 325 344.583007812 l 1
 325.34765625 196.25 l 2
 325.688476562 50.4169921875 325.741210938 47.8349609375 328.47265625 43.0556640625 c 0
 330.25 39.9443359375 333.75 36.9443359375 338.194335938 34.72265625 c 2
 345.138671875 31.25 l 1
 399.305664062 30.763671875 l 2
 433.194335938 30.4599609375 459.971679688 30.87890625 470.833007812 31.8837890625 c 0
 579.861328125 41.97265625 659.922851562 110.965820312 655.12109375 190.694335938 c 0
 650.780273438 262.778320312 587.638671875 324.059570312 500.694335938 340.571289062 c 0
EndSplineSet
Validated: 524833
EndChar

StartChar: The-letter-C
Encoding: 67 -1 6
Width: 825
Flags: HW
LayerCount: 2
Back
Fore
SplineSet
419.444335938 704.704101562 m 0
 433.47265625 706.016601562 485.97265625 704.325195312 500 702.108398438 c 0
 519.444335938 699.036132812 547.569335938 691.799804688 564.583007812 685.491210938 c 0
 605.138671875 670.453125 646.767578125 644.68359375 675.27734375 616.966796875 c 2
 684.444335938 608.055664062 l 1
 693.40234375 621.041992188 l 2
 698.338867188 628.197265625 712.805664062 649.305664062 725.625 668.055664062 c 0
 738.444335938 686.805664062 749.88671875 702.8671875 751.111328125 703.829101562 c 0
 754.65625 706.615234375 762.638671875 705.952148438 766.25 702.573242188 c 2
 769.444335938 699.583007812 l 1
 769.444335938 562.708007812 l 1
 769.444335938 425.833007812 l 1
 766.458007812 422.638671875 l 2
 763.91796875 419.920898438 762.083007812 419.444335938 754.166992188 419.444335938 c 0
 741.865234375 419.444335938 739.823242188 421.666992188 737.571289062 437.5 c 0
 730.716796875 485.694335938 709.043945312 534.840820312 677.916992188 572.77734375 c 0
 666.75 586.387695312 641.944335938 610.15625 628.055664062 620.5546875 c 0
 593.504882812 646.422851562 550.97265625 664.282226562 506.111328125 671.758789062 c 0
 485.125976562 675.256835938 437.083007812 675.255859375 411.805664062 671.7578125 c 0
 379.72265625 667.317382812 347.19140625 659.39453125 323.611328125 650.27734375 c 2
 313.194335938 646.25 l 1
 313.194335938 341.59765625 l 1
 313.194335938 36.9443359375 l 1
 329.861328125 31.0859375 l 2
 398.611328125 6.919921875 476.08203125 1.9951171875 542.361328125 17.576171875 c 0
 575.555664062 25.3798828125 612.509765625 40.9345703125 638.194335938 57.9150390625 c 0
 702.806640625 100.630859375 739.932617188 161.111328125 743.913085938 230.138671875 c 0
 744.962890625 248.333007812 746.796875 251.388671875 756.666992188 251.388671875 c 0
 766.530273438 251.388671875 769.432617188 247.77734375 769.391601562 235.555664062 c 0
 769.34375 221.4921875 765.98046875 197.916992188 761.862304688 182.77734375 c 0
 749.998046875 139.166992188 728.235351562 103.033203125 693.611328125 69.4619140625 c 0
 646.045898438 23.34375 580.555664062 -7.0859375 503.194335938 -19.01171875 c 0
 481.52734375 -22.3515625 420.97265625 -22.3671875 397.22265625 -19.0380859375 c 0
 329.444335938 -9.5380859375 273.216796875 11.3212890625 219.583007812 46.865234375 c 0
 188.333007812 67.57421875 156.857421875 95.8330078125 135.6484375 122.22265625 c 0
 95.046875 172.739257812 68.388671875 232.5 58.8212890625 294.444335938 c 0
 55.3671875 316.805664062 55.361328125 366.52734375 58.8095703125 388.888671875 c 0
 74.31640625 489.444335938 132.263671875 578.671875 219.583007812 636.451171875 c 0
 279.057617188 675.805664062 342.638671875 697.518554688 419.444335938 704.704101562 c 0
260.763671875 202.708007812 m 2
 260.955078125 279.09765625 260.955078125 404.236328125 260.763671875 480.625 c 2
 260.416992188 619.583007812 l 1
 250.694335938 613.094726562 l 2
 215.694335938 589.736328125 183.654296875 557.827148438 160.147460938 522.916992188 c 0
 135.58984375 486.447265625 117.862304688 438.888671875 110.186523438 388.888671875 c 0
 106.75390625 366.52734375 106.755859375 316.674804688 110.190429688 294.444335938 c 0
 116.004882812 256.805664062 125.166015625 227.178710938 140.939453125 195 c 0
 165.44921875 145 200.84765625 104.4609375 248.333007812 72.0078125 c 2
 260.416992188 63.75 l 1
 260.763671875 202.708007812 l 2
EndSplineSet
Validated: 524833
EndChar

StartChar: The-letter-D
Encoding: 68 -1 7
Width: 866
Flags: HW
LayerCount: 2
Back
Fore
SplineSet
33.3330078125 668.333007812 m 1
 33.3330078125 683.47265625 l 1
 261.458007812 682.986328125 l 2
 486.736328125 682.505859375 489.80859375 682.462890625 507.638671875 679.5390625 c 0
 587.361328125 666.465820312 654.95703125 632.579101562 709.02734375 578.578125 c 0
 727.903320312 559.727539062 738.71484375 546.52734375 753.93359375 523.75 c 0
 781.213867188 482.922851562 799.911132812 433.75 807.85546875 381.944335938 c 0
 811.305664062 359.444335938 811.27734375 310.833007812 807.802734375 289.583007812 c 0
 801.942382812 253.75 792.702148438 224.896484375 776.887695312 193.055664062 c 0
 744.65625 128.157226562 691.388671875 74.8173828125 625.138671875 41.099609375 c 0
 587.57421875 21.98046875 553.888671875 11.158203125 509.02734375 3.7958984375 c 0
 491.1640625 0.865234375 488.541992188 0.828125 262.15234375 0.34765625 c 2
 33.3330078125 -0.138671875 l 1
 33.3330078125 15 l 1
 33.3330078125 30.138671875 l 1
 64.861328125 31.0283203125 l 2
 98.1943359375 31.96875 115.147460938 34.146484375 122.5 38.431640625 c 0
 127.791015625 41.5146484375 132.700195312 48.3330078125 134.62890625 55.27734375 c 0
 136.557617188 62.22265625 136.557617188 621.111328125 134.62890625 628.055664062 c 0
 132.700195312 635 127.791015625 641.818359375 122.5 644.90234375 c 0
 115.147460938 649.186523438 98.1943359375 651.364257812 64.861328125 652.3046875 c 2
 33.3330078125 653.194335938 l 1
 33.3330078125 668.333007812 l 1
459.02734375 651.3046875 m 0
 441.666992188 652.9921875 359.583007812 653.029296875 349.583007812 651.353515625 c 0
 340.833007812 649.887695312 334.810546875 646.235351562 331.3203125 640.27734375 c 0
 328.48046875 635.430664062 328.47265625 634.583007812 328.47265625 341.666992188 c 0
 328.47265625 49.5830078125 328.48828125 47.888671875 331.25 43.0556640625 c 0
 333.02734375 39.9443359375 336.52734375 36.9443359375 340.97265625 34.72265625 c 0
 347.895507812 31.2607421875 348.055664062 31.248046875 393.75 30.763671875 c 0
 420.833007812 30.4765625 446.969726562 30.9267578125 457.638671875 31.8642578125 c 0
 545.694335938 39.5986328125 620.368164062 80.28515625 662.735351562 143.611328125 c 0
 697.20703125 195.13671875 713.111328125 264.02734375 710.704101562 351.388671875 c 0
 708.522460938 430.555664062 692.5078125 490.145507812 660.500976562 538.194335938 c 0
 618.516601562 601.22265625 544.02734375 643.041992188 459.02734375 651.3046875 c 0
257.5 638.797851562 m 0
 246.388671875 640.73046875 213.868164062 640.494140625 204.166992188 638.41015625 c 0
 194.444335938 636.322265625 187.59765625 632.314453125 183.626953125 626.388671875 c 2
 180.555664062 621.805664062 l 1
 180.555664062 341.666992188 l 1
 180.555664062 61.52734375 l 1
 183.750976562 56.8056640625 l 2
 190.563476562 46.73828125 203.47265625 43.0556640625 231.944335938 43.0556640625 c 0
 260.416992188 43.0556640625 273.325195312 46.73828125 280.137695312 56.8056640625 c 2
 283.333007812 61.52734375 l 1
 283.333007812 341.666992188 l 1
 283.333007812 621.805664062 l 1
 280.138671875 626.52734375 l 2
 275.989257812 632.663085938 268.055664062 636.962890625 257.5 638.797851562 c 0
EndSplineSet
Validated: 524833
EndChar

StartChar: The-letter-E
Encoding: 69 -1 8
Width: 783
Flags: HW
LayerCount: 2
Back
Fore
SplineSet
33.3330078125 665.486328125 m 1
 33.3330078125 680.555664062 l 1
 366.52734375 680.555664062 l 1
 699.72265625 680.555664062 l 1
 700.555664062 675.34765625 l 2
 701.013671875 672.484375 707.018554688 624.166992188 713.888671875 568.055664062 c 0
 720.759765625 511.944335938 726.764648438 463.626953125 727.22265625 460.763671875 c 2
 728.055664062 455.555664062 l 1
 715.486328125 455.555664062 l 1
 702.916992188 455.555664062 l 1
 702.002929688 462.083007812 l 2
 692.280273438 531.52734375 676.643554688 572.115234375 647.850585938 602.638671875 c 0
 627.15234375 624.581054688 601.52734375 635.959960938 556.944335938 643.005859375 c 0
 522.87109375 648.390625 503.611328125 649.305664062 424.305664062 649.305664062 c 2
 347.916992188 649.305664062 l 1
 340.97265625 645.833007812 l 2
 336.52734375 643.611328125 333.02734375 640.611328125 331.25 637.5 c 0
 328.526367188 632.733398438 328.465820312 630.069335938 328.125 500.208007812 c 2
 327.77734375 367.77734375 l 1
 393.333007812 368.416015625 l 2
 466.388671875 369.127929688 471.42578125 369.654296875 489.72265625 378.499023438 c 0
 495.27734375 381.184570312 502.376953125 385.973632812 505.694335938 389.274414062 c 0
 519.4453125 402.953125 526.287109375 429.583007812 526.361328125 469.72265625 c 2
 526.388671875 484.72265625 l 1
 538.888671875 484.72265625 l 1
 551.388671875 484.72265625 l 1
 551.388671875 352.77734375 l 1
 551.388671875 220.833007812 l 1
 538.888671875 220.833007812 l 1
 526.388671875 220.833007812 l 1
 526.361328125 235.833007812 l 2
 526.287109375 275.97265625 519.4453125 302.6015625 505.694335938 316.28125 c 0
 502.376953125 319.58203125 495.27734375 324.37109375 489.72265625 327.056640625 c 0
 471.42578125 335.901367188 466.388671875 336.427734375 393.333007812 337.139648438 c 2
 327.77734375 337.77734375 l 1
 328.125 192.84765625 l 2
 328.466796875 50.34765625 328.518554688 47.8349609375 331.25 43.0556640625 c 0
 333.02734375 39.9443359375 336.52734375 36.9443359375 340.97265625 34.72265625 c 2
 347.916992188 31.25 l 1
 426.388671875 31.25 l 2
 510.138671875 31.25 529.627929688 32.2265625 564.583007812 38.1748046875 c 0
 611.805664062 46.2099609375 639.430664062 59.001953125 663.907226562 84.1669921875 c 0
 678.092773438 98.7509765625 688.255859375 113.47265625 697.275390625 132.5 c 0
 711.5234375 162.559570312 719.291992188 191.111328125 729.924804688 252.5 c 2
 730.694335938 256.944335938 l 1
 743.263671875 256.944335938 l 1
 755.833007812 256.944335938 l 1
 755 253.125 l 2
 754.541015625 251.022460938 745.427734375 195 734.72265625 128.47265625 c 0
 724.016601562 61.9443359375 714.903320312 5.921875 714.444335938 3.8193359375 c 2
 713.611328125 0 l 1
 373.47265625 0 l 1
 33.3330078125 0 l 1
 33.3330078125 15.0693359375 l 1
 33.3330078125 30.138671875 l 1
 64.861328125 31.0283203125 l 2
 98.1943359375 31.96875 115.147460938 34.146484375 122.5 38.431640625 c 0
 127.791015625 41.5146484375 132.702148438 48.3330078125 134.6328125 55.27734375 c 0
 136.564453125 62.22265625 136.564453125 618.333007812 134.6328125 625.27734375 c 0
 132.702148438 632.22265625 127.791015625 639.041015625 122.5 642.124023438 c 0
 115.147460938 646.409179688 98.1943359375 648.5859375 64.861328125 649.52734375 c 2
 33.3330078125 650.416992188 l 1
 33.3330078125 665.486328125 l 1
257.5 636.020507812 m 0
 246.388671875 637.953125 213.868164062 637.715820312 204.166992188 635.6328125 c 0
 194.444335938 633.543945312 187.59765625 629.537109375 183.626953125 623.611328125 c 2
 180.555664062 619.02734375 l 1
 180.555664062 340.27734375 l 1
 180.555664062 61.52734375 l 1
 183.750976562 56.8056640625 l 2
 190.563476562 46.73828125 203.47265625 43.0556640625 231.944335938 43.0556640625 c 0
 260.416992188 43.0556640625 273.325195312 46.73828125 280.137695312 56.8056640625 c 2
 283.333007812 61.52734375 l 1
 283.333007812 340.27734375 l 1
 283.333007812 619.02734375 l 1
 280.138671875 623.75 l 2
 275.989257812 629.884765625 268.055664062 634.184570312 257.5 636.020507812 c 0
EndSplineSet
Validated: 524833
EndChar

StartChar: The-letter-F
Encoding: 70 -1 9
Width: 755
Flags: HW
LayerCount: 2
Back
Fore
SplineSet
33.3330078125 665.486328125 m 1
 33.3330078125 680.555664062 l 1
 359.583007812 680.555664062 l 1
 685.833007812 680.555664062 l 1
 686.666992188 675.34765625 l 2
 687.125 672.484375 693.12890625 624.166992188 700 568.055664062 c 0
 706.87109375 511.944335938 712.875 463.626953125 713.333007812 460.763671875 c 2
 714.166992188 455.555664062 l 1
 701.666992188 455.555664062 l 1
 689.166992188 455.555664062 l 1
 688.372070312 460.833007812 l 2
 678.087890625 529.166992188 667.069335938 561.698242188 643.684570312 592.77734375 c 0
 609.5078125 638.19921875 555.138671875 651.020507812 402.083007812 649.75390625 c 2
 347.916992188 649.305664062 l 1
 340.97265625 645.833007812 l 2
 336.52734375 643.611328125 333.02734375 640.611328125 331.25 637.5 c 0
 328.5234375 632.728515625 328.465820312 630.069335938 328.125 493.958007812 c 2
 327.77734375 355.27734375 l 1
 391.388671875 355.91796875 l 2
 461.388671875 356.622070312 466.9609375 357.202148438 484.72265625 365.6328125 c 0
 509.221679688 377.26171875 518.55859375 398.888671875 520.368164062 448.194335938 c 2
 521.25 472.22265625 l 1
 533.541992188 472.22265625 l 1
 545.833007812 472.22265625 l 1
 545.833007812 340.27734375 l 1
 545.833007812 208.333007812 l 1
 533.541992188 208.333007812 l 1
 521.25 208.333007812 l 1
 520.368164062 232.361328125 l 2
 518.55859375 281.666992188 509.221679688 303.293945312 484.72265625 314.922851562 c 0
 466.9609375 323.353515625 461.388671875 323.93359375 391.388671875 324.637695312 c 2
 327.77734375 325.27734375 l 1
 327.77734375 193.333007812 l 2
 327.77734375 46.8056640625 327.306640625 54.2333984375 337.24609375 44.02734375 c 0
 346.334960938 34.6943359375 361.666992188 32.208984375 417.77734375 30.9716796875 c 2
 455.555664062 30.138671875 l 1
 455.555664062 15 l 1
 455.555664062 -0.138671875 l 1
 418.333007812 0.982421875 l 2
 370.138671875 2.43359375 110.705078125 2.4296875 66.9443359375 0.9765625 c 2
 33.3330078125 -0.138671875 l 1
 33.3330078125 15 l 1
 33.3330078125 30.138671875 l 1
 64.861328125 31.0283203125 l 2
 98.1943359375 31.96875 115.147460938 34.146484375 122.5 38.431640625 c 0
 127.791015625 41.5146484375 132.702148438 48.3330078125 134.6328125 55.27734375 c 0
 136.564453125 62.22265625 136.564453125 618.333007812 134.6328125 625.27734375 c 0
 132.702148438 632.22265625 127.791015625 639.041015625 122.5 642.124023438 c 0
 115.147460938 646.409179688 98.1943359375 648.5859375 64.861328125 649.52734375 c 2
 33.3330078125 650.416992188 l 1
 33.3330078125 665.486328125 l 1
257.5 636.020507812 m 0
 246.388671875 637.953125 213.868164062 637.715820312 204.166992188 635.6328125 c 0
 194.444335938 633.543945312 187.59765625 629.537109375 183.626953125 623.611328125 c 2
 180.555664062 619.02734375 l 1
 180.555664062 340.27734375 l 1
 180.555664062 61.52734375 l 1
 183.750976562 56.8056640625 l 2
 190.563476562 46.73828125 203.47265625 43.0556640625 231.944335938 43.0556640625 c 0
 260.416992188 43.0556640625 273.325195312 46.73828125 280.137695312 56.8056640625 c 2
 283.333007812 61.52734375 l 1
 283.333007812 340.27734375 l 1
 283.333007812 619.02734375 l 1
 280.138671875 623.75 l 2
 275.989257812 629.884765625 268.055664062 634.184570312 257.5 636.020507812 c 0
EndSplineSet
Validated: 524833
EndChar

StartChar: The-letter-G
Encoding: 71 -1 10
Width: 887
Flags: HW
LayerCount: 2
Back
Fore
SplineSet
419.444335938 704.704101562 m 0
 433.47265625 706.016601562 485.97265625 704.325195312 500 702.108398438 c 0
 519.444335938 699.036132812 547.569335938 691.799804688 564.583007812 685.491210938 c 0
 605.138671875 670.453125 646.767578125 644.68359375 675.27734375 616.966796875 c 2
 684.444335938 608.055664062 l 1
 693.40234375 621.041992188 l 2
 698.338867188 628.197265625 712.805664062 649.305664062 725.625 668.055664062 c 0
 738.444335938 686.805664062 749.88671875 702.8671875 751.111328125 703.829101562 c 0
 754.65625 706.615234375 762.638671875 705.952148438 766.25 702.573242188 c 2
 769.444335938 699.583007812 l 1
 769.444335938 562.708007812 l 1
 769.444335938 425.833007812 l 1
 766.458007812 422.638671875 l 2
 763.91796875 419.920898438 762.083007812 419.444335938 754.166992188 419.444335938 c 0
 741.865234375 419.444335938 739.823242188 421.666992188 737.571289062 437.5 c 0
 730.716796875 485.694335938 709.043945312 534.840820312 677.916992188 572.77734375 c 0
 666.75 586.387695312 641.944335938 610.15625 628.055664062 620.5546875 c 0
 593.504882812 646.422851562 550.97265625 664.282226562 506.111328125 671.758789062 c 0
 485.125976562 675.256835938 437.083007812 675.255859375 411.805664062 671.7578125 c 0
 379.72265625 667.317382812 347.19140625 659.39453125 323.611328125 650.27734375 c 2
 313.194335938 646.25 l 1
 313.194335938 342.291992188 l 1
 313.194335938 38.3330078125 l 1
 328.47265625 32.962890625 l 2
 385.9921875 12.7451171875 446.52734375 4.9580078125 508.47265625 9.80859375 c 0
 608.47265625 17.6396484375 667.508789062 49.6806640625 678.4921875 102.083007812 c 0
 680.908203125 113.611328125 681.458007812 208.510742188 679.155273438 216.52734375 c 0
 675.666992188 228.671875 666.52734375 236.193359375 652.083007812 238.807617188 c 0
 639.352539062 241.111328125 606.111328125 243.055664062 579.444335938 243.055664062 c 2
 555.555664062 243.055664062 l 1
 555.555664062 258.40234375 l 1
 555.555664062 273.75 l 1
 584.305664062 272.661132812 l 2
 621.944335938 271.236328125 793.561523438 271.22265625 819.02734375 272.642578125 c 2
 838.888671875 273.75 l 1
 838.888671875 258.40234375 l 1
 838.888671875 243.055664062 l 1
 825.97265625 243.055664062 l 2
 808.194335938 243.055664062 789.453125 240.72265625 782.5 237.64453125 c 0
 778.106445312 235.69921875 775.68359375 233.40234375 773.333007812 228.958007812 c 2
 770.138671875 222.916992188 l 1
 769.72265625 114.65234375 l 1
 769.305664062 6.388671875 l 1
 766.333007812 3.1943359375 l 2
 760.807617188 -2.7431640625 757.361328125 -1.33203125 739.305664062 14.2587890625 c 0
 725 26.611328125 710.958007812 42.1787109375 702.306640625 55.27734375 c 0
 697.4453125 62.638671875 696.303710938 63.6533203125 695.11328125 61.6669921875 c 0
 670.93359375 21.3095703125 613.055664062 -6.8779296875 533.055664062 -17.2587890625 c 0
 475.833007812 -24.6845703125 414.168945312 -23.3896484375 365.97265625 -13.75 c 0
 288.333007812 1.77734375 214.853515625 40.7021484375 160.416992188 95.138671875 c 0
 141.693359375 113.862304688 129.954101562 128.333007812 113.657226562 152.77734375 c 0
 85.607421875 194.852539062 66.5654296875 244.02734375 58.80078125 294.444335938 c 0
 55.3564453125 316.805664062 55.361328125 366.52734375 58.8095703125 388.888671875 c 0
 74.31640625 489.444335938 132.263671875 578.671875 219.583007812 636.451171875 c 0
 279.057617188 675.805664062 342.638671875 697.518554688 419.444335938 704.704101562 c 0
260.763671875 203.40234375 m 2
 260.955078125 279.319335938 260.955078125 403.958007812 260.763671875 480.486328125 c 2
 260.416992188 619.583007812 l 1
 250.694335938 613.081054688 l 2
 200.162109375 579.286132812 160.313476562 532.638671875 136.178710938 479.02734375 c 0
 116.765625 435.905273438 107.864257812 393.333007812 107.75 343.055664062 c 0
 107.665039062 305.833007812 110.498046875 283.993164062 119.729492188 250.694335938 c 0
 139.866210938 178.055664062 184.508789062 116.884765625 249.583007812 72.76171875 c 2
 260.416992188 65.4169921875 l 1
 260.763671875 203.40234375 l 2
EndSplineSet
Validated: 524833
EndChar

StartChar: The-letter-H
Encoding: 72 -1 11
Width: 852
Flags: HW
LayerCount: 2
Back
Fore
SplineSet
33.3330078125 668.333007812 m 1
 33.3330078125 683.47265625 l 1
 67.013671875 682.361328125 l 2
 85.546875 681.75 159.72265625 681.25 231.944335938 681.25 c 0
 304.166992188 681.25 378.341796875 681.75 396.875 682.361328125 c 2
 430.555664062 683.47265625 l 1
 430.555664062 668.333007812 l 1
 430.555664062 653.194335938 l 1
 399.02734375 652.3046875 l 2
 365.694335938 651.364257812 348.7421875 649.186523438 341.388671875 644.90234375 c 0
 336.055664062 641.793945312 331.172851562 635 329.182617188 627.916992188 c 0
 328.2890625 624.737304688 327.77734375 577.013671875 327.77734375 496.875 c 2
 327.77734375 370.833007812 l 1
 477.77734375 370.833007812 l 1
 627.77734375 370.833007812 l 1
 627.77734375 496.875 l 2
 627.77734375 577.013671875 627.265625 624.737304688 626.373046875 627.916992188 c 0
 624.3828125 635 619.5 641.793945312 614.166992188 644.90234375 c 0
 606.813476562 649.186523438 589.861328125 651.364257812 556.52734375 652.3046875 c 2
 525 653.194335938 l 1
 525 668.333007812 l 1
 525 683.47265625 l 1
 550.34765625 682.361328125 l 2
 564.279296875 681.75 619.166992188 681.25 672.22265625 681.25 c 0
 725.27734375 681.25 780.165039062 681.75 794.09765625 682.361328125 c 2
 819.444335938 683.47265625 l 1
 819.444335938 668.333007812 l 1
 819.444335938 653.194335938 l 1
 787.916992188 652.3046875 l 2
 754.583007812 651.364257812 737.630859375 649.186523438 730.27734375 644.90234375 c 0
 724.986328125 641.818359375 720.077148438 635 718.1484375 628.055664062 c 0
 716.219726562 621.111328125 716.219726562 62.22265625 718.1484375 55.27734375 c 0
 720.077148438 48.3330078125 724.986328125 41.5146484375 730.27734375 38.431640625 c 0
 737.630859375 34.146484375 754.583007812 31.96875 787.916992188 31.0283203125 c 2
 819.444335938 30.138671875 l 1
 819.444335938 15 l 1
 819.444335938 -0.138671875 l 1
 794.09765625 0.97265625 l 2
 780.165039062 1.5830078125 725.27734375 2.0830078125 672.22265625 2.0830078125 c 0
 619.166992188 2.0830078125 564.279296875 1.5830078125 550.34765625 0.97265625 c 2
 525 -0.138671875 l 1
 525 15 l 1
 525 30.138671875 l 1
 556.52734375 31.0283203125 l 2
 589.861328125 31.96875 606.813476562 34.146484375 614.166992188 38.431640625 c 0
 619.5 41.5390625 624.3828125 48.3330078125 626.373046875 55.4169921875 c 0
 627.270507812 58.6123046875 627.77734375 110.90234375 627.77734375 200.34765625 c 2
 627.77734375 340.27734375 l 1
 477.77734375 340.27734375 l 1
 327.77734375 340.27734375 l 1
 327.77734375 200.34765625 l 2
 327.77734375 110.90234375 328.28515625 58.6123046875 329.182617188 55.4169921875 c 0
 331.172851562 48.3330078125 336.055664062 41.5390625 341.388671875 38.431640625 c 0
 348.7421875 34.146484375 365.694335938 31.96875 399.02734375 31.0283203125 c 2
 430.555664062 30.138671875 l 1
 430.555664062 15 l 1
 430.555664062 -0.138671875 l 1
 396.944335938 0.9658203125 l 2
 353.194335938 2.4033203125 110.796875 2.4072265625 67.0830078125 0.970703125 c 2
 33.3330078125 -0.138671875 l 1
 33.3330078125 15 l 1
 33.3330078125 30.138671875 l 1
 64.861328125 31.0283203125 l 2
 98.1943359375 31.96875 115.147460938 34.146484375 122.5 38.431640625 c 0
 127.791015625 41.5146484375 132.700195312 48.3330078125 134.62890625 55.27734375 c 0
 136.557617188 62.22265625 136.557617188 621.111328125 134.62890625 628.055664062 c 0
 132.700195312 635 127.791015625 641.818359375 122.5 644.90234375 c 0
 115.147460938 649.186523438 98.1943359375 651.364257812 64.861328125 652.3046875 c 2
 33.3330078125 653.194335938 l 1
 33.3330078125 668.333007812 l 1
257.5 638.797851562 m 0
 246.388671875 640.73046875 213.868164062 640.494140625 204.166992188 638.41015625 c 0
 194.444335938 636.322265625 187.59765625 632.314453125 183.626953125 626.388671875 c 2
 180.555664062 621.805664062 l 1
 180.555664062 341.666992188 l 1
 180.555664062 61.52734375 l 1
 183.750976562 56.8056640625 l 2
 190.563476562 46.73828125 203.47265625 43.0556640625 231.944335938 43.0556640625 c 0
 260.416992188 43.0556640625 273.325195312 46.73828125 280.137695312 56.8056640625 c 2
 283.333007812 61.52734375 l 1
 283.333007812 341.666992188 l 1
 283.333007812 621.805664062 l 1
 280.138671875 626.52734375 l 2
 275.989257812 632.663085938 268.055664062 636.962890625 257.5 638.797851562 c 0
EndSplineSet
Validated: 524833
EndChar

StartChar: The-letter-I
Encoding: 73 -1 12
Width: 463
Flags: HW
LayerCount: 2
Back
Fore
SplineSet
27.77734375 668.333007812 m 1
 27.77734375 683.47265625 l 1
 63.5419921875 682.361328125 l 2
 83.2021484375 681.75 159.02734375 681.25 231.944335938 681.25 c 0
 304.861328125 681.25 380.686523438 681.75 400.34765625 682.361328125 c 2
 436.111328125 683.47265625 l 1
 436.111328125 668.333007812 l 1
 436.111328125 653.194335938 l 1
 403.194335938 652.336914062 l 2
 351.25 650.983398438 338.663085938 647.708984375 331.766601562 633.75 c 2
 328.47265625 627.083007812 l 1
 328.47265625 341.666992188 l 1
 328.47265625 56.25 l 1
 331.766601562 49.5830078125 l 2
 338.663085938 35.625 351.25 32.349609375 403.194335938 30.99609375 c 2
 436.111328125 30.138671875 l 1
 436.111328125 15 l 1
 436.111328125 -0.138671875 l 1
 400.416992188 0.978515625 l 2
 354.02734375 2.4296875 109.961914062 2.4326171875 63.611328125 0.982421875 c 2
 27.77734375 -0.138671875 l 1
 27.77734375 15 l 1
 27.77734375 30.138671875 l 1
 60.6943359375 30.99609375 l 2
 112.638671875 32.349609375 125.225585938 35.625 132.122070312 49.5830078125 c 2
 135.416992188 56.25 l 1
 135.416992188 341.666992188 l 1
 135.416992188 627.083007812 l 1
 132.122070312 633.75 l 2
 125.225585938 647.708984375 112.638671875 650.983398438 60.6943359375 652.336914062 c 2
 27.77734375 653.194335938 l 1
 27.77734375 668.333007812 l 1
257.5 638.797851562 m 0
 246.388671875 640.73046875 213.868164062 640.494140625 204.166992188 638.41015625 c 0
 194.444335938 636.322265625 187.59765625 632.314453125 183.626953125 626.388671875 c 2
 180.555664062 621.805664062 l 1
 180.555664062 341.666992188 l 1
 180.555664062 61.52734375 l 1
 183.750976562 56.8056640625 l 2
 190.563476562 46.73828125 203.47265625 43.0556640625 231.944335938 43.0556640625 c 0
 260.416992188 43.0556640625 273.325195312 46.73828125 280.137695312 56.8056640625 c 2
 283.333007812 61.52734375 l 1
 283.333007812 341.666992188 l 1
 283.333007812 621.805664062 l 1
 280.138671875 626.52734375 l 2
 275.989257812 632.663085938 268.055664062 636.962890625 257.5 638.797851562 c 0
EndSplineSet
Validated: 524833
EndChar

StartChar: The-letter-J
Encoding: 74 -1 13
Width: 616
Flags: HW
LayerCount: 2
Back
Fore
SplineSet
166.666992188 668.125 m 1
 166.666992188 683.47265625 l 1
 205.97265625 682.362304688 l 2
 256.666992188 680.9296875 501.899414062 680.936523438 539.305664062 682.370117188 c 2
 568.055664062 683.47265625 l 1
 568.055664062 668.333007812 l 1
 568.055664062 653.194335938 l 1
 544.72265625 652.3046875 l 2
 510.27734375 650.991210938 501.15234375 648.110351562 495.185546875 636.666992188 c 0
 492.3671875 631.26171875 492.359375 630.694335938 491.666992188 377.083007812 c 0
 491.000976562 133.611328125 490.862304688 122.537109375 488.362304688 113.888671875 c 0
 480.814453125 87.77734375 467.727539062 66.19921875 446.666992188 45.138671875 c 0
 410.29296875 8.765625 355.27734375 -14.7939453125 292.361328125 -20.9404296875 c 0
 272.168945312 -22.9130859375 229.72265625 -21.810546875 206.944335938 -18.72265625 c 0
 123.333007812 -7.3876953125 67.7646484375 25.4384765625 48.7607421875 74.72265625 c 0
 38.37109375 101.666992188 39.3955078125 129.161132812 51.44140625 146.666992188 c 0
 72.27734375 176.944335938 122.166015625 176.944335938 143.000976562 146.666992188 c 0
 155.903320312 127.916992188 155.904296875 99.9208984375 143.004882812 81.25 c 0
 133.579101562 67.6064453125 117.77734375 59.544921875 97.22265625 57.8916015625 c 2
 92.361328125 57.5 l 1
 100 50.0791015625 l 2
 124.05859375 26.705078125 162.361328125 10.9609375 213.888671875 3.2626953125 c 0
 231.111328125 0.6904296875 281.41015625 -0.2470703125 293.333007812 1.7822265625 c 2
 300 2.9169921875 l 1
 300 312.083007812 l 2
 300 539.72265625 299.577148438 622.641601562 298.395507812 626.52734375 c 0
 296.327148438 633.333007812 289.80859375 641.092773438 283.47265625 644.291992188 c 0
 273.154296875 649.502929688 239.02734375 652.677734375 192.638671875 652.7421875 c 2
 166.666992188 652.77734375 l 1
 166.666992188 668.125 l 1
421.388671875 638.797851562 m 0
 410.27734375 640.73046875 377.7578125 640.494140625 368.055664062 638.41015625 c 0
 358.333007812 636.322265625 351.486328125 632.314453125 347.515625 626.388671875 c 2
 344.444335938 621.805664062 l 1
 344.444335938 318.47265625 l 1
 344.444335938 15.138671875 l 1
 347.569335938 16.111328125 l 2
 349.288085938 16.6455078125 355.694335938 19.578125 361.805664062 22.6279296875 c 0
 396.944335938 40.1611328125 427.015625 70.9609375 438.840820312 101.52734375 c 0
 447.567382812 124.087890625 447.22265625 112.638671875 447.22265625 379.166992188 c 2
 447.22265625 621.805664062 l 1
 444.02734375 626.52734375 l 2
 439.877929688 632.663085938 431.944335938 636.962890625 421.388671875 638.797851562 c 0
EndSplineSet
Validated: 524833
EndChar

StartChar: The-letter-K
Encoding: 75 -1 14
Width: 880
Flags: HW
LayerCount: 2
Back
Fore
SplineSet
33.3330078125 668.333007812 m 1
 33.3330078125 683.47265625 l 1
 67.013671875 682.361328125 l 2
 85.546875 681.75 159.72265625 681.25 231.944335938 681.25 c 0
 304.166992188 681.25 378.341796875 681.75 396.875 682.361328125 c 2
 430.555664062 683.47265625 l 1
 430.555664062 668.333007812 l 1
 430.555664062 653.194335938 l 1
 399.02734375 652.3046875 l 2
 365.694335938 651.364257812 348.7421875 649.186523438 341.388671875 644.90234375 c 0
 336.055664062 641.793945312 331.172851562 635 329.182617188 627.916992188 c 0
 328.275390625 624.686523438 327.77734375 560 327.77734375 445.138671875 c 2
 327.77734375 267.361328125 l 1
 490.90234375 430.486328125 l 2
 605.208007812 544.791992188 655.112304688 595.606445312 657.65234375 600.27734375 c 0
 665.279296875 614.305664062 663.5703125 628.235351562 652.916992188 638.888671875 c 0
 645.432617188 646.373046875 634.861328125 650.981445312 622.083007812 652.330078125 c 2
 613.888671875 653.194335938 l 1
 613.888671875 668.333007812 l 1
 613.888671875 683.47265625 l 1
 639.861328125 682.376953125 l 2
 673.333007812 680.965820312 793.763671875 680.889648438 811.388671875 682.268554688 c 2
 825 683.333007812 l 1
 825 668.263671875 l 1
 825 653.194335938 l 1
 813.055664062 652.265625 l 2
 777.22265625 649.479492188 745.481445312 636.995117188 712.5 612.713867188 c 0
 702.77734375 605.556640625 491.666992188 396.630859375 491.666992188 394.166992188 c 0
 491.666992188 392.975585938 721.141601562 89.3056640625 733.48046875 74.1669921875 c 0
 744.688476562 60.4169921875 759.40234375 47.146484375 769.305664062 41.8564453125 c 0
 781.926757812 35.115234375 796.388671875 31.9619140625 819.166992188 30.9853515625 c 2
 838.888671875 30.138671875 l 1
 838.888671875 15 l 1
 838.888671875 -0.138671875 l 1
 820.555664062 0.955078125 l 2
 796.815429688 2.37109375 641.666992188 2.37109375 608.75 0.955078125 c 2
 583.333007812 -0.138671875 l 1
 583.333007812 15 l 1
 583.333007812 30.138671875 l 1
 597.638671875 30.939453125 l 2
 615 31.91015625 625.826171875 35.5302734375 631.798828125 42.361328125 c 0
 640.216796875 51.990234375 640.041992188 63.75 631.264648438 78.3330078125 c 0
 628.737304688 82.533203125 583.642578125 142.84765625 531.111328125 212.291992188 c 2
 435.555664062 338.611328125 l 1
 381.666992188 285.763671875 l 1
 327.77734375 232.916992188 l 1
 327.77734375 146.666992188 l 2
 327.77734375 93.1943359375 328.311523438 58.5166015625 329.182617188 55.4169921875 c 0
 331.172851562 48.3330078125 336.055664062 41.5390625 341.388671875 38.431640625 c 0
 348.7421875 34.146484375 365.694335938 31.96875 399.02734375 31.0283203125 c 2
 430.555664062 30.138671875 l 1
 430.555664062 15 l 1
 430.555664062 -0.138671875 l 1
 396.944335938 0.9658203125 l 2
 353.194335938 2.4033203125 110.796875 2.4072265625 67.0830078125 0.970703125 c 2
 33.3330078125 -0.138671875 l 1
 33.3330078125 15 l 1
 33.3330078125 30.138671875 l 1
 64.861328125 31.0283203125 l 2
 98.1943359375 31.96875 115.147460938 34.146484375 122.5 38.431640625 c 0
 127.791015625 41.5146484375 132.700195312 48.3330078125 134.62890625 55.27734375 c 0
 136.557617188 62.22265625 136.557617188 621.111328125 134.62890625 628.055664062 c 0
 132.700195312 635 127.791015625 641.818359375 122.5 644.90234375 c 0
 115.147460938 649.186523438 98.1943359375 651.364257812 64.861328125 652.3046875 c 2
 33.3330078125 653.194335938 l 1
 33.3330078125 668.333007812 l 1
257.5 638.797851562 m 0
 246.388671875 640.73046875 213.868164062 640.494140625 204.166992188 638.41015625 c 0
 194.444335938 636.322265625 187.59765625 632.314453125 183.626953125 626.388671875 c 2
 180.555664062 621.805664062 l 1
 180.555664062 341.666992188 l 1
 180.555664062 61.52734375 l 1
 183.750976562 56.8056640625 l 2
 190.563476562 46.73828125 203.47265625 43.0556640625 231.944335938 43.0556640625 c 0
 260.416992188 43.0556640625 273.325195312 46.73828125 280.137695312 56.8056640625 c 2
 283.333007812 61.52734375 l 1
 283.333007812 341.666992188 l 1
 283.333007812 621.805664062 l 1
 280.138671875 626.52734375 l 2
 275.989257812 632.663085938 268.055664062 636.962890625 257.5 638.797851562 c 0
EndSplineSet
Validated: 524833
EndChar

StartChar: The-letter-L
Encoding: 76 -1 15
Width: 727
Flags: HW
LayerCount: 2
Back
Fore
SplineSet
33.3330078125 668.333007812 m 1
 33.3330078125 683.47265625 l 1
 66.9443359375 682.356445312 l 2
 110.705078125 680.904296875 370.138671875 680.900390625 418.333007812 682.3515625 c 2
 455.555664062 683.47265625 l 1
 455.555664062 668.333007812 l 1
 455.555664062 653.194335938 l 1
 417.638671875 652.374023438 l 2
 378.75 651.532226562 361.540039062 650.057617188 349.166992188 646.506835938 c 0
 340.298828125 643.962890625 331.893554688 635.416992188 329.379882812 626.388671875 c 0
 328.022460938 621.516601562 327.73046875 557.083007812 328.055664062 334.02734375 c 0
 328.46875 50 328.4921875 47.880859375 331.25 43.0556640625 c 0
 333.02734375 39.9443359375 336.52734375 36.9443359375 340.97265625 34.72265625 c 0
 347.7578125 31.3291015625 348.75 31.2392578125 384.444335938 30.7783203125 c 0
 464.72265625 29.7431640625 514.895507812 37.421875 553.47265625 56.6494140625 c 0
 605.231445312 82.447265625 637.725585938 130.27734375 652.747070312 202.77734375 c 0
 655.193359375 214.583007812 661.012695312 251.58984375 661.090820312 255.833007812 c 0
 661.1015625 256.447265625 666.736328125 256.944335938 673.680664062 256.944335938 c 2
 686.25 256.944335938 l 1
 685.486328125 251.041992188 l 2
 685.06640625 247.794921875 679.09765625 192.638671875 672.22265625 128.47265625 c 0
 665.34765625 64.3056640625 659.34765625 9.1494140625 658.888671875 5.90234375 c 2
 658.055664062 -0 l 1
 345.694335938 -0 l 1
 33.3330078125 -0 l 1
 33.3330078125 15.0693359375 l 1
 33.3330078125 30.138671875 l 1
 64.861328125 31.0283203125 l 2
 98.1943359375 31.96875 115.147460938 34.146484375 122.5 38.431640625 c 0
 127.791015625 41.5146484375 132.700195312 48.3330078125 134.62890625 55.27734375 c 0
 136.557617188 62.22265625 136.557617188 621.111328125 134.62890625 628.055664062 c 0
 132.700195312 635 127.791015625 641.818359375 122.5 644.90234375 c 0
 115.147460938 649.186523438 98.1943359375 651.364257812 64.861328125 652.3046875 c 2
 33.3330078125 653.194335938 l 1
 33.3330078125 668.333007812 l 1
257.5 638.797851562 m 0
 246.388671875 640.73046875 213.868164062 640.494140625 204.166992188 638.41015625 c 0
 194.444335938 636.322265625 187.59765625 632.314453125 183.626953125 626.388671875 c 2
 180.555664062 621.805664062 l 1
 180.555664062 341.666992188 l 1
 180.555664062 61.52734375 l 1
 183.750976562 56.8056640625 l 2
 190.563476562 46.73828125 203.47265625 43.0556640625 231.944335938 43.0556640625 c 0
 260.416992188 43.0556640625 273.325195312 46.73828125 280.137695312 56.8056640625 c 2
 283.333007812 61.52734375 l 1
 283.333007812 341.666992188 l 1
 283.333007812 621.805664062 l 1
 280.138671875 626.52734375 l 2
 275.989257812 632.663085938 268.055664062 636.962890625 257.5 638.797851562 c 0
EndSplineSet
Validated: 524833
EndChar

StartChar: The-letter-M
Encoding: 77 -1 16
Width: 1019
Flags: HW
LayerCount: 2
Back
Fore
SplineSet
37.5 668.263671875 m 1
 37.5 683.333007812 l 1
 192.013671875 683.333007812 l 2
 342.84765625 683.333007812 346.633789062 683.268554688 350.97265625 680.625 c 0
 353.47265625 679.1015625 356.267578125 676.21484375 357.361328125 674.02734375 c 0
 358.430664062 671.888671875 406.736328125 543.125 464.72265625 387.84765625 c 0
 522.708007812 232.569335938 570.451171875 105.555664062 570.833007812 105.555664062 c 0
 571.21484375 105.555664062 618.958984375 232.569335938 676.944335938 387.84765625 c 0
 734.9296875 543.125 783.236328125 671.888671875 784.305664062 674.02734375 c 0
 785.399414062 676.21484375 788.194335938 679.1015625 790.694335938 680.625 c 0
 794.983398438 683.23828125 798.40234375 683.333007812 888.541992188 683.333007812 c 2
 981.944335938 683.333007812 l 1
 981.944335938 668.263671875 l 1
 981.944335938 653.194335938 l 1
 950.416992188 652.3046875 l 2
 917.083007812 651.364257812 900.130859375 649.186523438 892.77734375 644.90234375 c 0
 887.486328125 641.818359375 882.577148438 635 880.6484375 628.055664062 c 0
 878.719726562 621.111328125 878.719726562 62.22265625 880.6484375 55.27734375 c 0
 882.577148438 48.3330078125 887.486328125 41.5146484375 892.77734375 38.431640625 c 0
 900.130859375 34.146484375 917.083007812 31.96875 950.416992188 31.0283203125 c 2
 981.944335938 30.138671875 l 1
 981.944335938 15 l 1
 981.944335938 -0.138671875 l 1
 956.59765625 0.97265625 l 2
 942.646484375 1.583984375 889.72265625 2.0830078125 838.888671875 2.0830078125 c 0
 788.055664062 2.0830078125 735.130859375 1.583984375 721.180664062 0.97265625 c 2
 695.833007812 -0.138671875 l 1
 695.833007812 15 l 1
 695.833007812 30.138671875 l 1
 727.361328125 31.0283203125 l 2
 760.694335938 31.96875 777.647460938 34.1552734375 785 38.4619140625 c 0
 790.416992188 41.634765625 795.3046875 48.47265625 797.220703125 55.5556640625 c 0
 798.1328125 58.9267578125 798.491210938 162.361328125 798.263671875 356.25 c 2
 797.916992188 651.805664062 l 1
 677.77734375 330.416992188 l 2
 586.505859375 86.25 556.764648438 8.126953125 553.999023438 5.27734375 c 0
 547.633789062 -1.28125 539.72265625 -1.556640625 532.638671875 4.5341796875 c 0
 529.744140625 7.0234375 505.360351562 70.97265625 409.65234375 327.083007812 c 0
 343.99609375 502.77734375 289.68359375 647.77734375 288.958007812 649.305664062 c 0
 288.134765625 651.038085938 287.743164062 544.72265625 287.916992188 366.666992188 c 2
 288.194335938 81.25 l 1
 291.403320312 73.3330078125 l 2
 302.190429688 46.7197265625 328.47265625 33.2392578125 374.02734375 30.9541015625 c 2
 390.27734375 30.138671875 l 1
 390.27734375 15 l 1
 390.27734375 -0.138671875 l 1
 360.069335938 0.97265625 l 2
 343.463867188 1.5830078125 277.638671875 2.0830078125 213.888671875 2.0830078125 c 0
 150.138671875 2.0830078125 84.3134765625 1.5830078125 67.7080078125 0.97265625 c 2
 37.5 -0.138671875 l 1
 37.5 15.2080078125 l 1
 37.5 30.5556640625 l 1
 46.9443359375 30.5556640625 l 2
 59.861328125 30.5556640625 77.890625 32.90625 90 36.169921875 c 0
 115.833007812 43.1328125 130.98046875 56.3037109375 137.53125 77.5 c 0
 140.227539062 86.2255859375 140.27734375 91.3193359375 140.27734375 354.65234375 c 0
 140.27734375 530.069335938 139.791992188 624.647460938 138.873046875 627.916992188 c 0
 136.8828125 635 132 641.793945312 126.666992188 644.90234375 c 0
 119.313476562 649.186523438 102.361328125 651.364257812 69.02734375 652.3046875 c 2
 37.5 653.194335938 l 1
 37.5 668.263671875 l 1
239.444335938 638.797851562 m 0
 228.333007812 640.73046875 195.813476562 640.494140625 186.111328125 638.41015625 c 0
 176.388671875 636.322265625 169.541992188 632.314453125 165.571289062 626.388671875 c 2
 162.5 621.805664062 l 1
 162.5 355.97265625 l 2
 162.5 67.0830078125 162.029296875 84.9501953125 169.865234375 76.52734375 c 0
 177.181640625 68.6650390625 196.52734375 62.5 213.888671875 62.5 c 0
 231.25 62.5 250.596679688 68.6650390625 257.912109375 76.52734375 c 0
 265.749023438 84.9501953125 265.27734375 67.0830078125 265.27734375 355.97265625 c 2
 265.27734375 621.805664062 l 1
 262.083007812 626.52734375 l 2
 257.93359375 632.663085938 250 636.962890625 239.444335938 638.797851562 c 0
EndSplineSet
Validated: 524833
EndChar

StartChar: The-letter-N
Encoding: 78 -1 17
Width: 852
Flags: HW
LayerCount: 2
Back
Fore
SplineSet
33.3330078125 668.055664062 m 1
 33.3330078125 683.333007812 l 1
 154.72265625 683.333007812 l 2
 268.333007812 683.333007812 276.2890625 683.177734375 278.888671875 680.90234375 c 0
 280.416992188 679.565429688 372.421875 556.944335938 483.40234375 408.333007812 c 0
 594.383789062 259.72265625 685.982421875 137.256835938 687.013671875 136.111328125 c 0
 688.6015625 134.346679688 688.8359375 169.861328125 688.541992188 368.055664062 c 2
 688.194335938 602.083007812 l 1
 684.985351562 610 l 2
 674.198242188 636.61328125 647.916992188 650.09375 602.361328125 652.37890625 c 2
 586.111328125 653.194335938 l 1
 586.111328125 668.333007812 l 1
 586.111328125 683.47265625 l 1
 605.90234375 682.361328125 l 2
 616.779296875 681.750976562 660.416992188 681.25 702.77734375 681.25 c 0
 745.138671875 681.25 788.776367188 681.750976562 799.65234375 682.361328125 c 2
 819.444335938 683.47265625 l 1
 819.444335938 668.125 l 1
 819.444335938 652.77734375 l 1
 810 652.77734375 l 2
 797.083007812 652.77734375 779.053710938 650.426757812 766.944335938 647.163085938 c 0
 741.111328125 640.201171875 725.963867188 627.030273438 719.4140625 605.833007812 c 0
 716.713867188 597.096679688 716.666992188 591.875 716.666992188 301.875 c 2
 716.666992188 6.8056640625 l 1
 713.194335938 3.3330078125 l 2
 708.932617188 -0.9287109375 697.77734375 -1.4296875 693.333007812 2.44140625 c 0
 691.805664062 3.7724609375 599.799804688 126.388671875 488.819335938 275 c 0
 377.838867188 423.611328125 286.240234375 546.076171875 285.208007812 547.22265625 c 0
 283.620117188 548.986328125 283.38671875 513.47265625 283.680664062 315.27734375 c 2
 284.02734375 81.25 l 1
 287.236328125 73.3330078125 l 2
 298.0234375 46.7197265625 324.305664062 33.2392578125 369.861328125 30.9541015625 c 2
 386.111328125 30.138671875 l 1
 386.111328125 15 l 1
 386.111328125 -0.138671875 l 1
 355.90234375 0.97265625 l 2
 339.296875 1.5830078125 273.47265625 2.0830078125 209.72265625 2.0830078125 c 0
 145.97265625 2.0830078125 80.1474609375 1.5830078125 63.5419921875 0.97265625 c 2
 33.3330078125 -0.138671875 l 1
 33.3330078125 15.2080078125 l 1
 33.3330078125 30.5556640625 l 1
 42.77734375 30.5556640625 l 2
 55.6943359375 30.5556640625 73.7236328125 32.90625 85.8330078125 36.169921875 c 0
 111.666992188 43.1328125 126.813476562 56.3037109375 133.364257812 77.5 c 0
 136.061523438 86.2294921875 136.111328125 91.4580078125 136.111328125 368.680664062 c 2
 136.111328125 650.97265625 l 1
 117.15234375 651.875 l 2
 106.759765625 652.370117188 83.5419921875 652.77734375 65.763671875 652.77734375 c 2
 33.3330078125 652.77734375 l 1
 33.3330078125 668.055664062 l 1
182.638671875 646.423828125 m 0
 176.52734375 647.55078125 168.55859375 648.81640625 164.930664062 649.236328125 c 2
 158.333007812 650 l 1
 158.333007812 370 l 2
 158.333007812 65.6943359375 157.849609375 84.9638671875 165.69921875 76.52734375 c 0
 173.014648438 68.6650390625 192.361328125 62.5 209.72265625 62.5 c 0
 227.083007812 62.5 246.4296875 68.6650390625 253.745117188 76.52734375 c 0
 261.564453125 84.931640625 261.111328125 69.02734375 261.111328125 334.861328125 c 2
 261.111328125 579.583007812 l 1
 245.694335938 600.208007812 l 2
 237.181640625 611.59765625 227.10546875 623.703125 223.194335938 627.2421875 c 0
 213.815429688 635.727539062 196.666992188 643.838867188 182.638671875 646.423828125 c 0
EndSplineSet
Validated: 524833
EndChar

StartChar: The-letter-O
Encoding: 79 -1 18
Width: 880
Flags: HW
LayerCount: 2
Back
Fore
SplineSet
411.805664062 704.780273438 m 0
 426.342773438 706.22265625 479.166992188 704.231445312 496.52734375 701.586914062 c 0
 569.583007812 690.458007812 632.108398438 663.759765625 686.52734375 620.455078125 c 0
 761.723632812 560.6171875 809.087890625 477.5 822.44140625 381.944335938 c 0
 825.217773438 362.083007812 824.818359375 311.52734375 821.728515625 291.666992188 c 0
 813.32421875 237.638671875 795.02734375 190.46484375 765.165039062 145.833007812 c 0
 751.040039062 124.72265625 736.055664062 107.032226562 715.138671875 86.7763671875 c 0
 656.546875 30.0341796875 582.083007812 -5.8037109375 496.666992188 -18.3701171875 c 0
 466.52734375 -22.8046875 414.02734375 -22.8037109375 383.888671875 -18.3681640625 c 0
 338.194335938 -11.64453125 296.310546875 1.529296875 256.944335938 21.55859375 c 0
 159.151367188 71.31640625 88.822265625 159.166992188 64.611328125 261.805664062 c 0
 58.1767578125 289.087890625 56.3759765625 305.694335938 56.3310546875 338.194335938 c 0
 56.271484375 380.97265625 60.80078125 410.029296875 73.5419921875 448.611328125 c 0
 103.860351562 540.416992188 169.237304688 615.938476562 257.638671875 661.276367188 c 0
 306.774414062 686.475585938 349.861328125 698.633789062 411.805664062 704.780273438 c 0
486.111328125 676.569335938 m 0
 470.833007812 679.26171875 425.620117188 681.267578125 414.583007812 679.7421875 c 0
 412.302734375 679.427734375 404.444335938 678.489257812 397.22265625 677.668945312 c 0
 377.0703125 675.381835938 352.638671875 669.872070312 331.52734375 662.853515625 c 2
 312.5 656.52734375 l 1
 312.5 342.291992188 l 1
 312.5 28.0556640625 l 1
 324.02734375 23.8671875 l 2
 339.212890625 18.349609375 372.083007812 10.3056640625 390.27734375 7.654296875 c 0
 411.52734375 4.5576171875 446.495117188 3.53125 464.583007812 5.47265625 c 0
 515.416992188 10.927734375 560.74609375 29.490234375 602.083007812 61.779296875 c 0
 614.583007812 71.54296875 639.315429688 96.52734375 648.854492188 109.02734375 c 0
 695.119140625 169.655273438 719.00390625 245.138671875 721.80859375 339.583007812 c 0
 724.345703125 425 705.376953125 500.791015625 667.165039062 557.916992188 c 0
 624.92578125 621.063476562 560.138671875 663.520507812 486.111328125 676.569335938 c 0
261.111328125 341.59765625 m 2
 261.111328125 499.791992188 260.673828125 629.154296875 260.138671875 629.139648438 c 0
 258.670898438 629.098632812 237.22265625 613.671875 226.388671875 604.865234375 c 0
 212.67578125 593.717773438 186.479492188 566.25 175.387695312 551.388671875 c 0
 133.125976562 494.76953125 110.135742188 427.361328125 107.412109375 352.083007812 c 0
 103.546875 245.27734375 146.291015625 144.6015625 222.083007812 81.9970703125 c 0
 236.52734375 70.0654296875 250.959960938 59.4423828125 257.361328125 56.02734375 c 2
 261.111328125 54.02734375 l 1
 261.111328125 341.59765625 l 2
EndSplineSet
Validated: 524833
EndChar

StartChar: The-letter-P
Encoding: 80 -1 19
Width: 783
Flags: HW
LayerCount: 2
Back
Fore
SplineSet
33.3330078125 668.263671875 m 1
 33.3330078125 683.333007812 l 1
 246.944335938 683.333007812 l 2
 460 683.333007812 476.403320312 683.021484375 507.638671875 678.375976562 c 0
 603.333007812 664.14453125 683.290039062 615.737304688 713.948242188 553.47265625 c 0
 724.317382812 532.415039062 726.805664062 521.52734375 726.805664062 497.22265625 c 0
 726.805664062 479.305664062 726.395507812 475.734375 723.090820312 464.861328125 c 0
 715.956054688 441.388671875 704.711914062 422.8828125 685.452148438 402.916992188 c 0
 644.521484375 360.484375 581.805664062 331.20703125 508.333007812 320.235351562 c 0
 481.107421875 316.168945312 460.555664062 315.27734375 394.02734375 315.27734375 c 2
 327.77734375 315.27734375 l 1
 327.77734375 187.84765625 l 2
 327.77734375 106.736328125 328.288085938 58.599609375 329.182617188 55.4169921875 c 0
 331.172851562 48.3330078125 336.055664062 41.5390625 341.388671875 38.431640625 c 0
 348.7421875 34.146484375 365.694335938 31.96875 399.02734375 31.0283203125 c 2
 430.555664062 30.138671875 l 1
 430.555664062 15 l 1
 430.555664062 -0.138671875 l 1
 396.944335938 0.9658203125 l 2
 353.194335938 2.4033203125 110.796875 2.4072265625 67.0830078125 0.970703125 c 2
 33.3330078125 -0.138671875 l 1
 33.3330078125 15 l 1
 33.3330078125 30.138671875 l 1
 64.861328125 31.0283203125 l 2
 98.1943359375 31.96875 115.147460938 34.146484375 122.5 38.431640625 c 0
 127.791015625 41.5146484375 132.700195312 48.3330078125 134.62890625 55.27734375 c 0
 136.557617188 62.22265625 136.557617188 621.111328125 134.62890625 628.055664062 c 0
 132.700195312 635 127.791015625 641.818359375 122.5 644.90234375 c 0
 115.147460938 649.186523438 98.1943359375 651.364257812 64.861328125 652.3046875 c 2
 33.3330078125 653.194335938 l 1
 33.3330078125 668.263671875 l 1
453.47265625 651.309570312 m 0
 434.166992188 652.966796875 359.391601562 652.999023438 349.583007812 651.35546875 c 0
 340.833007812 649.888671875 334.810546875 646.235351562 331.3203125 640.27734375 c 0
 328.51171875 635.483398438 328.467773438 633.40234375 328.125 488.40234375 c 2
 327.77734375 341.388671875 l 1
 392.083007812 342.048828125 l 2
 456.666992188 342.711914062 465.755859375 343.313476562 493.055664062 348.733398438 c 0
 533.888671875 356.83984375 569.967773438 374.911132812 591.530273438 398.055664062 c 0
 616.884765625 425.270507812 629.393554688 473.333007812 623.485351562 520.833007812 c 0
 618.04296875 564.583007812 600.408203125 595.450195312 569.305664062 615.666992188 c 0
 537.524414062 636.32421875 502.5 647.1015625 453.47265625 651.309570312 c 0
257.5 638.797851562 m 0
 246.388671875 640.73046875 213.868164062 640.494140625 204.166992188 638.41015625 c 0
 194.444335938 636.322265625 187.59765625 632.314453125 183.626953125 626.388671875 c 2
 180.555664062 621.805664062 l 1
 180.555664062 341.666992188 l 1
 180.555664062 61.52734375 l 1
 183.750976562 56.8056640625 l 2
 190.563476562 46.73828125 203.47265625 43.0556640625 231.944335938 43.0556640625 c 0
 260.416992188 43.0556640625 273.325195312 46.73828125 280.137695312 56.8056640625 c 2
 283.333007812 61.52734375 l 1
 283.333007812 341.666992188 l 1
 283.333007812 621.805664062 l 1
 280.138671875 626.52734375 l 2
 275.989257812 632.663085938 268.055664062 636.962890625 257.5 638.797851562 c 0
EndSplineSet
Validated: 524833
EndChar

StartChar: The-letter-Q
Encoding: 81 -1 20
Width: 880
Flags: HW
LayerCount: 2
Back
Fore
SplineSet
411.805664062 704.780273438 m 0
 426.342773438 706.22265625 479.166992188 704.231445312 496.52734375 701.586914062 c 0
 569.583007812 690.458007812 632.108398438 663.759765625 686.52734375 620.455078125 c 0
 761.723632812 560.6171875 809.087890625 477.5 822.44140625 381.944335938 c 0
 825.217773438 362.083007812 824.831054688 311.52734375 821.751953125 291.666992188 c 0
 811.568359375 225.97265625 784.67578125 165.9375 743.360351562 116.666992188 c 0
 719.453125 88.1552734375 686.666992188 59.4150390625 655.27734375 39.455078125 c 0
 641.25 30.5341796875 606.610351562 12.5302734375 594.72265625 7.98046875 c 2
 588.75 5.6943359375 l 1
 592.5 -1.6669921875 l 2
 594.5625 -5.71484375 600.004882812 -15.27734375 604.594726562 -22.9169921875 c 0
 626.291992188 -59.02734375 647.857421875 -79.5869140625 672.5 -87.6533203125 c 0
 681.262695312 -90.521484375 685.27734375 -90.96484375 702.083007812 -90.916015625 c 0
 724.444335938 -90.8515625 736.172851562 -88.240234375 754.861328125 -79.1650390625 c 0
 786.805664062 -63.65234375 808.163085938 -32.693359375 808.325195312 -1.6669921875 c 0
 808.385742188 9.861328125 819.599609375 15.26171875 827.361328125 7.5 c 2
 830.97265625 3.888671875 l 1
 830.110351562 -15 l 2
 826.568359375 -92.638671875 793.018554688 -157.844726562 744.02734375 -182.306640625 c 0
 726.314453125 -191.151367188 714.583007812 -193.731445312 692.361328125 -193.666992188 c 0
 676.52734375 -193.62109375 670.904296875 -193.038085938 662.083007812 -190.528320312 c 0
 620.2421875 -178.62109375 593.715820312 -147.083007812 572.505859375 -84.02734375 c 0
 566.805664062 -67.0830078125 551.388671875 -12.0224609375 551.388671875 -8.611328125 c 0
 551.388671875 -7.5078125 550.416992188 -7.1005859375 548.888671875 -7.5654296875 c 0
 538.633789062 -10.6806640625 513.888671875 -15.7744140625 496.52734375 -18.3427734375 c 0
 466.462890625 -22.7919921875 414.02734375 -22.8037109375 383.888671875 -18.3681640625 c 0
 338.194335938 -11.64453125 296.310546875 1.529296875 256.944335938 21.55859375 c 0
 159.151367188 71.31640625 88.822265625 159.166992188 64.611328125 261.805664062 c 0
 58.1767578125 289.087890625 56.3759765625 305.694335938 56.3310546875 338.194335938 c 0
 56.271484375 380.97265625 60.80078125 410.029296875 73.5419921875 448.611328125 c 0
 103.860351562 540.416992188 169.237304688 615.938476562 257.638671875 661.276367188 c 0
 306.774414062 686.475585938 349.861328125 698.633789062 411.805664062 704.780273438 c 0
467.77734375 679.067382812 m 0
 424.62890625 683.751953125 369.861328125 676.745117188 325 660.80078125 c 2
 311.805664062 656.111328125 l 1
 311.458007812 341.52734375 l 1
 311.111328125 26.9443359375 l 1
 326.111328125 21.80859375 l 2
 340.138671875 17.005859375 362.239257812 11.0703125 374.166992188 8.9013671875 c 2
 379.583007812 7.9169921875 l 1
 376.030273438 12.638671875 l 2
 371.56640625 18.572265625 366.3828125 29.02734375 363.017578125 38.888671875 c 0
 359.3203125 49.72265625 359.306640625 76.6669921875 362.9921875 87.5 c 0
 376.413085938 126.944335938 407.345703125 148.899414062 446.52734375 146.790039062 c 0
 478.888671875 145.048828125 506.802734375 130.486328125 529.560546875 103.47265625 c 0
 539.955078125 91.1337890625 556.029296875 66.9443359375 564.6328125 50.6943359375 c 0
 568.30859375 43.75 571.450195312 37.947265625 571.700195312 37.638671875 c 0
 572.465820312 36.6923828125 592.916992188 50.107421875 605.833007812 60.0283203125 c 0
 666.607421875 106.7109375 707.095703125 180.97265625 720.009765625 269.444335938 c 0
 733.106445312 359.166992188 719.87890625 455.009765625 684.758789062 524.861328125 c 0
 641.31640625 611.265625 560 669.056640625 467.77734375 679.067382812 c 0
260.555664062 53.125 m 0
 260.861328125 53.46875 260.955078125 183.40234375 260.763671875 342.013671875 c 2
 260.416992188 630.27734375 l 1
 249.305664062 622.624023438 l 2
 180.115234375 574.963867188 133.517578125 505 114.720703125 420.555664062 c 0
 107.862304688 389.747070312 106.516601562 376.666992188 106.461914062 340.27734375 c 0
 106.40234375 301.388671875 108.19140625 285.317382812 116.202148438 252.77734375 c 0
 136.1015625 171.944335938 182.40625 104.89453125 249.72265625 59.4404296875 c 0
 255.416992188 55.5947265625 260.248046875 52.7783203125 260.555664062 53.125 c 0
468.055664062 120.938476562 m 0
 457.638671875 124.173828125 435.366210938 125.583984375 427.22265625 123.5234375 c 0
 398.275390625 116.202148438 378.25 84.72265625 383.012695312 54.02734375 c 0
 386.202148438 33.47265625 398.213867188 16.4296875 415.694335938 7.6572265625 c 0
 424.94921875 3.0126953125 426.111328125 2.77734375 439.861328125 2.77734375 c 0
 457.192382812 2.77734375 476.666992188 4.7802734375 494.444335938 8.390625 c 0
 507.361328125 11.0146484375 536.325195312 19.7099609375 540.138671875 22.109375 c 0
 541.749023438 23.123046875 541.291992188 25.5556640625 537.485351562 36.25 c 0
 520.083007812 85.138671875 498.479492188 111.490234375 468.055664062 120.938476562 c 0
EndSplineSet
Validated: 524833
EndChar

StartChar: The-letter-R
Encoding: 82 -1 21
Width: 838
Flags: HW
LayerCount: 2
Back
Fore
SplineSet
33.3330078125 668.263671875 m 1
 33.3330078125 683.333007812 l 1
 226.666992188 683.333007812 l 2
 418.888671875 683.333007812 439.943359375 682.913085938 473.611328125 678.400390625 c 0
 572.5 665.145507812 657.560546875 621.778320312 693.856445312 566.111328125 c 0
 721.658203125 523.47265625 720.171875 475.86328125 689.807617188 436.388671875 c 0
 660.034179688 397.68359375 596.666992188 361.822265625 529.583007812 345.712890625 c 0
 522.916992188 344.112304688 516.4140625 342.461914062 515.27734375 342.083007812 c 0
 514.126953125 341.700195312 519.72265625 339.66015625 527.77734375 337.52734375 c 0
 597.77734375 318.993164062 643.69921875 280.374023438 659.103515625 227.083007812 c 0
 660.20703125 223.265625 665.778320312 190.555664062 671.474609375 154.444335938 c 0
 681.837890625 88.75 686.424804688 64.7841796875 691.783203125 48.3330078125 c 0
 699.067382812 25.97265625 709.713867188 11.2333984375 723.333007812 4.65625 c 0
 730.25 1.31640625 732.916992188 0.82421875 744.444335938 0.763671875 c 0
 755.97265625 0.703125 758.65625 1.1728515625 765.694335938 4.482421875 c 0
 776.805664062 9.70703125 783.70703125 15.4921875 790.999023438 25.6943359375 c 0
 802.229492188 41.4052734375 808.68359375 60.6943359375 810.515625 84.02734375 c 0
 810.99609375 90.138671875 812.026367188 96.826171875 812.805664062 98.888671875 c 0
 815.958007812 107.234375 831.283203125 106.944335938 834.807617188 98.47265625 c 0
 839.09375 88.1689453125 832.317382812 51.8056640625 822.306640625 31.388671875 c 0
 808.549804688 3.3330078125 789.1484375 -13.41796875 762.5 -20.24609375 c 0
 751.673828125 -23.0205078125 720.694335938 -22.2421875 700.97265625 -18.7001953125 c 0
 634.583007812 -6.779296875 592.880859375 27.984375 577.573242188 84.1669921875 c 0
 574.778320312 94.4228515625 574.518554688 99.4443359375 573.59765625 161.111328125 c 0
 572.498046875 234.72265625 572.51953125 234.544921875 562.094726562 254.861328125 c 0
 554.342773438 269.96875 533.75 290.641601562 516.111328125 301.022460938 c 0
 502.098632812 309.26953125 480.97265625 317.903320312 464.583007812 322.08203125 c 0
 438.440429688 328.747070312 431.805664062 329.368164062 378.75 330.115234375 c 2
 327.77734375 330.833007812 l 1
 327.77734375 195.625 l 2
 327.77734375 109.375 328.286132812 58.6064453125 329.182617188 55.4169921875 c 0
 331.172851562 48.3330078125 336.055664062 41.5390625 341.388671875 38.431640625 c 0
 348.7421875 34.146484375 365.694335938 31.96875 399.02734375 31.0283203125 c 2
 430.555664062 30.138671875 l 1
 430.555664062 15 l 1
 430.555664062 -0.138671875 l 1
 396.944335938 0.9658203125 l 2
 353.194335938 2.4033203125 110.796875 2.4072265625 67.0830078125 0.970703125 c 2
 33.3330078125 -0.138671875 l 1
 33.3330078125 15 l 1
 33.3330078125 30.138671875 l 1
 64.861328125 31.0283203125 l 2
 98.1943359375 31.96875 115.147460938 34.146484375 122.5 38.431640625 c 0
 127.791015625 41.5146484375 132.700195312 48.3330078125 134.62890625 55.27734375 c 0
 136.557617188 62.22265625 136.557617188 621.111328125 134.62890625 628.055664062 c 0
 132.700195312 635 127.791015625 641.818359375 122.5 644.90234375 c 0
 115.147460938 649.186523438 98.1943359375 651.364257812 64.861328125 652.3046875 c 2
 33.3330078125 653.194335938 l 1
 33.3330078125 668.263671875 l 1
444.444335938 650.024414062 m 0
 427.638671875 652.005859375 358.3984375 653.016601562 349.583007812 651.409179688 c 0
 340.833007812 649.8125 334.8203125 646.142578125 331.349609375 640.27734375 c 0
 328.512695312 635.486328125 328.466796875 633.40234375 328.125 493.958007812 c 2
 327.77734375 352.5 l 1
 379.583007812 353.185546875 l 2
 433.194335938 353.895507812 448.521484375 355.163085938 477.083007812 361.250976562 c 0
 514.305664062 369.184570312 551.463867188 386.3984375 571.805664062 405.1328125 c 0
 621.657226562 451.043945312 624.3515625 544.861328125 577.270507812 595.416992188 c 0
 551.153320312 623.461914062 503.47265625 643.064453125 444.444335938 650.024414062 c 0
257.5 638.797851562 m 0
 246.388671875 640.73046875 213.868164062 640.494140625 204.166992188 638.41015625 c 0
 194.444335938 636.322265625 187.59765625 632.314453125 183.626953125 626.388671875 c 2
 180.555664062 621.805664062 l 1
 180.555664062 341.666992188 l 1
 180.555664062 61.52734375 l 1
 183.750976562 56.8056640625 l 2
 190.563476562 46.73828125 203.47265625 43.0556640625 231.944335938 43.0556640625 c 0
 260.416992188 43.0556640625 273.325195312 46.73828125 280.137695312 56.8056640625 c 2
 283.333007812 61.52734375 l 1
 283.333007812 341.666992188 l 1
 283.333007812 621.805664062 l 1
 280.138671875 626.52734375 l 2
 275.989257812 632.663085938 268.055664062 636.962890625 257.5 638.797851562 c 0
EndSplineSet
Validated: 524833
EndChar

StartChar: The-letter-S
Encoding: 83 -1 22
Width: 658
Flags: HW
LayerCount: 2
Back
Fore
SplineSet
275.694335938 704.65234375 m 0
 277.993164062 704.920898438 288.888671875 705.2265625 300 705.333984375 c 0
 380.833007812 706.115234375 449.947265625 681.404296875 500.138671875 633.776367188 c 2
 507.77734375 626.52734375 l 1
 530.625 663.541992188 l 2
 543.227539062 683.958007812 554.5625 701.676757812 555.90234375 703.055664062 c 0
 559.313476562 706.563476562 567.77734375 706.295898438 571.805664062 702.552734375 c 2
 575 699.583007812 l 1
 575 581.458007812 l 1
 575 463.333007812 l 1
 572.013671875 460.138671875 l 2
 569.7265625 457.692382812 567.5 456.944335938 562.5 456.944335938 c 0
 553.051757812 456.944335938 550.681640625 460.138671875 548.588867188 475.694335938 c 0
 544.458984375 506.388671875 533.00390625 541.649414062 519.306640625 565.833007812 c 0
 480.698242188 633.99609375 414.583007812 671.315429688 321.944335938 677.236328125 c 2
 306.944335938 678.194335938 l 1
 307.291992188 544.513671875 l 1
 307.638671875 410.833007812 l 1
 371.180664062 395.208007812 l 2
 406.180664062 386.6015625 441.459960938 377.280273438 449.72265625 374.45703125 c 0
 499.444335938 357.463867188 543.2734375 325.60546875 569.3515625 287.5 c 0
 602.5703125 238.961914062 611.395507812 182.22265625 593.87109375 129.861328125 c 0
 568.081054688 52.8046875 496.111328125 -3.193359375 402.77734375 -18.82421875 c 0
 374.669921875 -23.5322265625 321.52734375 -22.8359375 284.305664062 -17.2734375 c 0
 222.5 -8.0361328125 165.336914062 15.4638671875 129.305664062 46.4482421875 c 0
 125.27734375 49.9111328125 121.53515625 52.77734375 121.041992188 52.77734375 c 0
 120.543945312 52.77734375 110.485351562 37.0830078125 98.611328125 17.77734375 c 0
 86.736328125 -1.52734375 75.9931640625 -18.3427734375 74.65234375 -19.72265625 c 0
 71.2421875 -23.23046875 62.77734375 -22.962890625 58.75 -19.21875 c 2
 55.5556640625 -16.25 l 1
 55.5556640625 101.666992188 l 1
 55.5556640625 219.583007812 l 1
 59.02734375 223.055664062 l 2
 63.611328125 227.638671875 73.248046875 227.786132812 77.2607421875 223.333007812 c 0
 79.671875 220.657226562 80.28125 217.5 81.0185546875 203.888671875 c 0
 83.0625 166.111328125 93.9677734375 131.612304688 112.102539062 105.555664062 c 0
 151.091796875 49.5361328125 221.111328125 17.1826171875 319.444335938 9.75 c 0
 329.72265625 8.9736328125 341.17578125 8.3330078125 344.791992188 8.3330078125 c 2
 351.388671875 8.3330078125 l 1
 351.388671875 154.02734375 l 1
 351.388671875 299.72265625 l 1
 285.069335938 316.041992188 l 2
 248.541992188 325.030273438 211.575195312 334.81640625 202.77734375 337.826171875 c 0
 160.833007812 352.176757812 120.216796875 378.4296875 96.916015625 406.25 c 0
 78.705078125 427.993164062 67.0205078125 450.138671875 59.982421875 476.25 c 0
 56.791015625 488.092773438 56.388671875 492.22265625 56.388671875 513.194335938 c 0
 56.388671875 534.444335938 56.76171875 538.194335938 60.115234375 550.694335938 c 0
 67.828125 579.444335938 88.693359375 614.060546875 110.97265625 635.071289062 c 0
 133.977539062 656.767578125 163.47265625 674.892578125 195.138671875 686.794921875 c 0
 213.194335938 693.581054688 241.725585938 700.739257812 258.333007812 702.649414062 c 0
 265.555664062 703.479492188 273.4140625 704.38671875 275.694335938 704.65234375 c 0
258.333007812 549.305664062 m 0
 258.333007812 618.47265625 257.865234375 674.96875 257.291992188 674.930664062 c 0
 256.720703125 674.892578125 249.02734375 673.361328125 240.27734375 671.543945312 c 0
 181.111328125 659.2578125 131.931640625 626.534179688 112.92578125 586.805664062 c 0
 94.3876953125 548.055664062 106.352539062 502.9296875 143.333007812 472.122070312 c 0
 161.296875 457.157226562 186.666992188 443.374023438 210.416992188 435.67578125 c 0
 221.52734375 432.07421875 254.069335938 423.611328125 256.805664062 423.611328125 c 0
 257.869140625 423.611328125 258.333007812 461.805664062 258.333007812 549.305664062 c 0
418.47265625 283.2265625 m 0
 409.166992188 285.573242188 401.18359375 287.5 400.763671875 287.5 c 0
 400.34375 287.5 400 225.486328125 400 149.791992188 c 2
 400 12.0830078125 l 1
 406.805664062 13.00390625 l 2
 423.336914062 15.2392578125 446.388671875 22.619140625 465.97265625 31.9443359375 c 0
 500.97265625 48.611328125 529.391601562 74.9638671875 543.110351562 103.47265625 c 0
 564.163085938 147.22265625 554.6875 194.502929688 517.5 231.258789062 c 0
 492.674804688 255.795898438 460.694335938 272.579101562 418.47265625 283.2265625 c 0
EndSplineSet
Validated: 524833
EndChar

StartChar: The-letter-T
Encoding: 84 -1 23
Width: 825
Flags: HW
LayerCount: 2
Back
Fore
SplineSet
54.9306640625 669.791992188 m 2
 55.8330078125 677.77734375 l 1
 412.5 677.77734375 l 1
 769.166992188 677.77734375 l 1
 770.069335938 669.791992188 l 2
 770.565429688 665.40234375 774.663085938 618.333007812 779.166992188 565.27734375 c 0
 783.670898438 512.22265625 787.767578125 465.153320312 788.263671875 460.763671875 c 2
 789.166992188 452.77734375 l 1
 776.666992188 452.77734375 l 1
 764.166992188 452.77734375 l 1
 763.341796875 460.833007812 l 2
 755.93359375 533.194335938 750.616210938 558.73828125 737.352539062 585.694335938 c 0
 719.141601562 622.703125 684.305664062 641.359375 624.861328125 645.938476562 c 0
 613.686523438 646.798828125 587.5 647.282226562 566.52734375 647.013671875 c 0
 529.166992188 646.537109375 528.345703125 646.46484375 521.52734375 643.055664062 c 0
 517.083007812 640.833007812 513.583007812 637.833007812 511.805664062 634.72265625 c 0
 509.047851562 629.896484375 509.024414062 627.77734375 508.616210938 345.833007812 c 0
 508.161132812 32.0830078125 507.501953125 55.5673828125 517.03515625 45.8330078125 c 0
 525.94140625 36.7392578125 536.388671875 34.2177734375 574.583007812 31.9443359375 c 0
 587.373046875 31.18359375 610.625 30.5556640625 626.041992188 30.5556640625 c 2
 654.166992188 30.5556640625 l 1
 654.166992188 15.2080078125 l 1
 654.166992188 -0.138671875 l 1
 611.458007812 0.97265625 l 2
 587.958984375 1.583984375 498.47265625 2.0830078125 412.5 2.0830078125 c 0
 326.52734375 2.0830078125 237.041015625 1.583984375 213.541992188 0.97265625 c 2
 170.833007812 -0.138671875 l 1
 170.833007812 15.2080078125 l 1
 170.833007812 30.5556640625 l 1
 198.958007812 30.5556640625 l 2
 214.375 30.5556640625 237.626953125 31.18359375 250.416992188 31.9443359375 c 0
 288.611328125 34.2177734375 299.05859375 36.7392578125 307.96484375 45.8330078125 c 0
 317.498046875 55.5673828125 316.838867188 32.0830078125 316.383789062 345.833007812 c 0
 315.975585938 627.77734375 315.952148438 629.896484375 313.194335938 634.72265625 c 0
 311.416992188 637.833007812 307.916992188 640.833007812 303.47265625 643.055664062 c 0
 296.654296875 646.46484375 295.833007812 646.537109375 258.47265625 647.013671875 c 0
 237.5 647.282226562 211.313476562 646.798828125 200.138671875 645.938476562 c 0
 140.694335938 641.359375 105.858398438 622.703125 87.6474609375 585.694335938 c 0
 74.3837890625 558.73828125 69.06640625 533.194335938 61.658203125 460.833007812 c 2
 60.8330078125 452.77734375 l 1
 48.3330078125 452.77734375 l 1
 35.8330078125 452.77734375 l 1
 36.736328125 460.763671875 l 2
 37.232421875 465.153320312 41.3291015625 512.22265625 45.8330078125 565.27734375 c 0
 50.3369140625 618.333007812 54.4345703125 665.40234375 54.9306640625 669.791992188 c 2
438.055664062 633.243164062 m 0
 426.944335938 635.174804688 394.423828125 634.938476562 384.72265625 632.854492188 c 0
 375 630.766601562 368.153320312 626.758789062 364.182617188 620.833007812 c 2
 361.111328125 616.25 l 1
 361.111328125 338.888671875 l 1
 361.111328125 61.52734375 l 1
 364.306640625 56.8056640625 l 2
 371.119140625 46.73828125 384.02734375 43.0556640625 412.5 43.0556640625 c 0
 440.97265625 43.0556640625 453.880859375 46.73828125 460.693359375 56.8056640625 c 2
 463.888671875 61.52734375 l 1
 463.888671875 338.888671875 l 1
 463.888671875 616.25 l 1
 460.694335938 620.97265625 l 2
 456.543945312 627.107421875 448.611328125 631.407226562 438.055664062 633.243164062 c 0
EndSplineSet
Validated: 524833
EndChar

StartChar: The-letter-U
Encoding: 85 -1 24
Width: 852
Flags: HW
LayerCount: 2
Back
Fore
SplineSet
22.22265625 668.125 m 1
 22.22265625 683.47265625 l 1
 55.90234375 682.361328125 l 2
 74.435546875 681.75 148.611328125 681.25 220.833007812 681.25 c 0
 293.055664062 681.25 367.23046875 681.75 385.763671875 682.361328125 c 2
 419.444335938 683.47265625 l 1
 419.444335938 668.333007812 l 1
 419.444335938 653.194335938 l 1
 387.916992188 652.3046875 l 2
 354.583007812 651.364257812 337.630859375 649.186523438 330.27734375 644.90234375 c 0
 324.944335938 641.793945312 320.061523438 635 318.071289062 627.916992188 c 0
 317.150390625 624.639648438 316.666992188 520.486328125 316.666992188 325.625 c 2
 316.666992188 28.3330078125 l 1
 332.916992188 23.2119140625 l 2
 367.82421875 12.208984375 389.72265625 9.0400390625 430.555664062 9.083984375 c 0
 486.25 9.1435546875 525.182617188 17.9580078125 571.52734375 41 c 0
 595.97265625 53.1533203125 613.37890625 65.2294921875 632.083007812 83.0126953125 c 0
 668.548828125 117.682617188 690.443359375 160.555664062 695.80078125 207.77734375 c 0
 696.901367188 217.47265625 697.23828125 277.638671875 696.944335938 411.805664062 c 2
 696.52734375 602.083007812 l 1
 693.319335938 610 l 2
 682.532226562 636.61328125 656.25 650.09375 610.694335938 652.37890625 c 2
 594.444335938 653.194335938 l 1
 594.444335938 668.333007812 l 1
 594.444335938 683.47265625 l 1
 614.236328125 682.361328125 l 2
 625.129882812 681.749023438 669.305664062 681.25 712.5 681.25 c 0
 755.694335938 681.25 799.870117188 681.749023438 810.763671875 682.361328125 c 2
 830.555664062 683.47265625 l 1
 830.555664062 668.125 l 1
 830.555664062 652.77734375 l 1
 821.111328125 652.77734375 l 2
 808.194335938 652.77734375 790.165039062 650.423828125 778.055664062 647.157226562 c 0
 753.888671875 640.63671875 739.275390625 628.93359375 731.657226562 610 c 2
 728.47265625 602.083007812 l 1
 727.708007812 400.694335938 l 1
 726.944335938 199.305664062 l 1
 723.877929688 185.833007812 l 2
 707.216796875 112.638671875 659.305664062 53.1640625 586.111328125 14.8154296875 c 0
 543.244140625 -7.6435546875 494.02734375 -20.068359375 440.97265625 -21.8251953125 c 0
 367.5 -24.2587890625 297.859375 -5.6064453125 240.694335938 31.8154296875 c 0
 198.611328125 59.3642578125 168.671875 92.1484375 148.620117188 132.638671875 c 0
 138.302734375 153.47265625 133.662109375 166.119140625 128.84765625 186.52734375 c 0
 125.844726562 199.255859375 125.830078125 200.138671875 125.069335938 413.888671875 c 2
 124.305664062 628.47265625 l 1
 120.828125 634.72265625 l 2
 116.590820312 642.3359375 110.555664062 646.586914062 101.111328125 648.611328125 c 0
 90.2626953125 650.935546875 64.1669921875 652.77734375 42.0830078125 652.77734375 c 2
 22.22265625 652.77734375 l 1
 22.22265625 668.125 l 1
246.388671875 638.797851562 m 0
 235.27734375 640.73046875 202.7578125 640.494140625 193.055664062 638.41015625 c 0
 183.194335938 636.291992188 176.534179688 632.399414062 172.485351562 626.388671875 c 2
 169.305664062 621.666992188 l 1
 169.791992188 411.875 l 1
 170.27734375 202.083007812 l 1
 173.333007812 188.75 l 2
 182.818359375 147.361328125 199.426757812 116.041015625 226.87890625 87.77734375 c 0
 239.154296875 75.138671875 268.0234375 51.388671875 271.111328125 51.388671875 c 0
 271.721679688 51.388671875 272.22265625 179.791992188 272.22265625 336.59765625 c 2
 272.22265625 621.805664062 l 1
 269.02734375 626.52734375 l 2
 264.877929688 632.663085938 256.944335938 636.962890625 246.388671875 638.797851562 c 0
EndSplineSet
Validated: 524833
EndChar

StartChar: The-letter-V
Encoding: 86 -1 25
Width: 852
Flags: HW
LayerCount: 2
Back
Fore
SplineSet
18.0556640625 668.125 m 1
 18.0556640625 683.47265625 l 1
 48.3330078125 682.361328125 l 2
 87.4375 680.926757812 316.52734375 680.931640625 362.916992188 682.3671875 c 2
 398.611328125 683.47265625 l 1
 398.611328125 668.125 l 1
 398.611328125 652.77734375 l 1
 385.694335938 652.77734375 l 2
 360.27734375 652.77734375 335.4765625 647.918945312 324.583007812 640.806640625 c 0
 317.622070312 636.26171875 313.3046875 627.5 314.3984375 620.138671875 c 0
 315.69921875 611.388671875 510.8046875 26.794921875 511.6328125 29.1669921875 c 0
 512.033203125 30.3125 554.392578125 157.5 605.763671875 311.805664062 c 0
 691.861328125 570.416992188 699.165039062 593.078125 699.143554688 601.52734375 c 0
 699.075195312 628.265625 672.361328125 648.974609375 633.611328125 652.329101562 c 2
 623.611328125 653.194335938 l 1
 623.611328125 668.333007812 l 1
 623.611328125 683.47265625 l 1
 643.333007812 682.381835938 l 2
 669.02734375 680.9609375 797.107421875 680.95703125 818.333007812 682.375976562 c 2
 834.72265625 683.47265625 l 1
 834.72265625 668.125 l 1
 834.72265625 652.77734375 l 1
 828.055664062 652.77734375 l 2
 818.194335938 652.77734375 796.112304688 649.109375 787.083007812 645.970703125 c 0
 766.388671875 638.77734375 748.92578125 624.7578125 738.643554688 607.083007812 c 0
 734.733398438 600.36328125 708.701171875 523.611328125 631.944335938 292.5 c 0
 535.813476562 3.0556640625 530.162109375 -13.4345703125 525.625 -17.7080078125 c 2
 520.833007812 -22.22265625 l 1
 426.388671875 -22.22265625 l 1
 331.944335938 -22.22265625 l 1
 327.15234375 -17.7080078125 l 2
 322.611328125 -13.4296875 316.876953125 3.3330078125 217.291992188 303.47265625 c 0
 159.50390625 477.638671875 110.302734375 623.763671875 107.95703125 628.194335938 c 0
 102.663085938 638.194335938 94.61328125 645.243164062 85.4169921875 647.930664062 c 0
 76.109375 650.650390625 54.5830078125 652.678710938 34.4443359375 652.733398438 c 2
 18.0556640625 652.77734375 l 1
 18.0556640625 668.125 l 1
245.27734375 637.021484375 m 0
 235.106445312 640.296875 190.138671875 641.068359375 178.611328125 638.166015625 c 0
 163.75 634.424804688 156.758789062 627.424804688 158.942382812 618.47265625 c 0
 162.091796875 605.555664062 351.173828125 40.396484375 353.500976562 36.9443359375 c 0
 357.333007812 31.259765625 364.166992188 26.83203125 373.611328125 23.916015625 c 0
 384.81640625 20.4560546875 431.944335938 20.46875 443.194335938 23.935546875 c 0
 452.638671875 26.845703125 459.72265625 32.9560546875 459.72265625 38.1943359375 c 0
 459.72265625 43.75 268.530273438 618.330078125 264.877929688 623.75 c 0
 260.905273438 629.645507812 254.305664062 634.114257812 245.27734375 637.021484375 c 0
EndSplineSet
Validated: 524833
EndChar

StartChar: The-letter-W
Encoding: 87 -1 26
Width: 1130
Flags: HW
LayerCount: 2
Back
Fore
SplineSet
18.0556640625 668.333007812 m 1
 18.0556640625 683.47265625 l 1
 46.111328125 682.356445312 l 2
 82.5986328125 680.905273438 316.944335938 680.903320312 360.694335938 682.353515625 c 2
 394.444335938 683.47265625 l 1
 394.444335938 668.125 l 1
 394.444335938 652.77734375 l 1
 381.52734375 652.77734375 l 2
 352.361328125 652.77734375 326.361328125 646.83984375 316.52734375 637.93359375 c 0
 309.692382812 631.7421875 307.395507812 624.72265625 309.479492188 616.388671875 c 0
 310.30078125 613.103515625 350.529296875 478.40234375 398.888671875 317.013671875 c 0
 456.9453125 123.263671875 487.159179688 24.4365234375 487.84765625 26.0419921875 c 0
 488.419921875 27.37890625 522.880859375 141.944335938 564.444335938 280.694335938 c 2
 640 532.916992188 l 1
 626.875 576.52734375 l 2
 619.643554688 600.555664062 612.18359375 623.569335938 610.26171875 627.77734375 c 0
 601.556640625 646.842773438 591.666992188 650.849609375 549.583007812 652.361328125 c 2
 526.388671875 653.194335938 l 1
 526.388671875 668.333007812 l 1
 526.388671875 683.47265625 l 1
 548.333007812 682.362304688 l 2
 576.626953125 680.931640625 735 680.935546875 767.77734375 682.368164062 c 2
 793.055664062 683.47265625 l 1
 793.055664062 668.333007812 l 1
 793.055664062 653.194335938 l 1
 773.194335938 652.42578125 l 2
 729.583007812 650.737304688 706.920898438 640.274414062 706.876953125 621.805664062 c 0
 706.868164062 618.333007812 851.735351562 134.736328125 852.77734375 134.756835938 c 0
 854.4140625 134.790039062 989.487304688 588.75 990.051757812 596.111328125 c 0
 991.452148438 614.390625 980 630.307617188 957.77734375 640.967773438 c 0
 943.686523438 647.7265625 930 651.213867188 912.916992188 652.396484375 c 2
 901.388671875 653.194335938 l 1
 901.388671875 668.333007812 l 1
 901.388671875 683.47265625 l 1
 925.416992188 682.3671875 l 2
 956.388671875 680.942382812 1078.20996094 680.952148438 1097.63867188 682.379882812 c 2
 1112.5 683.47265625 l 1
 1112.5 668.333007812 l 1
 1112.5 653.194335938 l 1
 1100 652.229492188 l 2
 1085.83300781 651.135742188 1066.60253906 646.005859375 1056.25 640.55859375 c 0
 1045.24316406 634.767578125 1029.23828125 617.77734375 1023.27539062 605.555664062 c 0
 1019.72558594 598.278320312 990.758789062 503.541992188 927.15234375 291.180664062 c 0
 877.06640625 123.958007812 835.471679688 -13.96484375 834.688476562 -15.4169921875 c 0
 830.34765625 -23.47265625 813.530273438 -24.5703125 807.033203125 -17.22265625 c 0
 804.149414062 -13.9609375 789.204101562 34.4443359375 728.47265625 237.22265625 c 0
 672.981445312 422.5 653.201171875 486.807617188 652.430664062 484.444335938 c 0
 651.857421875 482.6875 617.974609375 369.72265625 577.15234375 233.47265625 c 0
 514.443359375 24.1669921875 502.3671875 -14.8662109375 499.375 -17.9169921875 c 2
 495.833007812 -21.52734375 l 1
 400.694335938 -21.931640625 l 2
 298.611328125 -22.365234375 299.619140625 -22.427734375 295.859375 -15.4169921875 c 0
 295.081054688 -13.96484375 251.583007812 130.208007812 199.166992188 305.069335938 c 0
 134.135742188 522.013671875 102.509765625 625.517578125 99.5458984375 631.111328125 c 0
 91.1884765625 646.879882812 79.861328125 651.021484375 41.388671875 652.374023438 c 2
 18.0556640625 653.194335938 l 1
 18.0556640625 668.333007812 l 1
242.361328125 636.0859375 m 0
 234.861328125 638.983398438 231.388671875 639.3515625 207.638671875 639.766601562 c 0
 179.166992188 640.263671875 167.772460938 638.788085938 159.166992188 633.48828125 c 0
 151.947265625 629.041015625 150.440429688 623.888671875 153.3125 613.47265625 c 0
 164.266601562 573.75 324.603515625 42.4287109375 326.915039062 38.1943359375 c 0
 330.893554688 30.9052734375 340 25.4814453125 352.77734375 22.7900390625 c 0
 367.083007812 19.7763671875 408.325195312 20.6435546875 419.305664062 24.1884765625 c 0
 428.611328125 27.193359375 434.72265625 32.9658203125 434.72265625 38.75 c 0
 434.72265625 41.8955078125 275.409179688 577.22265625 262.94140625 615.97265625 c 0
 260.051757812 624.952148438 252.77734375 632.061523438 242.361328125 636.0859375 c 0
EndSplineSet
Validated: 524833
EndChar

StartChar: The-letter-X
Encoding: 88 -1 27
Width: 852
Flags: HW
LayerCount: 2
Back
Fore
SplineSet
37.5 668.333007812 m 1
 37.5 683.47265625 l 1
 67.638671875 682.364257812 l 2
 106.806640625 680.92578125 348.055664062 680.920898438 396.111328125 682.358398438 c 2
 433.333007812 683.47265625 l 1
 433.333007812 668.333007812 l 1
 433.333007812 653.194335938 l 1
 422.77734375 652.314453125 l 2
 401.805664062 650.567382812 382.0859375 643.197265625 372.361328125 633.47265625 c 0
 363.055664062 624.166992188 363.055664062 624.166992188 391.399414062 579.72265625 c 0
 405.001953125 558.391601562 429.16015625 520.555664062 445.138671875 495.555664062 c 0
 461.1171875 470.555664062 474.666015625 450.448242188 475.27734375 450.827148438 c 0
 478.919921875 453.083007812 592.25 592.77734375 594.380859375 597.638671875 c 0
 598.521484375 607.083007812 599.043945312 612.95703125 596.517578125 621.666992188 c 0
 592.001953125 637.231445312 576.944335938 648.501953125 556.25 651.80859375 c 2
 545.833007812 653.47265625 l 1
 545.833007812 668.47265625 l 1
 545.833007812 683.47265625 l 1
 569.861328125 682.361328125 l 2
 600.833007812 680.928710938 742.579101562 680.93359375 766.388671875 682.368164062 c 2
 784.72265625 683.47265625 l 1
 784.72265625 668.333007812 l 1
 784.72265625 653.194335938 l 1
 768.333007812 652.272460938 l 2
 714.02734375 649.215820312 673.450195312 632.967773438 641.52734375 601.49609375 c 0
 634.883789062 594.946289062 598.463867188 551.944335938 560.625 505.97265625 c 2
 491.805664062 422.361328125 l 1
 604.02734375 246.805664062 l 2
 665.732421875 150.27734375 718.760742188 67.5615234375 721.827148438 63.0556640625 c 0
 729.01171875 52.5 740.138671875 42.15234375 748.055664062 38.6640625 c 0
 758.482421875 34.0703125 773.055664062 32.0048828125 801.805664062 31.048828125 c 2
 829.166992188 30.138671875 l 1
 829.166992188 15 l 1
 829.166992188 -0.138671875 l 1
 799.02734375 0.96875 l 2
 759.860351562 2.408203125 518.611328125 2.412109375 470.555664062 0.974609375 c 2
 433.333007812 -0.138671875 l 1
 433.333007812 15 l 1
 433.333007812 30.138671875 l 1
 443.888671875 31.0185546875 l 2
 464.861328125 32.7666015625 484.580078125 40.1357421875 494.305664062 49.861328125 c 0
 503.516601562 59.072265625 503.345703125 59.5830078125 477.422851562 100.27734375 c 0
 465.02734375 119.735351562 435.459960938 166.111328125 411.805664062 203.194335938 c 0
 388.151367188 240.27734375 368.374023438 270.712890625 367.916992188 270.734375 c 0
 365.943359375 270.829101562 219.10546875 91.111328125 216.73046875 85.6943359375 c 0
 212.58984375 76.25 212.067382812 70.376953125 214.59375 61.6669921875 c 0
 219.108398438 46.1025390625 234.166992188 34.8310546875 254.861328125 31.525390625 c 2
 265.27734375 29.861328125 l 1
 265.27734375 14.861328125 l 1
 265.27734375 -0.138671875 l 1
 241.25 0.97265625 l 2
 210.27734375 2.4052734375 68.5322265625 2.3994140625 44.72265625 0.9658203125 c 2
 26.388671875 -0.138671875 l 1
 26.388671875 15 l 1
 26.388671875 30.138671875 l 1
 42.638671875 31.0439453125 l 2
 95.138671875 33.9697265625 136.46484375 50.00390625 167.5 79.4892578125 c 0
 175.694335938 87.2744140625 348.387695312 294.803710938 349.724609375 298.47265625 c 0
 350.068359375 299.415039062 159.655273438 598.47265625 144.827148438 620.27734375 c 0
 137.649414062 630.833007812 126.52734375 641.181640625 118.611328125 644.668945312 c 0
 108.184570312 649.263671875 93.611328125 651.328125 64.861328125 652.284179688 c 2
 37.5 653.194335938 l 1
 37.5 668.333007812 l 1
281.666992188 633.25 m 0
 268.75 634.887695312 222.595703125 634.954101562 211.666992188 633.352539062 c 0
 197.5 631.275390625 192.4140625 626.671875 195.994140625 619.166992188 c 0
 200.962890625 608.75 549.043945312 65.677734375 553.333007812 61.650390625 c 0
 563.444335938 52.158203125 581.805664062 48.62890625 620.833007812 48.6787109375 c 0
 663.75 48.732421875 676.200195312 52.638671875 670.634765625 64.3056640625 c 0
 665.666015625 74.72265625 317.624023438 617.65234375 313.333007812 621.680664062 c 0
 307.379882812 627.26953125 295.97265625 631.4375 281.666992188 633.25 c 0
EndSplineSet
Validated: 524833
EndChar

StartChar: The-letter-Y
Encoding: 89 -1 28
Width: 852
Flags: HW
LayerCount: 2
Back
Fore
SplineSet
11.111328125 668.333007812 m 1
 11.111328125 683.47265625 l 1
 41.388671875 682.349609375 l 2
 80.52734375 680.899414062 306.111328125 680.901367188 349.72265625 682.353515625 c 2
 383.333007812 683.47265625 l 1
 383.333007812 668.333007812 l 1
 383.333007812 653.194335938 l 1
 364.861328125 652.337890625 l 2
 329.305664062 650.689453125 314.5078125 643.53125 314.658203125 628.055664062 c 0
 314.71875 621.8515625 319.625976562 613.75 413.680664062 464.583007812 c 0
 468.151367188 378.194335938 513.107421875 307.482421875 513.680664062 307.291992188 c 0
 514.25390625 307.100585938 553.491210938 371.388671875 600.950195312 450.27734375 c 0
 695.198242188 606.944335938 693.6640625 604.05078125 690.51171875 619.166992188 c 0
 689.61328125 623.47265625 687.333007812 629.30078125 685.403320312 632.22265625 c 0
 678.344726562 642.909179688 662.22265625 650.532226562 642.916992188 652.311523438 c 2
 633.333007812 653.194335938 l 1
 633.333007812 668.333007812 l 1
 633.333007812 683.47265625 l 1
 653.888671875 682.366210938 l 2
 680.416992188 680.939453125 802.549804688 680.948242188 824.72265625 682.37890625 c 2
 841.666992188 683.47265625 l 1
 841.666992188 668.333007812 l 1
 841.666992188 653.194335938 l 1
 827.638671875 652.265625 l 2
 781.25 649.192382812 743.482421875 629.393554688 721.315429688 596.52734375 c 0
 718.225585938 591.947265625 673.065429688 517.291992188 621.041992188 430.763671875 c 2
 526.388671875 273.333007812 l 1
 526.388671875 166.875 l 2
 526.388671875 99.7919921875 526.908203125 58.5673828125 527.793945312 55.4169921875 c 0
 529.784179688 48.3330078125 534.666992188 41.5390625 540 38.431640625 c 0
 547.352539062 34.146484375 564.305664062 31.96875 597.638671875 31.0283203125 c 2
 629.166992188 30.138671875 l 1
 629.166992188 15 l 1
 629.166992188 -0.138671875 l 1
 595.486328125 0.97265625 l 2
 576.970703125 1.5830078125 502.083007812 2.0830078125 429.166992188 2.0830078125 c 0
 356.25 2.0830078125 281.362304688 1.5830078125 262.84765625 0.97265625 c 2
 229.166992188 -0.138671875 l 1
 229.166992188 15 l 1
 229.166992188 30.138671875 l 1
 260.694335938 31.0283203125 l 2
 294.02734375 31.96875 310.98046875 34.146484375 318.333007812 38.431640625 c 0
 323.666992188 41.5390625 328.548828125 48.3330078125 330.5390625 55.4169921875 c 0
 331.424804688 58.5673828125 331.944335938 99.7919921875 331.944335938 166.875 c 2
 331.944335938 273.333007812 l 1
 223.680664062 449.513671875 l 2
 152.073242188 566.041992188 113.15234375 628.092773438 108.729492188 632.77734375 c 0
 95.1708984375 647.138671875 81.6669921875 650.890625 38.47265625 652.30078125 c 2
 11.111328125 653.194335938 l 1
 11.111328125 668.333007812 l 1
237.22265625 638.08984375 m 0
 223.611328125 640.87109375 193.9140625 640.868164062 183.47265625 638.083007812 c 0
 168.888671875 634.194335938 161.538085938 626.5 165.400390625 619.166992188 c 0
 166.326171875 617.41015625 212.54296875 543.75 268.055664062 455.555664062 c 0
 341.577148438 338.75 369.745117188 292.873046875 371.666992188 286.805664062 c 0
 374.140625 278.993164062 374.348632812 271.59765625 375 168.541992188 c 2
 375.694335938 58.611328125 l 1
 379.176757812 54.861328125 l 2
 387.486328125 45.912109375 399.583007812 43.0556640625 429.166992188 43.0556640625 c 0
 458.75 43.0556640625 470.84765625 45.912109375 479.157226562 54.861328125 c 2
 482.638671875 58.611328125 l 1
 482.986328125 165.97265625 l 1
 483.333007812 273.333007812 l 1
 376.319335938 447.430664062 l 2
 317.498046875 543.125 268.022460938 622.904296875 266.456054688 624.583007812 c 0
 261.706054688 629.67578125 248.47265625 635.791015625 237.22265625 638.08984375 c 0
EndSplineSet
Validated: 524833
EndChar

StartChar: The-letter-Z
Encoding: 90 -1 29
Width: 713
Flags: HW
LayerCount: 2
Back
Fore
SplineSet
80.5556640625 682.986328125 m 0
 80.5556640625 683.176757812 208.958007812 683.333007812 366.041992188 683.333007812 c 2
 651.52734375 683.333007812 l 1
 654.930664062 679.930664062 l 2
 657.798828125 677.0625 658.333007812 675.208007812 658.333007812 668.125 c 2
 658.333007812 659.72265625 l 1
 472.22265625 347.083007812 l 2
 369.865234375 175.138671875 286.111328125 34.1943359375 286.111328125 33.888671875 c 0
 286.111328125 32.67578125 401.944335938 33.4287109375 424.305664062 34.7880859375 c 0
 465.416992188 37.2861328125 493.422851562 42.029296875 519.166992188 50.8515625 c 0
 581.407226562 72.181640625 617.870117188 121.666992188 632.034179688 204.02734375 c 0
 634.302734375 217.22265625 638.888671875 257.918945312 638.888671875 264.861328125 c 0
 638.888671875 266.23046875 641.944335938 266.666992188 651.52734375 266.666992188 c 2
 664.166992188 266.666992188 l 1
 663.263671875 255.90234375 l 2
 662.766601562 249.979492188 659.30078125 194.861328125 655.555664062 133.333007812 c 0
 651.810546875 71.8056640625 648.34375 16.6875 647.84765625 10.763671875 c 2
 646.944335938 -0 l 1
 354.65234375 -0 l 1
 62.361328125 -0 l 1
 58.9580078125 3.40234375 l 2
 56.005859375 6.35546875 55.5556640625 8.0556640625 55.5556640625 16.25 c 2
 55.5556640625 25.6943359375 l 1
 242.083007812 338.888671875 l 1
 428.611328125 652.083007812 l 1
 378.47265625 652.501953125 l 2
 279.02734375 653.33203125 232.08984375 647.233398438 192.083007812 628.28515625 c 0
 136.883789062 602.140625 102.0625 544.72265625 95.0810546875 468.333007812 c 2
 94.1669921875 458.333007812 l 1
 81.8056640625 458.333007812 l 2
 75 458.333007812 69.4443359375 458.489257812 69.4443359375 458.680664062 c 0
 69.4443359375 458.872070312 71.9423828125 509.305664062 75 570.833007812 c 0
 78.0576171875 632.361328125 80.5556640625 682.794921875 80.5556640625 682.986328125 c 0
582.22265625 616.180664062 m 2
 604.02734375 652.77734375 l 1
 541.666992188 652.77734375 l 1
 479.305664062 652.77734375 l 1
 448.912109375 601.805664062 l 2
 334.130859375 409.305664062 111.111328125 34.3603515625 111.111328125 33.888671875 c 0
 111.111328125 33.5830078125 139.09765625 33.3330078125 173.263671875 33.3330078125 c 2
 235.416992188 33.3330078125 l 1
 397.916992188 306.458007812 l 2
 487.327148438 456.736328125 570.224609375 596.043945312 582.22265625 616.180664062 c 2
EndSplineSet
Validated: 524833
EndChar

StartChar: Left-bracket
Encoding: 91 -1 30
Width: 380
Flags: HW
LayerCount: 2
Back
Fore
SplineSet
127.77734375 250 m 1
 127.77734375 750 l 1
 243.75 750 l 1
 359.72265625 750 l 1
 359.72265625 729.861328125 l 1
 359.72265625 709.72265625 l 1
 302.77734375 709.72265625 l 1
 245.833007812 709.72265625 l 1
 245.833007812 250 l 1
 245.833007812 -209.72265625 l 1
 302.77734375 -209.72265625 l 1
 359.72265625 -209.72265625 l 1
 359.72265625 -229.861328125 l 1
 359.72265625 -250 l 1
 243.75 -250 l 1
 127.77734375 -250 l 1
 127.77734375 250 l 1
226.388671875 250 m 1
 226.388671875 709.72265625 l 1
 186.805664062 709.72265625 l 1
 147.22265625 709.72265625 l 1
 147.22265625 250 l 1
 147.22265625 -209.72265625 l 1
 186.805664062 -209.72265625 l 1
 226.388671875 -209.72265625 l 1
 226.388671875 250 l 1
EndSplineSet
Validated: 524801
EndChar

StartChar: Right-bracket
Encoding: 93 -1 31
Width: 380
Flags: HW
LayerCount: 2
Back
Fore
SplineSet
20.8330078125 729.861328125 m 1
 20.8330078125 750 l 1
 136.805664062 750 l 1
 252.77734375 750 l 1
 252.77734375 250 l 1
 252.77734375 -250 l 1
 136.805664062 -250 l 1
 20.8330078125 -250 l 1
 20.8330078125 -229.861328125 l 1
 20.8330078125 -209.72265625 l 1
 77.77734375 -209.72265625 l 1
 134.72265625 -209.72265625 l 1
 134.72265625 250 l 1
 134.72265625 709.72265625 l 1
 77.77734375 709.72265625 l 1
 20.8330078125 709.72265625 l 1
 20.8330078125 729.861328125 l 1
233.333007812 250 m 1
 233.333007812 709.72265625 l 1
 193.75 709.72265625 l 1
 154.166992188 709.72265625 l 1
 154.166992188 250 l 1
 154.166992188 -209.72265625 l 1
 193.75 -209.72265625 l 1
 233.333007812 -209.72265625 l 1
 233.333007812 250 l 1
EndSplineSet
Validated: 524801
EndChar

StartChar: The-letter-a
Encoding: 97 -1 32
Width: 602
Flags: HW
LayerCount: 2
Back
Fore
SplineSet
239.583007812 446.424804688 m 0
 252.71484375 447.678710938 311.111328125 445.921875 324.72265625 443.864257812 c 0
 377.5 435.883789062 425.635742188 415.21875 458.333007812 386.504882812 c 0
 475.786132812 371.177734375 492.484375 344.02734375 496.587890625 324.305664062 c 0
 498.272460938 316.212890625 498.611328125 294.305664062 498.611328125 193.611328125 c 0
 498.611328125 124.72265625 499.165039062 69.708984375 499.8984375 65.8330078125 c 0
 504.602539062 40.97265625 517.733398438 26.388671875 535.416992188 26.388671875 c 0
 553.099609375 26.388671875 566.231445312 40.97265625 570.934570312 65.8330078125 c 0
 571.641601562 69.572265625 572.22265625 88.8193359375 572.22265625 108.541992188 c 2
 572.22265625 144.444335938 l 1
 584.72265625 144.444335938 l 1
 597.22265625 144.444335938 l 1
 597.22265625 108.055664062 l 2
 597.22265625 66.9443359375 596.092773438 58.4609375 588.497070312 42.5 c 0
 569.262695312 2.0830078125 521.623046875 -16.4052734375 483.333007812 1.6865234375 c 0
 469.796875 8.0830078125 454.521484375 23.888671875 447.245117188 39.02734375 c 0
 441.905273438 50.138671875 437.5 67.216796875 437.5 76.8056640625 c 0
 437.5 80.888671875 437.249023438 80.6943359375 432.650390625 73.0556640625 c 0
 413.528320312 41.2939453125 385.27734375 19.451171875 343.055664062 3.783203125 c 0
 315.78515625 -6.3359375 285.416992188 -11.0986328125 248.333007812 -11.072265625 c 0
 155.27734375 -11.0048828125 94.26171875 4.7060546875 64.5517578125 36.25 c 0
 35.904296875 66.6669921875 34.0693359375 112.77734375 59.9638671875 151.52734375 c 0
 83.0595703125 186.088867188 128.055664062 213.065429688 195.138671875 232.5703125 c 0
 254.892578125 249.944335938 314.02734375 258.110351562 398.194335938 260.608398438 c 2
 429.166992188 261.52734375 l 1
 429.166992188 287.083007812 l 2
 429.166992188 316.944335938 427.256835938 328.935546875 420.0546875 344.305664062 c 0
 402.18359375 382.438476562 363.333007812 410.546875 314.305664062 420.817382812 c 0
 280.852539062 427.82421875 220.416992188 425.021484375 178.888671875 414.536132812 c 0
 153.333007812 408.083984375 134.83203125 399.404296875 119.861328125 386.84375 c 2
 113.194335938 381.25 l 1
 121.52734375 380.243164062 l 2
 132.916992188 378.868164062 146.490234375 371.8203125 152.224609375 364.305664062 c 0
 170.3359375 340.568359375 163.75 307.4609375 138.333007812 294.478515625 c 0
 129.521484375 289.977539062 127.77734375 289.583007812 116.666992188 289.583007812 c 0
 105.555664062 289.583007812 103.8125 289.975585938 95 294.456054688 c 0
 84.0576171875 300.020507812 78.2685546875 306.666992188 73.5986328125 319.02734375 c 0
 71.00390625 325.896484375 70.6572265625 329.02734375 71.24609375 340.27734375 c 0
 73.8818359375 390.674804688 113.888671875 425.049804688 186.805664062 439.5703125 c 0
 201.274414062 442.452148438 210.416992188 443.638671875 239.583007812 446.424804688 c 0
428.78515625 169.444335938 m 0
 429.071289062 199.583007812 429.118164062 228.060546875 428.888671875 232.638671875 c 2
 428.47265625 240.97265625 l 1
 398.611328125 240.05859375 l 2
 342.77734375 238.349609375 293.635742188 232.756835938 250.694335938 223.22265625 c 2
 236.805664062 220.138671875 l 1
 236.458007812 115.625 l 1
 236.111328125 11.111328125 l 1
 254.583007812 11.12890625 l 2
 331.111328125 11.2041015625 393.422851562 40.2939453125 417.875976562 87.361328125 c 0
 428.056640625 106.956054688 428.202148438 108.055664062 428.78515625 169.444335938 c 0
196.875 14.4443359375 m 0
 197.06640625 14.673828125 197.06640625 58.3330078125 196.875 111.52734375 c 2
 196.52734375 208.194335938 l 1
 182.638671875 202.909179688 l 2
 151.666992188 191.124023438 127.892578125 176.580078125 109.776367188 158.333007812 c 0
 103.294921875 151.805664062 95.5556640625 142.357421875 92.7099609375 137.5 c 0
 79.3662109375 114.72265625 77.0810546875 86.0625 87.017578125 66.111328125 c 0
 99.203125 41.642578125 129.02734375 25.431640625 176.666992188 17.3837890625 c 0
 187.638671875 15.529296875 196.68359375 14.2138671875 196.875 14.4443359375 c 0
EndSplineSet
Validated: 524833
EndChar

StartChar: The-letter-b
Encoding: 98 -1 33
Width: 658
Flags: HW
LayerCount: 2
Back
Fore
SplineSet
127.083007812 688.756835938 m 0
 245.97265625 695.41015625 243.5234375 695.36328125 247.916992188 691.048828125 c 2
 251.388671875 687.638671875 l 1
 251.388671875 525.625 l 1
 251.388671875 363.611328125 l 1
 257.884765625 372.5 l 2
 271.533203125 391.176757812 295.694335938 411.005859375 319.166992188 422.79296875 c 0
 333.903320312 430.193359375 355.97265625 437.211914062 372.5 439.75390625 c 0
 391.211914062 442.6328125 421.388671875 441.665039062 441.666992188 437.536132812 c 0
 532.583984375 419.022460938 601.389648438 350.27734375 621.030273438 258.333007812 c 0
 625.540039062 237.22265625 625.583007812 194.657226562 621.114257812 174.02734375 c 0
 599.725585938 75.2734375 520.97265625 4.4501953125 417.361328125 -9.2080078125 c 0
 361.52734375 -16.568359375 316.388671875 -2.2451171875 279.166992188 34.6435546875 c 0
 264.3515625 49.3251953125 252.794921875 65 244.49609375 81.6669921875 c 0
 242.075195312 86.52734375 239.583007812 90.2314453125 238.888671875 90 c 0
 238.200195312 89.7705078125 213.263671875 69.453125 183.40234375 44.7919921875 c 2
 129.166992188 0 l 1
 116.666992188 0 l 1
 104.166992188 0 l 1
 104.166992188 306.666992188 l 2
 104.166992188 522.22265625 103.716796875 615.767578125 102.651367188 621.52734375 c 0
 98.3955078125 644.54296875 87.5 650.563476562 46.9443359375 652.309570312 c 2
 26.388671875 653.194335938 l 1
 26.388671875 668.263671875 l 2
 26.388671875 682.986328125 26.4609375 683.334960938 29.513671875 683.40234375 c 0
 31.232421875 683.44140625 75.138671875 685.850585938 127.083007812 688.756835938 c 0
193.47265625 638.356445312 m 0
 190 639.400390625 184.80078125 640.241210938 182.083007812 640.198242188 c 0
 170 640.004882812 155.369140625 632.49609375 147.870117188 622.638671875 c 0
 138.30078125 610.060546875 138.888671875 626.111328125 138.888671875 377.5 c 0
 138.888671875 123.055664062 137.770507812 146.1953125 150.416992188 138.959960938 c 0
 170.416992188 127.517578125 205.986328125 132.208007812 214.12890625 147.361328125 c 0
 216.557617188 151.880859375 216.666992188 162.013671875 216.666992188 383.40234375 c 2
 216.666992188 614.72265625 l 1
 213.150390625 621.805664062 l 2
 209.055664062 630.052734375 202.361328125 635.68359375 193.47265625 638.356445312 c 0
417.083007812 417.348632812 m 0
 348.525390625 429.34765625 278.360351562 385.555664062 254.654296875 315.97265625 c 2
 251.388671875 306.388671875 l 1
 251.388671875 219.583007812 l 2
 251.388671875 135.416992188 251.478515625 132.45703125 254.344726562 122.22265625 c 0
 269.125976562 69.4443359375 308.556640625 26.8896484375 353.47265625 15.2412109375 c 0
 392.083007812 5.228515625 437.903320312 14.8056640625 471.666992188 39.9462890625 c 0
 522.426757812 77.7421875 544.09765625 136.944335938 541.185546875 229.861328125 c 0
 539.87109375 271.805664062 534.748046875 301.145507812 524.159179688 327.361328125 c 0
 504.974609375 374.861328125 464.239257812 409.095703125 417.083007812 417.348632812 c 0
EndSplineSet
Validated: 524833
EndChar

StartChar: The-letter-c
Encoding: 99 -1 34
Width: 547
Flags: HW
LayerCount: 2
Back
Fore
SplineSet
268.75 445.803710938 m 0
 284.74609375 447.642578125 348.888671875 446.41015625 369.861328125 443.861328125 c 0
 459.02734375 433.0234375 504.841796875 400.483398438 507.877929688 345.833007812 c 0
 508.510742188 334.444335938 508.194335938 331.536132812 505.568359375 324.583007812 c 0
 500.8984375 312.22265625 495.109375 305.576171875 484.166992188 300.01171875 c 0
 475.354492188 295.53125 473.611328125 295.138671875 462.5 295.138671875 c 0
 451.388671875 295.138671875 449.657226562 295.528320312 440.97265625 299.973632812 c 0
 415.555664062 312.986328125 408.834960938 346.266601562 426.88671875 369.72265625 c 0
 432.461914062 376.966796875 443.055664062 382.98046875 454.305664062 385.288085938 c 2
 463.055664062 387.083007812 l 1
 456.805664062 391.703125 l 2
 435.110351562 407.73828125 398.055664062 417.217773438 342.361328125 420.979492188 c 0
 304.72265625 423.521484375 273.221679688 421.842773438 244.166992188 415.745117188 c 2
 233.333007812 413.47265625 l 1
 233.680664062 218.958007812 l 1
 234.02734375 24.4443359375 l 1
 240 22.7080078125 l 2
 243.291992188 21.7509765625 253.888671875 19.5712890625 263.611328125 17.8505859375 c 0
 289.219726562 13.318359375 333.194335938 13.3525390625 359.02734375 17.923828125 c 0
 378.333007812 21.33984375 404.4921875 29.2958984375 416.805664062 35.49609375 c 0
 451.944335938 53.189453125 479.975585938 82.75 491.803710938 114.583007812 c 0
 496.190429688 126.388671875 499.047851562 129.166992188 506.805664062 129.166992188 c 0
 513.888671875 129.166992188 519.444335938 125.137695312 519.444335938 120 c 0
 519.444335938 118.323242188 517.275390625 111.805664062 514.638671875 105.555664062 c 0
 490.290039062 47.859375 439.305664062 9.603515625 367.638671875 -4.744140625 c 0
 264.72265625 -25.34765625 158.8359375 4.4599609375 93.740234375 72.361328125 c 0
 22.7880859375 146.37109375 13.759765625 247.77734375 70.5654296875 332.638671875 c 0
 111.814453125 394.259765625 185.27734375 436.208007812 268.75 445.803710938 c 0
191.666992188 218.75 m 2
 191.666992188 316.944335938 191.166992188 397.174804688 190.555664062 397.1171875 c 0
 188.680664062 396.940429688 166.805664062 383.724609375 159.305664062 378.23828125 c 0
 115.831054688 346.431640625 88.53125 303.47265625 78.2568359375 250.694335938 c 0
 74.904296875 233.47265625 74.859375 198.142578125 78.169921875 181.666992188 c 0
 85.927734375 143.055664062 102.65625 112.37109375 131.805664062 83.2802734375 c 0
 147.522460938 67.595703125 168.47265625 51.9697265625 184.861328125 43.7080078125 c 2
 191.666992188 40.27734375 l 1
 191.666992188 218.75 l 2
EndSplineSet
Validated: 524833
EndChar

StartChar: The-letter-d
Encoding: 100 -1 35
Width: 658
Flags: HW
LayerCount: 2
Back
Fore
SplineSet
478.47265625 688.75 m 0
 515.138671875 691.65234375 547.169921875 694.12109375 549.65234375 694.236328125 c 2
 554.166992188 694.444335938 l 1
 554.166992188 382.22265625 l 2
 554.166992188 162.638671875 554.616210938 67.568359375 555.681640625 61.8056640625 c 0
 559.9375 38.791015625 570.833007812 32.76953125 611.388671875 31.0234375 c 2
 631.944335938 30.138671875 l 1
 631.944335938 15.0693359375 l 2
 631.944335938 6.736328125 631.7578125 0 631.52734375 0 c 0
 631.298828125 0 598.333007812 -2.501953125 558.333007812 -5.5556640625 c 0
 518.333007812 -8.609375 485.368164062 -11.111328125 485.138671875 -11.111328125 c 0
 484.909179688 -11.111328125 484.72265625 6.388671875 484.72265625 27.9169921875 c 2
 484.72265625 66.9443359375 l 1
 471.52734375 54.322265625 l 2
 434.934570312 19.3173828125 382.361328125 -3.8330078125 325.694335938 -9.8935546875 c 0
 305.793945312 -12.021484375 269.444335938 -10.7001953125 247.916992188 -7.0654296875 c 0
 159.02734375 7.9423828125 86.6181640625 59.0947265625 52.91015625 130.694335938 c 0
 26.296875 187.22265625 26.7646484375 245.264648438 54.2802734375 300.694335938 c 0
 77.5869140625 347.645507812 115.27734375 383.56640625 168.75 409.788085938 c 0
 198.767578125 424.5078125 226.52734375 433.114257812 261.111328125 438.423828125 c 0
 283.75 441.899414062 331.237304688 441.881835938 352.083007812 438.390625 c 0
 399.02734375 430.529296875 440.806640625 411.197265625 473.194335938 382.350585938 c 2
 484.72265625 372.083007812 l 1
 484.72265625 492.708007812 l 2
 484.72265625 573.958007812 484.227539062 616.0078125 483.20703125 621.52734375 c 0
 478.951171875 644.54296875 468.055664062 650.563476562 427.5 652.309570312 c 2
 406.944335938 653.194335938 l 1
 406.944335938 668.263671875 l 2
 406.944335938 681.59765625 407.224609375 683.341796875 409.375 683.40234375 c 0
 410.711914062 683.44140625 441.805664062 685.84765625 478.47265625 688.75 c 0
350.694335938 416.189453125 m 0
 336.961914062 418.711914062 297.638671875 419.732421875 281.944335938 417.97265625 c 0
 270.138671875 416.6484375 236.609375 410.235351562 234.444335938 408.88671875 c 0
 233.833007812 408.505859375 233.333007812 320.763671875 233.333007812 213.958007812 c 2
 233.333007812 19.72265625 l 1
 240.416992188 18.19921875 l 2
 302.22265625 4.912109375 358.659179688 11.2294921875 408.47265625 37.0087890625 c 0
 435.97265625 51.240234375 461.610351562 73.9326171875 477.12890625 97.77734375 c 2
 484.72265625 109.444335938 l 1
 484.72265625 220.138671875 l 1
 484.72265625 330.833007812 l 1
 478.103515625 340.694335938 l 2
 470.505859375 352.012695312 454.444335938 368.780273438 442.361328125 378.006835938 c 0
 417.668945312 396.861328125 387.5 409.427734375 350.694335938 416.189453125 c 0
191.666992188 214.583007812 m 0
 191.666992188 312.77734375 191.479492188 393.055664062 191.25 393.055664062 c 0
 189.659179688 393.055664062 160 374.34765625 152.77734375 368.788085938 c 0
 114.002929688 338.943359375 89.2314453125 300.138671875 78.8974609375 253.055664062 c 0
 74.919921875 234.932617188 74.609375 198.47265625 78.2744140625 179.861328125 c 0
 90.0625 120 122.171875 75.19921875 175.97265625 43.546875 c 0
 182.916992188 39.4609375 189.299804688 36.111328125 190.138671875 36.111328125 c 0
 191.241210938 36.111328125 191.666992188 85.8330078125 191.666992188 214.583007812 c 0
EndSplineSet
Validated: 524833
EndChar

StartChar: The-letter-e
Encoding: 101 -1 36
Width: 547
Flags: HW
LayerCount: 2
Back
Fore
SplineSet
255.694335938 445.755859375 m 0
 272.353515625 447.637695312 322.77734375 446.442382812 340.27734375 443.75 c 0
 393.611328125 435.544921875 434.512695312 416.802734375 464.72265625 386.724609375 c 0
 497.645507812 353.9453125 516.392578125 308.333007812 519.03515625 254.583007812 c 0
 519.861328125 237.77734375 519.861328125 237.77734375 516.25 234.166992188 c 2
 512.638671875 230.555664062 l 1
 370.208007812 230.555664062 l 1
 227.77734375 230.555664062 l 1
 228.125 127.5 l 1
 228.47265625 24.4443359375 l 1
 238.194335938 21.9736328125 l 2
 253.657226562 18.044921875 274.166992188 15.310546875 295.138671875 14.3828125 c 0
 347.361328125 12.0712890625 400.25 25.3603515625 436.805664062 49.978515625 c 0
 462.916992188 67.5625 486.427734375 96.642578125 494.31640625 121.111328125 c 0
 496.430664062 127.669921875 500.416992188 130.555664062 507.361328125 130.555664062 c 0
 511.25 130.555664062 513.588867188 129.60546875 516.25 126.944335938 c 0
 521.124023438 122.0703125 520.122070312 116.25 511.299804688 98.1943359375 c 0
 496.844726562 68.611328125 474.72265625 44.6044921875 445.138671875 26.3994140625 c 0
 390.369140625 -7.3046875 314.305664062 -19.193359375 241.25 -5.46875 c 0
 180.833007812 5.8818359375 128.5859375 33.33203125 88.8798828125 74.5830078125 c 0
 60.11328125 104.469726562 41.3154296875 138.47265625 32.212890625 177.083007812 c 0
 29.0390625 190.543945312 28.60546875 195.416992188 28.5634765625 218.055664062 c 0
 28.4931640625 255.416992188 33.5185546875 276.994140625 50.072265625 310.416992188 c 0
 86.630859375 384.228515625 164.444335938 435.444335938 255.694335938 445.755859375 c 0
315.694335938 422.965820312 m 0
 290.97265625 426.271484375 260.138671875 424.8828125 235.416992188 419.348632812 c 2
 227.77734375 417.638671875 l 1
 227.77734375 334.513671875 l 1
 227.77734375 251.388671875 l 1
 340.34765625 251.388671875 l 1
 452.916992188 251.388671875 l 1
 451.9765625 262.916992188 l 2
 447.591796875 316.666992188 431.5078125 356.534179688 403.47265625 383.142578125 c 0
 380.060546875 405.362304688 351.944335938 418.118164062 315.694335938 422.965820312 c 0
186.111328125 221.52734375 m 0
 186.111328125 320.416992188 185.673828125 401.380859375 185.138671875 401.37109375 c 0
 182.754882812 401.328125 162.5 389.458007812 153.611328125 382.896484375 c 0
 102.111328125 344.875976562 73.234375 291.666992188 69.8818359375 228.611328125 c 0
 66.41015625 163.333007812 97.59765625 100.11328125 152.5 61.1328125 c 0
 164.444335938 52.65234375 182.76171875 41.7392578125 185.138671875 41.6875 c 0
 185.673828125 41.67578125 186.111328125 122.638671875 186.111328125 221.52734375 c 0
EndSplineSet
Validated: 524833
EndChar

StartChar: The-letter-f
Encoding: 102 -1 37
Width: 408
Flags: HW
LayerCount: 2
Back
Fore
SplineSet
292.5 704.126953125 m 0
 308.47265625 705.951171875 362.012695312 704.734375 377.77734375 702.189453125 c 0
 414.166992188 696.315429688 438.479492188 684.307617188 449.983398438 666.52734375 c 0
 463.733398438 645.27734375 462.619140625 618.314453125 447.361328125 603.055664062 c 0
 444.96484375 600.659179688 439.513671875 597.025390625 435.069335938 594.861328125 c 0
 428.28125 591.555664062 425.416992188 590.97265625 415.97265625 590.97265625 c 0
 406.52734375 590.97265625 403.663085938 591.555664062 396.875 594.861328125 c 0
 392.430664062 597.025390625 386.979492188 600.659179688 384.583007812 603.055664062 c 0
 365.79296875 621.845703125 369.166992188 656.858398438 391.111328125 670.801757812 c 2
 397.5 674.861328125 l 1
 392.083007812 676.301757812 l 2
 375.44921875 680.7265625 357.916992188 682.399414062 327.083007812 682.50390625 c 0
 295.555664062 682.611328125 282.432617188 681.318359375 263.47265625 676.23828125 c 2
 258.333007812 674.861328125 l 1
 258.333007812 552.708007812 l 1
 258.333007812 430.555664062 l 1
 327.083007812 430.555664062 l 1
 395.833007812 430.555664062 l 1
 395.833007812 415.27734375 l 1
 395.833007812 400 l 1
 326.388671875 400 l 1
 256.944335938 400 l 1
 256.944335938 230.138671875 l 2
 256.944335938 82.9169921875 257.221679688 59.333984375 259.025390625 53.1943359375 c 0
 261.84765625 43.5849609375 269.305664062 36.857421875 279.444335938 34.7744140625 c 0
 291.068359375 32.38671875 314.166992188 30.6572265625 335.138671875 30.603515625 c 2
 354.166992188 30.5556640625 l 1
 354.166992188 15.2080078125 l 1
 354.166992188 -0.138671875 l 1
 325.27734375 0.9638671875 l 2
 287.916992188 2.390625 93.19921875 2.388671875 58.611328125 0.9609375 c 2
 31.9443359375 -0.138671875 l 1
 31.9443359375 15 l 1
 31.9443359375 30.138671875 l 1
 55.8330078125 31.033203125 l 2
 90.97265625 32.34765625 100.09375 35.1806640625 106.165039062 46.6669921875 c 0
 109.008789062 52.046875 109.030273438 53.263671875 109.375 226.041992188 c 2
 109.72265625 400 l 1
 70.8330078125 400 l 1
 31.9443359375 400 l 1
 31.9443359375 415.27734375 l 1
 31.9443359375 430.555664062 l 1
 70.763671875 430.555664062 l 1
 109.583007812 430.555664062 l 1
 110 501.041992188 l 1
 110.416992188 571.52734375 l 1
 114.387695312 583.333007812 l 2
 122.515625 607.5 133.970703125 625.482421875 152.77734375 643.59765625 c 0
 186.802734375 676.37109375 235.97265625 697.671875 292.5 704.126953125 c 0
220.833007812 545.138671875 m 2
 220.833007812 608.194335938 220.365234375 659.69140625 219.791992188 659.65234375 c 0
 219.21484375 659.614257812 214.72265625 657.083984375 209.72265625 653.98046875 c 0
 183.333007812 637.603515625 161.71484375 613.350585938 152.07421875 589.305664062 c 0
 145.008789062 571.684570312 144.444335938 564.72265625 144.444335938 495.138671875 c 2
 144.444335938 430.555664062 l 1
 182.638671875 430.555664062 l 1
 220.833007812 430.555664062 l 1
 220.833007812 545.138671875 l 2
222.22265625 231.111328125 m 2
 222.22265625 400 l 1
 183.333007812 400 l 1
 144.444335938 400 l 1
 144.444335938 231.111328125 l 2
 144.444335938 45.27734375 143.845703125 57.802734375 153.055664062 51.015625 c 0
 161.239257812 44.9853515625 166.388671875 43.75 183.333007812 43.75 c 0
 200.27734375 43.75 205.426757812 44.9853515625 213.611328125 51.015625 c 0
 222.821289062 57.802734375 222.22265625 45.27734375 222.22265625 231.111328125 c 2
EndSplineSet
Validated: 524833
EndChar

StartChar: The-letter-g
Encoding: 103 -1 38
Width: 602
Flags: HW
LayerCount: 2
Back
Fore
SplineSet
511.944335938 451.36328125 m 0
 516.470703125 452.067382812 526.666992188 452.514648438 534.72265625 452.361328125 c 0
 547.77734375 452.112304688 550.265625 451.627929688 558.47265625 447.73828125 c 0
 570.694335938 441.946289062 578.224609375 434.87890625 583.44140625 424.305664062 c 0
 593.994140625 402.916992188 588.098632812 382.243164062 569.583007812 375.704101562 c 0
 561.944335938 373.006835938 557.5 373.008789062 549.861328125 375.713867188 c 0
 538.439453125 379.7578125 530.663085938 390.694335938 530.6171875 402.77734375 c 0
 530.587890625 410.555664062 535.986328125 422.596679688 540.97265625 425.873046875 c 0
 548.577148438 430.870117188 535.694335938 432.096679688 512.5 428.583984375 c 0
 484.72265625 424.375976562 457.825195312 412.8984375 436.25 396.045898438 c 2
 432.77734375 393.333007812 l 1
 446.25 380.579101562 l 2
 473.296875 354.973632812 487.5 325.555664062 487.5 295.138671875 c 0
 487.5 265.694335938 473.395507812 235.766601562 448.055664062 211.44140625 c 0
 408.70703125 173.66796875 349.305664062 151.447265625 281.25 149.04296875 c 0
 228.75 147.1875 182.221679688 158.099609375 142.638671875 181.549804688 c 2
 136.111328125 185.416992188 l 1
 130.64453125 179.166992188 l 2
 111.66015625 157.459960938 108.390625 126.25 122.350585938 100 c 0
 127.447265625 90.4169921875 139.48828125 78.01953125 148.47265625 73.1044921875 c 0
 162.384765625 65.4931640625 165.416992188 65.27734375 258.75 65.27734375 c 0
 349.305664062 65.27734375 380.06640625 64.1318359375 411.805664062 59.578125 c 0
 467.916992188 51.52734375 512.91796875 33.0791015625 538.333007812 7.7080078125 c 0
 562.614257812 -16.5302734375 576.733398438 -52.0830078125 574.654296875 -83.75 c 0
 572.454101562 -117.255859375 548.333007812 -144.520507812 500.694335938 -167.349609375 c 0
 461.421875 -186.169921875 421.388671875 -197.125 368.055664062 -203.6484375 c 0
 352.42578125 -205.559570312 337.5 -206.111328125 301.388671875 -206.111328125 c 0
 265.27734375 -206.111328125 250.352539062 -205.559570312 234.72265625 -203.6484375 c 0
 181.388671875 -197.125 141.356445312 -186.168945312 102.083007812 -167.34765625 c 0
 54.1669921875 -144.3828125 30.1357421875 -117.090820312 28.1083984375 -83.3330078125 c 0
 25.55859375 -40.869140625 60.27734375 -0.8447265625 115.833007812 17.7978515625 c 2
 127.77734375 21.8056640625 l 1
 119.583007812 28.2099609375 l 2
 109.329101562 36.224609375 99.7412109375 48.75 92.8017578125 63.1943359375 c 0
 72.517578125 105.416992188 80.404296875 155.376953125 112.798828125 189.861328125 c 2
 119.583007812 197.083007812 l 1
 108.75 207.916992188 l 2
 91.7099609375 224.95703125 78.71484375 246.666992188 72.7509765625 268.055664062 c 0
 69.298828125 280.4375 69.2626953125 309.583007812 72.68359375 322.22265625 c 0
 78.8857421875 345.138671875 97.46484375 373.779296875 116.388671875 389.598632812 c 0
 160.432617188 426.4140625 215.694335938 443.624023438 281.944335938 441.153320312 c 0
 327.916992188 439.439453125 367.15625 429.68359375 402.361328125 411.213867188 c 2
 415 404.583007812 l 1
 424.861328125 412.620117188 l 2
 448.94921875 432.252929688 481.111328125 446.561523438 511.944335938 451.36328125 c 0
306.666992188 414.588867188 m 0
 300.361328125 415.80078125 287.430664062 417.18359375 278.125 417.638671875 c 2
 261.111328125 418.47265625 l 1
 261.111328125 295.138671875 l 1
 261.111328125 171.805664062 l 1
 278.055664062 172.627929688 l 2
 306.388671875 174.00390625 327.518554688 179.052734375 349.305664062 189.655273438 c 0
 380.645507812 204.90625 400.326171875 228.888671875 408.514648438 261.805664062 c 0
 412.970703125 279.72265625 412.997070312 310.555664062 408.5703125 328.47265625 c 0
 404.692382812 344.166992188 396.6875 360.76171875 388 371.111328125 c 0
 369.908203125 392.666015625 341.388671875 407.911132812 306.666992188 414.588867188 c 0
223.611328125 295.27734375 m 2
 223.611328125 360.555664062 223.423828125 413.84765625 223.194335938 413.796875 c 0
 164.02734375 400.786132812 122.879882812 366.879882812 110.20703125 320.694335938 c 0
 106.853515625 308.47265625 106.861328125 281.805664062 110.223632812 269.583007812 c 0
 119.412109375 236.173828125 142.77734375 209.689453125 178.75 191.91015625 c 0
 190.924804688 185.891601562 203.055664062 181.484375 215.416992188 178.586914062 c 2
 223.611328125 176.666992188 l 1
 223.611328125 295.27734375 l 2
386.805664062 4.33203125 m 0
 369.444335938 6.35546875 172.02734375 7.3037109375 161.25 5.4150390625 c 0
 138.611328125 1.447265625 118.206054688 -9.458984375 103.047851562 -25.6943359375 c 0
 81.6337890625 -48.630859375 74.9482421875 -78.75 86.0302734375 -102.361328125 c 0
 91.2607421875 -113.506835938 107.22265625 -129.985351562 122.083007812 -139.58203125 c 0
 145.690429688 -154.827148438 180.27734375 -168.012695312 214.861328125 -174.94921875 c 0
 245.903320312 -181.176757812 262.361328125 -182.638671875 301.388671875 -182.638671875 c 0
 340.416992188 -182.638671875 356.874023438 -181.176757812 387.916992188 -174.94921875 c 0
 422.5 -168.012695312 457.086914062 -154.827148438 480.694335938 -139.58203125 c 0
 495.833007812 -129.805664062 511.529296875 -113.53515625 517.001953125 -101.944335938 c 0
 521.098632812 -93.2685546875 521.52734375 -91.111328125 521.52734375 -79.1669921875 c 0
 521.52734375 -66.8056640625 521.205078125 -65.296875 516.418945312 -55.27734375 c 0
 510.516601562 -42.919921875 498.333007812 -29.91796875 485.555664062 -22.3388671875 c 0
 464.901367188 -10.0869140625 430.27734375 -0.736328125 386.805664062 4.33203125 c 0
EndSplineSet
Validated: 524833
EndChar

StartChar: The-letter-h
Encoding: 104 -1 39
Width: 658
Flags: HW
LayerCount: 2
Back
Fore
SplineSet
132.638671875 688.756835938 m 0
 251.52734375 695.41015625 249.079101562 695.36328125 253.47265625 691.048828125 c 2
 256.944335938 687.638671875 l 1
 256.944335938 517.77734375 l 1
 256.944335938 347.916992188 l 1
 259.879882812 352.77734375 l 2
 289.390625 401.646484375 331.111328125 431.177734375 382.638671875 439.669921875 c 0
 399.291015625 442.4140625 436.666992188 441.666015625 455.833007812 438.205078125 c 0
 504.166992188 429.477539062 535.395507812 405.400390625 549.881835938 365.694335938 c 0
 559.1484375 340.296875 558.711914062 348.055664062 559.604492188 193.055664062 c 0
 560.405273438 54.02734375 560.456054688 52.0087890625 563.279296875 46.6669921875 c 0
 569.350585938 35.1806640625 578.47265625 32.34765625 613.611328125 31.033203125 c 2
 637.5 30.138671875 l 1
 637.5 15 l 1
 637.5 -0.138671875 l 1
 617.708007812 0.97265625 l 2
 606.813476562 1.583984375 565.138671875 2.0830078125 525 2.0830078125 c 0
 484.861328125 2.0830078125 443.186523438 1.583984375 432.291992188 0.97265625 c 2
 412.5 -0.138671875 l 1
 412.5 15 l 1
 412.5 30.138671875 l 1
 436.388671875 31.033203125 l 2
 471.52734375 32.34765625 480.649414062 35.1806640625 486.720703125 46.6669921875 c 0
 489.547851562 52.015625 489.588867188 53.75 490 185.416992188 c 0
 490.283203125 275.97265625 489.920898438 323.651367188 488.87109375 334.02734375 c 0
 483.138671875 390.694335938 459.891601562 416.104492188 411.111328125 419.01953125 c 0
 345.50390625 422.939453125 282.778320312 376.52734375 263.396484375 309.72265625 c 0
 257.079101562 287.948242188 256.698242188 278.888671875 257.18359375 161.805664062 c 0
 257.630859375 54.02734375 257.689453125 51.9873046875 260.501953125 46.6669921875 c 0
 266.573242188 35.1806640625 275.694335938 32.34765625 310.833007812 31.033203125 c 2
 334.72265625 30.138671875 l 1
 334.72265625 15 l 1
 334.72265625 -0.138671875 l 1
 307.291992188 0.97265625 l 2
 292.21484375 1.5830078125 236.388671875 2.0830078125 183.333007812 2.0830078125 c 0
 130.27734375 2.0830078125 74.4521484375 1.5830078125 59.375 0.97265625 c 2
 31.9443359375 -0.138671875 l 1
 31.9443359375 15 l 1
 31.9443359375 30.138671875 l 1
 55.8330078125 31.033203125 l 2
 90.97265625 32.34765625 100.09375 35.1806640625 106.165039062 46.6669921875 c 2
 109.02734375 52.0830078125 l 1
 109.444335938 331.944335938 l 2
 109.73828125 529.305664062 109.415039062 614.42578125 108.34765625 620.694335938 c 0
 104.305664062 644.426757812 93.47265625 650.560546875 52.5 652.314453125 c 2
 31.9443359375 653.194335938 l 1
 31.9443359375 668.263671875 l 2
 31.9443359375 682.986328125 32.0166015625 683.334960938 35.0693359375 683.40234375 c 0
 36.7880859375 683.44140625 80.6943359375 685.850585938 132.638671875 688.756835938 c 0
199.02734375 638.356445312 m 0
 195.555664062 639.400390625 190.356445312 640.241210938 187.638671875 640.198242188 c 0
 175.555664062 640.004882812 160.924804688 632.49609375 153.42578125 622.638671875 c 0
 143.794921875 609.979492188 144.444335938 630.97265625 144.444335938 332.361328125 c 0
 144.444335938 34.72265625 143.735351562 57.8837890625 153.055664062 51.015625 c 0
 161.239257812 44.9853515625 166.388671875 43.75 183.333007812 43.75 c 0
 200.27734375 43.75 205.426757812 44.9853515625 213.611328125 51.015625 c 0
 222.932617188 57.884765625 222.22265625 34.1669921875 222.22265625 338.47265625 c 2
 222.22265625 614.72265625 l 1
 218.706054688 621.805664062 l 2
 214.611328125 630.052734375 207.916992188 635.68359375 199.02734375 638.356445312 c 0
EndSplineSet
Validated: 524833
EndChar

StartChar: The-letter-i
Encoding: 105 -1 40
Width: 380
Flags: HW
LayerCount: 2
Back
Fore
SplineSet
147.22265625 435.981445312 m 0
 260.138671875 442.444335938 261.147460938 442.470703125 265.416992188 439.055664062 c 2
 268.75 436.388671875 l 1
 269.444335938 243.541992188 l 1
 270.138671875 50.6943359375 l 1
 273.194335938 44.9306640625 l 2
 275.326171875 40.9091796875 278.055664062 38.2919921875 282.22265625 36.2734375 c 0
 289.100585938 32.9423828125 307.361328125 30.5556640625 325.97265625 30.5556640625 c 2
 338.888671875 30.5556640625 l 1
 338.888671875 15.2080078125 l 1
 338.888671875 -0.138671875 l 1
 315.694335938 0.9658203125 l 2
 285.526367188 2.40234375 105.833007812 2.4072265625 71.25 0.97265625 c 2
 44.4443359375 -0.138671875 l 1
 44.4443359375 15 l 1
 44.4443359375 30.138671875 l 1
 68.3330078125 31.033203125 l 2
 103.47265625 32.34765625 112.59375 35.1806640625 118.665039062 46.6669921875 c 0
 121.510742188 52.0498046875 121.52734375 53.0556640625 121.52734375 211.111328125 c 0
 121.52734375 382.22265625 121.791992188 375.755859375 114.385742188 385.694335938 c 0
 107.615234375 394.780273438 95.8330078125 398.333007812 68.47265625 399.540039062 c 2
 48.611328125 400.416992188 l 1
 48.611328125 415.486328125 l 2
 48.611328125 430.208007812 48.68359375 430.557617188 51.736328125 430.625 c 0
 53.4560546875 430.663085938 96.388671875 433.071289062 147.22265625 435.981445312 c 0
211.52734375 385.579101562 m 0
 208.055664062 386.623046875 202.856445312 387.463867188 200.138671875 387.419921875 c 0
 188.055664062 387.227539062 173.424804688 379.71875 165.92578125 369.861328125 c 0
 156.55078125 357.538085938 156.944335938 364.72265625 156.944335938 205.97265625 c 0
 156.944335938 47.9169921875 156.397460938 57.7646484375 165.555664062 51.015625 c 0
 173.739257812 44.9853515625 178.888671875 43.75 195.833007812 43.75 c 0
 212.77734375 43.75 217.926757812 44.9853515625 226.111328125 51.015625 c 0
 235.286132812 57.77734375 234.72265625 47.22265625 234.72265625 212.083007812 c 2
 234.72265625 361.944335938 l 1
 231.206054688 369.02734375 l 2
 227.111328125 377.275390625 220.416992188 382.90625 211.52734375 385.579101562 c 0
166.52734375 667.612304688 m 0
 177.083007812 670.598632812 193.168945312 669.033203125 203.333007812 664.03125 c 0
 213.828125 658.866210938 223.821289062 648.611328125 228.916015625 637.77734375 c 0
 232.129882812 630.944335938 232.638671875 628.055664062 232.638671875 616.666992188 c 0
 232.638671875 605.27734375 232.129882812 602.388671875 228.916015625 595.555664062 c 0
 223.690429688 584.444335938 213.94140625 574.521484375 202.916992188 569.095703125 c 0
 194.521484375 564.962890625 192.638671875 564.583007812 180.555664062 564.583007812 c 0
 168.47265625 564.583007812 166.588867188 564.962890625 158.194335938 569.095703125 c 0
 147.169921875 574.521484375 137.420898438 584.444335938 132.1953125 595.555664062 c 0
 128.981445312 602.388671875 128.47265625 605.27734375 128.47265625 616.666992188 c 0
 128.47265625 628.055664062 128.98046875 630.944335938 132.18359375 637.77734375 c 0
 138.874023438 652.051757812 152.083007812 663.526367188 166.52734375 667.612304688 c 0
EndSplineSet
Validated: 524833
EndChar

StartChar: The-letter-j
Encoding: 106 -1 41
Width: 408
Flags: HW
LayerCount: 2
Back
Fore
SplineSet
175 435.99609375 m 0
 298.333007812 442.672851562 295.024414062 442.614257812 299.444335938 438.194335938 c 2
 302.77734375 434.861328125 l 1
 302.708007812 183.75 l 2
 302.651367188 -21.25 302.293945312 -69.2734375 300.759765625 -77.77734375 c 0
 296.776367188 -99.861328125 286.798828125 -121.41015625 271.436523438 -141.111328125 c 0
 245.262695312 -174.674804688 199.583007812 -198.61328125 150.833007812 -204.3125 c 0
 133.567382812 -206.330078125 79.4443359375 -205.103515625 58.1943359375 -202.212890625 c 0
 9.3056640625 -195.561523438 -19.017578125 -181.075195312 -31.669921875 -156.25 c 0
 -46.2529296875 -127.638671875 -39.029296875 -97.1689453125 -14.72265625 -84.7548828125 c 0
 -5.91015625 -80.2548828125 -4.1669921875 -79.861328125 6.9443359375 -79.861328125 c 0
 18.0556640625 -79.861328125 19.798828125 -80.25390625 28.611328125 -84.7470703125 c 0
 45.3203125 -93.2646484375 53.7431640625 -108.611328125 52.4599609375 -128.194335938 c 0
 51.3134765625 -145.694335938 42.7587890625 -159.015625 28.0556640625 -166.200195312 c 2
 20.27734375 -170 l 1
 30 -173.029296875 l 2
 43.7275390625 -177.307617188 61.9443359375 -180.18359375 87.22265625 -182.0625 c 0
 109.02734375 -183.684570312 148.577148438 -183.208984375 153.194335938 -181.26953125 c 0
 155.431640625 -180.330078125 155.555664062 -166.041992188 155.555664062 90.2080078125 c 0
 155.555664062 267.569335938 155.068359375 363.276367188 154.140625 368.194335938 c 0
 149.780273438 391.303710938 136.805664062 397.934570312 92.77734375 399.556640625 c 2
 69.4443359375 400.416992188 l 1
 69.4443359375 415.486328125 l 1
 69.4443359375 430.555664062 l 1
 73.263671875 430.625 l 2
 75.3662109375 430.663085938 121.111328125 433.078125 175 435.99609375 c 0
244.861328125 385.591796875 m 0
 241.388671875 386.62890625 236.189453125 387.463867188 233.47265625 387.419921875 c 0
 221.388671875 387.227539062 206.7578125 379.71875 199.258789062 369.861328125 c 0
 189.640625 357.217773438 190.27734375 377.083007812 190.27734375 90 c 0
 190.27734375 -52.638671875 190.778320312 -169.444335938 191.388671875 -169.444335938 c 0
 194.211914062 -169.444335938 214.305664062 -156.235351562 223.611328125 -148.262695312 c 0
 242.734375 -131.877929688 257.08984375 -109.166992188 264.212890625 -84.02734375 c 2
 267.361328125 -72.9169921875 l 1
 267.708007812 144.375 l 1
 268.055664062 361.666992188 l 1
 264.5703125 368.888671875 l 2
 260.525390625 377.271484375 253.888671875 382.896484375 244.861328125 385.591796875 c 0
235.97265625 667.612304688 m 0
 246.52734375 670.598632812 262.61328125 669.033203125 272.77734375 664.03125 c 0
 283.272460938 658.866210938 293.265625 648.611328125 298.360351562 637.77734375 c 0
 301.57421875 630.944335938 302.083007812 628.055664062 302.083007812 616.666992188 c 0
 302.083007812 605.27734375 301.57421875 602.388671875 298.360351562 595.555664062 c 0
 293.134765625 584.444335938 283.385742188 574.521484375 272.361328125 569.095703125 c 0
 263.966796875 564.962890625 262.083007812 564.583007812 250 564.583007812 c 0
 237.916992188 564.583007812 236.033203125 564.962890625 227.638671875 569.095703125 c 0
 216.614257812 574.521484375 206.865234375 584.444335938 201.639648438 595.555664062 c 0
 198.42578125 602.388671875 197.916992188 605.27734375 197.916992188 616.666992188 c 0
 197.916992188 628.055664062 198.424804688 630.944335938 201.627929688 637.77734375 c 0
 208.318359375 652.051757812 221.52734375 663.526367188 235.97265625 667.612304688 c 0
EndSplineSet
Validated: 524833
EndChar

StartChar: The-letter-k
Encoding: 107 -1 42
Width: 630
Flags: HW
LayerCount: 2
Back
Fore
SplineSet
144.444335938 688.791015625 m 0
 257.361328125 695.293945312 257.072265625 695.286132812 261.388671875 691.76953125 c 2
 264.583007812 689.166992188 l 1
 265.27734375 445.069335938 l 1
 265.97265625 200.97265625 l 1
 346.52734375 272.569335938 l 2
 390.833007812 311.948242188 428.715820312 346.541992188 430.709960938 349.444335938 c 0
 439.395507812 362.083007812 441.6015625 377.90625 435.95703125 387.083007812 c 0
 432.438476562 392.805664062 423.611328125 398.198242188 415.694335938 399.462890625 c 2
 409.72265625 400.416992188 l 1
 409.72265625 415.555664062 l 1
 409.72265625 430.694335938 l 1
 429.444335938 429.6640625 l 2
 455.833007812 428.28515625 565.625 428.163085938 580.138671875 429.49609375 c 2
 591.666992188 430.555664062 l 1
 591.666992188 415.27734375 l 1
 591.666992188 400 l 1
 586.25 400 l 2
 577.091796875 400 557.77734375 396.026367188 545 391.513671875 c 0
 520.694335938 382.928710938 492.361328125 366.265625 469.444335938 347.079101562 c 0
 454.583007812 334.63671875 387.5 274.947265625 387.5 274.166992188 c 0
 387.5 272.901367188 515.834960938 87.9169921875 527.3125 72.638671875 c 0
 550.978515625 41.13671875 565.27734375 32.7470703125 598.333007812 30.9736328125 c 2
 613.888671875 30.138671875 l 1
 613.888671875 15 l 1
 613.888671875 -0.138671875 l 1
 598.888671875 0.9521484375 l 2
 579.534179688 2.3603515625 466.388671875 2.3564453125 439.861328125 0.9462890625 c 2
 419.444335938 -0.138671875 l 1
 419.444335938 15 l 1
 419.444335938 30.138671875 l 1
 428.75 31.013671875 l 2
 453.75 33.3642578125 461.704101562 48.455078125 450.469726562 72.22265625 c 0
 447.515625 78.47265625 345.776367188 227.938476562 341.086914062 232.916992188 c 0
 340.870117188 233.146484375 323.75 218.2890625 302.916992188 199.791992188 c 2
 265.138671875 166.25 l 1
 265.555664062 109.166992188 l 2
 265.954101562 54.5830078125 266.09765625 51.845703125 268.834960938 46.6669921875 c 0
 274.90625 35.1806640625 284.02734375 32.34765625 319.166992188 31.033203125 c 2
 343.055664062 30.138671875 l 1
 343.055664062 15 l 1
 343.055664062 -0.138671875 l 1
 318.333007812 0.9697265625 l 2
 286.424804688 2.4013671875 102.361328125 2.396484375 70.4169921875 0.9638671875 c 2
 45.8330078125 -0.138671875 l 1
 45.8330078125 15 l 1
 45.8330078125 30.138671875 l 1
 69.72265625 31.033203125 l 2
 104.861328125 32.34765625 113.982421875 35.1806640625 120.053710938 46.6669921875 c 2
 122.916992188 52.0830078125 l 1
 123.333007812 331.944335938 l 2
 123.626953125 529.305664062 123.303710938 614.42578125 122.236328125 620.694335938 c 0
 118.1953125 644.426757812 107.361328125 650.560546875 66.388671875 652.314453125 c 2
 45.8330078125 653.194335938 l 1
 45.8330078125 668.263671875 l 2
 45.8330078125 682.986328125 45.9052734375 683.334960938 48.9580078125 683.40234375 c 0
 50.6787109375 683.44140625 93.611328125 685.86328125 144.444335938 688.791015625 c 0
210.138671875 638.356445312 m 0
 206.666992188 639.400390625 201.467773438 640.241210938 198.75 640.198242188 c 0
 186.666992188 640.004882812 172.036132812 632.49609375 164.537109375 622.638671875 c 0
 154.90625 609.979492188 155.555664062 630.97265625 155.555664062 332.361328125 c 0
 155.555664062 34.72265625 154.846679688 57.8837890625 164.166992188 51.015625 c 0
 172.350585938 44.9853515625 177.5 43.75 194.444335938 43.75 c 0
 211.388671875 43.75 216.538085938 44.9853515625 224.72265625 51.015625 c 0
 234.043945312 57.884765625 233.333007812 34.1669921875 233.333007812 338.47265625 c 2
 233.333007812 614.72265625 l 1
 229.81640625 621.805664062 l 2
 225.72265625 630.052734375 219.02734375 635.68359375 210.138671875 638.356445312 c 0
EndSplineSet
Validated: 524833
EndChar

StartChar: The-letter-l
Encoding: 108 -1 43
Width: 380
Flags: HW
LayerCount: 2
Back
Fore
SplineSet
145.138671875 688.771484375 m 0
 260.416992188 695.239257812 261.13671875 695.256835938 265.416992188 691.833007812 c 2
 268.75 689.166992188 l 1
 269.444335938 370.625 l 1
 270.138671875 52.0830078125 l 1
 273.001953125 46.6669921875 l 2
 279.073242188 35.1806640625 288.194335938 32.34765625 323.333007812 31.033203125 c 2
 347.22265625 30.138671875 l 1
 347.22265625 15 l 1
 347.22265625 -0.138671875 l 1
 319.791992188 0.97265625 l 2
 304.71484375 1.5830078125 248.888671875 2.0830078125 195.833007812 2.0830078125 c 0
 142.77734375 2.0830078125 86.9521484375 1.5830078125 71.875 0.97265625 c 2
 44.4443359375 -0.138671875 l 1
 44.4443359375 15 l 1
 44.4443359375 30.138671875 l 1
 68.3330078125 31.033203125 l 2
 103.47265625 32.34765625 112.59375 35.1806640625 118.665039062 46.6669921875 c 2
 121.52734375 52.0830078125 l 1
 121.944335938 331.944335938 l 2
 122.23828125 529.305664062 121.915039062 614.42578125 120.84765625 620.694335938 c 0
 116.805664062 644.426757812 105.97265625 650.560546875 65 652.314453125 c 2
 44.4443359375 653.194335938 l 1
 44.4443359375 668.263671875 l 2
 44.4443359375 682.986328125 44.5166015625 683.334960938 47.5693359375 683.40234375 c 0
 49.2880859375 683.44140625 93.1943359375 685.856445312 145.138671875 688.771484375 c 0
211.52734375 638.356445312 m 0
 208.055664062 639.400390625 202.856445312 640.241210938 200.138671875 640.198242188 c 0
 188.055664062 640.004882812 173.424804688 632.49609375 165.92578125 622.638671875 c 0
 156.294921875 609.979492188 156.944335938 630.97265625 156.944335938 332.361328125 c 0
 156.944335938 34.72265625 156.235351562 57.8837890625 165.555664062 51.015625 c 0
 173.739257812 44.9853515625 178.888671875 43.75 195.833007812 43.75 c 0
 212.77734375 43.75 217.926757812 44.9853515625 226.111328125 51.015625 c 0
 235.432617188 57.884765625 234.72265625 34.1669921875 234.72265625 338.47265625 c 2
 234.72265625 614.72265625 l 1
 231.206054688 621.805664062 l 2
 227.111328125 630.052734375 220.416992188 635.68359375 211.52734375 638.356445312 c 0
EndSplineSet
Validated: 524833
EndChar

StartChar: The-letter-m
Encoding: 109 -1 44
Width: 936
Flags: HW
LayerCount: 2
Back
Fore
SplineSet
131.944335938 436.021484375 m 0
 246.666992188 442.5390625 245.947265625 442.520507812 250.138671875 439.104492188 c 2
 253.47265625 436.388671875 l 1
 254.166992188 392.84765625 l 1
 254.861328125 349.305664062 l 1
 259.540039062 357.638671875 l 2
 284.470703125 402.037109375 330.555664062 433.578125 380.27734375 440.2734375 c 0
 395.826171875 442.3671875 428.47265625 441.362304688 445.833007812 438.255859375 c 0
 464.72265625 434.875976562 486.514648438 426.341796875 500.555664062 416.827148438 c 0
 518.788085938 404.470703125 536.041992188 377.916992188 541.719726562 353.47265625 c 0
 542.624023438 349.583007812 543.578125 345.703125 543.888671875 344.65234375 c 0
 544.190429688 343.635742188 546.43359375 346.52734375 548.791992188 350.97265625 c 0
 575.084960938 400.530273438 620.694335938 433.2421875 673.333007812 440.294921875 c 0
 688.881835938 442.377929688 721.52734375 441.362304688 738.888671875 438.255859375 c 0
 757.77734375 434.875976562 779.569335938 426.340820312 793.611328125 416.825195312 c 0
 813.280273438 403.494140625 828.921875 378.194335938 836.47265625 347.5 c 0
 839.374023438 335.701171875 839.462890625 332.083007812 840.208007812 193.75 c 0
 840.961914062 54.02734375 841.01171875 52.0087890625 843.834960938 46.6669921875 c 0
 849.90625 35.1806640625 859.02734375 32.34765625 894.166992188 31.033203125 c 2
 918.055664062 30.138671875 l 1
 918.055664062 15 l 1
 918.055664062 -0.138671875 l 1
 898.194335938 0.96484375 l 2
 872.538085938 2.3896484375 738.47265625 2.3837890625 712.77734375 0.95703125 c 2
 693.055664062 -0.138671875 l 1
 693.055664062 15 l 1
 693.055664062 30.138671875 l 1
 716.944335938 31.033203125 l 2
 752.083007812 32.34765625 761.205078125 35.1806640625 767.275390625 46.6669921875 c 0
 770.103515625 52.015625 770.14453125 53.75 770.555664062 186.111328125 c 0
 770.838867188 277.22265625 770.478515625 325.03125 769.4296875 335.416992188 c 0
 764.423828125 385 746.186523438 410.052734375 709.72265625 417.4375 c 0
 688.923828125 421.649414062 657.638671875 417.581054688 635.555664062 407.79296875 c 0
 597.455078125 390.90625 564.787109375 351.944335938 553.561523438 310 c 0
 547.309570312 286.640625 546.97265625 278.47265625 547.458984375 161.805664062 c 0
 547.908203125 54.02734375 547.967773438 51.9873046875 550.779296875 46.6669921875 c 0
 556.850585938 35.1806640625 565.97265625 32.34765625 601.111328125 31.033203125 c 2
 625 30.138671875 l 1
 625 15 l 1
 625 -0.138671875 l 1
 605.208007812 0.97265625 l 2
 594.313476562 1.583984375 552.638671875 2.0830078125 512.5 2.0830078125 c 0
 472.361328125 2.0830078125 430.686523438 1.583984375 419.791992188 0.97265625 c 2
 400 -0.138671875 l 1
 400 15 l 1
 400 30.138671875 l 1
 423.888671875 31.033203125 l 2
 459.02734375 32.34765625 468.149414062 35.1806640625 474.220703125 46.6669921875 c 0
 477.047851562 52.015625 477.088867188 53.75 477.5 186.111328125 c 0
 477.783203125 277.22265625 477.422851562 325.03125 476.374023438 335.416992188 c 0
 471.368164062 385 453.130859375 410.052734375 416.666992188 417.4375 c 0
 395.868164062 421.649414062 364.583007812 417.581054688 342.5 407.79296875 c 0
 304.399414062 390.90625 271.732421875 351.944335938 260.505859375 310 c 0
 254.25390625 286.640625 253.916992188 278.47265625 254.403320312 161.805664062 c 0
 254.852539062 54.02734375 254.912109375 51.9873046875 257.724609375 46.6669921875 c 0
 263.794921875 35.1806640625 272.916992188 32.34765625 308.055664062 31.033203125 c 2
 331.944335938 30.138671875 l 1
 331.944335938 15 l 1
 331.944335938 -0.138671875 l 1
 307.22265625 0.982421875 l 2
 275.313476562 2.4306640625 88.47265625 2.42578125 56.52734375 0.9765625 c 2
 31.9443359375 -0.138671875 l 1
 31.9443359375 15 l 1
 31.9443359375 30.138671875 l 1
 55.8330078125 31.033203125 l 2
 90.97265625 32.34765625 100.09375 35.1806640625 106.165039062 46.6669921875 c 0
 109.001953125 52.0341796875 109.03125 53.47265625 109.444335938 205.555664062 c 0
 109.734375 312.22265625 109.399414062 361.73828125 108.34765625 367.916992188 c 0
 104.305664062 391.649414062 93.47265625 397.783203125 52.5 399.537109375 c 2
 31.9443359375 400.416992188 l 1
 31.9443359375 415.486328125 l 2
 31.9443359375 430.208007812 32.0166015625 430.557617188 35.0693359375 430.625 c 0
 36.787109375 430.663085938 80.4169921875 433.09375 131.944335938 436.021484375 c 0
203.47265625 383.672851562 m 0
 195.454101562 387.771484375 183.194335938 388.116210938 172.22265625 384.553710938 c 0
 165 382.208007812 161.71875 380.051757812 154.72265625 373.055664062 c 0
 140.668945312 359.001953125 141.666992188 371.805664062 141.666992188 205.555664062 c 2
 141.666992188 61.52734375 l 1
 144.791992188 56.8056640625 l 2
 146.71875 53.8935546875 151.111328125 50.486328125 156.25 47.9169921875 c 0
 164.18359375 43.9501953125 165.416992188 43.75 181.944335938 43.75 c 0
 198.47265625 43.75 199.705078125 43.9501953125 207.638671875 47.9169921875 c 0
 212.77734375 50.486328125 217.169921875 53.8935546875 219.09765625 56.8056640625 c 2
 222.22265625 61.52734375 l 1
 222.22265625 211.388671875 l 2
 222.22265625 376.666992188 222.763671875 366.51953125 213.42578125 376.25 c 0
 211.006835938 378.770507812 206.52734375 382.111328125 203.47265625 383.672851562 c 0
EndSplineSet
Validated: 524833
EndChar

StartChar: The-letter-n
Encoding: 110 -1 45
Width: 658
Flags: HW
LayerCount: 2
Back
Fore
SplineSet
131.944335938 436.006835938 m 0
 250.138671875 442.705078125 246.396484375 442.630859375 250.694335938 438.333007812 c 2
 254.166992188 434.861328125 l 1
 254.166992188 390.694335938 l 1
 254.166992188 346.52734375 l 1
 258.155273438 353.75 l 2
 280.8828125 394.90234375 319.166992188 424.016601562 367.916992188 437.221679688 c 0
 380.2578125 440.564453125 383.47265625 440.833007812 411.111328125 440.833007812 c 0
 433.75 440.833007812 444.129882812 440.251953125 454.02734375 438.430664062 c 0
 506.52734375 428.767578125 538.321289062 402.885742188 552.586914062 358.194335938 c 0
 558.8671875 338.521484375 558.733398438 341.666992188 559.59765625 193.055664062 c 0
 560.405273438 54.02734375 560.456054688 52.0087890625 563.279296875 46.6669921875 c 0
 569.350585938 35.1806640625 578.47265625 32.34765625 613.611328125 31.033203125 c 2
 637.5 30.138671875 l 1
 637.5 15 l 1
 637.5 -0.138671875 l 1
 617.708007812 0.97265625 l 2
 606.813476562 1.583984375 565.138671875 2.0830078125 525 2.0830078125 c 0
 484.861328125 2.0830078125 443.186523438 1.583984375 432.291992188 0.97265625 c 2
 412.5 -0.138671875 l 1
 412.5 15 l 1
 412.5 30.138671875 l 1
 436.388671875 31.033203125 l 2
 471.52734375 32.34765625 480.649414062 35.1806640625 486.720703125 46.6669921875 c 0
 489.547851562 52.015625 489.588867188 53.75 490 185.416992188 c 0
 490.27734375 274.305664062 489.913085938 323.704101562 488.907226562 333.611328125 c 0
 483.1640625 390.138671875 459.729492188 415.801757812 410.97265625 418.95703125 c 0
 388.611328125 420.405273438 363.267578125 415.498046875 342.22265625 405.646484375 c 0
 303.55078125 387.54296875 272.426757812 350.97265625 260.5859375 309.72265625 c 0
 254.299804688 287.819335938 253.920898438 278.75 254.40625 161.805664062 c 0
 254.853515625 54.02734375 254.912109375 51.9873046875 257.724609375 46.6669921875 c 0
 263.794921875 35.1806640625 272.916992188 32.34765625 308.055664062 31.033203125 c 2
 331.944335938 30.138671875 l 1
 331.944335938 15 l 1
 331.944335938 -0.138671875 l 1
 307.22265625 0.982421875 l 2
 275.313476562 2.4306640625 88.47265625 2.42578125 56.52734375 0.9765625 c 2
 31.9443359375 -0.138671875 l 1
 31.9443359375 15 l 1
 31.9443359375 30.138671875 l 1
 55.8330078125 31.033203125 l 2
 90.97265625 32.34765625 100.09375 35.1806640625 106.165039062 46.6669921875 c 0
 109.001953125 52.0341796875 109.03125 53.47265625 109.444335938 205.555664062 c 0
 109.734375 312.22265625 109.399414062 361.73828125 108.34765625 367.916992188 c 0
 104.305664062 391.649414062 93.47265625 397.783203125 52.5 399.537109375 c 2
 31.9443359375 400.416992188 l 1
 31.9443359375 415.486328125 l 2
 31.9443359375 430.208007812 32.0166015625 430.557617188 35.0693359375 430.625 c 0
 36.787109375 430.663085938 80.4169921875 433.086914062 131.944335938 436.006835938 c 0
203.47265625 383.672851562 m 0
 195.454101562 387.771484375 183.194335938 388.116210938 172.22265625 384.553710938 c 0
 165 382.208007812 161.71875 380.051757812 154.72265625 373.055664062 c 0
 140.668945312 359.001953125 141.666992188 371.805664062 141.666992188 205.555664062 c 2
 141.666992188 61.52734375 l 1
 144.791992188 56.8056640625 l 2
 146.71875 53.8935546875 151.111328125 50.486328125 156.25 47.9169921875 c 0
 164.18359375 43.9501953125 165.416992188 43.75 181.944335938 43.75 c 0
 198.47265625 43.75 199.705078125 43.9501953125 207.638671875 47.9169921875 c 0
 212.77734375 50.486328125 217.169921875 53.8935546875 219.09765625 56.8056640625 c 2
 222.22265625 61.52734375 l 1
 222.22265625 211.388671875 l 2
 222.22265625 376.666992188 222.763671875 366.51953125 213.42578125 376.25 c 0
 211.006835938 378.770507812 206.52734375 382.111328125 203.47265625 383.672851562 c 0
EndSplineSet
Validated: 524833
EndChar

StartChar: The-letter-o
Encoding: 111 -1 46
Width: 602
Flags: HW
LayerCount: 2
Back
Fore
SplineSet
275.694335938 446.359375 m 0
 287.30078125 447.583984375 334.72265625 445.896484375 348.611328125 443.764648438 c 0
 380.97265625 438.797851562 410.456054688 429.473632812 438.888671875 415.213867188 c 0
 500.555664062 384.287109375 545.2734375 334.626953125 564.646484375 275.555664062 c 0
 572.262695312 252.333007812 574.178710938 239.861328125 574.224609375 213.194335938 c 0
 574.286132812 178.194335938 569.07421875 156.942382812 552.59375 125 c 0
 516.680664062 55.390625 441.388671875 6.19140625 349.305664062 -7.837890625 c 0
 325.97265625 -11.3935546875 276.805664062 -11.396484375 253.47265625 -7.8447265625 c 0
 206.805664062 -0.7412109375 164.461914062 15.19140625 128.888671875 39.0302734375 c 0
 93.611328125 62.6708984375 67.6396484375 91.025390625 50.1435546875 125 c 0
 33.6943359375 156.942382812 28.4912109375 178.194335938 28.552734375 213.194335938 c 0
 28.599609375 239.861328125 30.5146484375 252.333007812 38.130859375 275.555664062 c 0
 57.50390625 334.626953125 102.22265625 384.28515625 163.888671875 415.20703125 c 0
 198.100585938 432.362304688 231.666992188 441.71484375 275.694335938 446.359375 c 0
345 420.887695312 m 0
 334.013671875 423.065429688 323.194335938 424.01953125 305.555664062 424.366210938 c 0
 279.305664062 424.8828125 267.798828125 423.954101562 243.47265625 419.35546875 c 2
 227.77734375 416.388671875 l 1
 227.77734375 219.375 l 2
 227.77734375 32.986328125 227.905273438 22.3232421875 230.138671875 21.6640625 c 0
 236.5625 19.767578125 256.52734375 16.693359375 272.22265625 15.18359375 c 0
 305.416992188 11.990234375 343.125 15.5390625 370.416992188 24.423828125 c 0
 414.444335938 38.7568359375 449.936523438 68.181640625 469.1171875 106.25 c 0
 484.865234375 137.506835938 492.92578125 184.305664062 491.245117188 234.72265625 c 0
 489.981445312 272.638671875 484.7578125 299.6015625 473.727539062 325.138671875 c 0
 452.561523438 374.147460938 405.97265625 408.80078125 345 420.887695312 c 0
186.111328125 218.055664062 m 0
 186.111328125 362.77734375 185.755859375 399.985351562 184.375 399.930664062 c 0
 183.420898438 399.892578125 176.944335938 396.557617188 170 392.528320312 c 0
 117.500976562 362.071289062 85.611328125 316.805664062 73.3056640625 255.27734375 c 0
 68.8330078125 232.916992188 68.8447265625 193.3359375 73.3291015625 172.638671875 c 0
 84.40234375 121.52734375 110.657226562 81.9443359375 151.52734375 54.7392578125 c 0
 160.833007812 48.5458984375 183.092773438 36.1728515625 185 36.1337890625 c 0
 185.611328125 36.12109375 186.111328125 117.916992188 186.111328125 218.055664062 c 0
EndSplineSet
Validated: 524833
EndChar

StartChar: The-letter-p
Encoding: 112 -1 47
Width: 658
Flags: HW
LayerCount: 2
Back
Fore
SplineSet
127.083007812 435.993164062 m 0
 242.361328125 442.4609375 243.081054688 442.479492188 247.361328125 439.055664062 c 0
 250.67578125 436.404296875 250.698242188 436.180664062 251.388671875 400.069335938 c 2
 252.083007812 363.75 l 1
 258.245117188 372.22265625 l 2
 276.833007812 397.780273438 310.833007812 421.396484375 345.27734375 432.673828125 c 0
 402.083007812 451.271484375 470.579101562 439.989257812 525.833007812 402.935546875 c 0
 574.875976562 370.045898438 607.827148438 320 621.041992188 258.333007812 c 0
 623.698242188 245.9375 624.166992188 239.583007812 624.166992188 215.97265625 c 0
 624.166992188 184.861328125 622.202148438 172.137695312 613.401367188 146.25 c 0
 582.774414062 56.1630859375 497.22265625 -6.3447265625 398.611328125 -10.6845703125 c 0
 368.611328125 -12.0048828125 347.891601562 -8.154296875 322.638671875 3.435546875 c 0
 299.444335938 14.0810546875 272.46875 37.26953125 257.805664062 59.1669921875 c 2
 251.388671875 68.75 l 1
 251.736328125 -36.8056640625 l 2
 252.077148438 -140.416992188 252.135742188 -142.4609375 254.946289062 -147.77734375 c 0
 261.017578125 -159.263671875 270.138671875 -162.096679688 305.27734375 -163.411132812 c 2
 329.166992188 -164.305664062 l 1
 329.166992188 -179.444335938 l 1
 329.166992188 -194.583007812 l 1
 301.805664062 -193.478515625 l 2
 266.25 -192.043945312 89.404296875 -192.040039062 53.888671875 -193.473632812 c 2
 26.388671875 -194.583007812 l 1
 26.388671875 -179.444335938 l 1
 26.388671875 -164.305664062 l 1
 50.27734375 -163.411132812 l 2
 85.4169921875 -162.096679688 94.5380859375 -159.263671875 100.609375 -147.77734375 c 0
 103.46875 -142.3671875 103.47265625 -142.083007812 103.888671875 108.333007812 c 0
 104.181640625 284.72265625 103.856445312 361.662109375 102.791992188 367.916992188 c 0
 98.75 391.649414062 87.9169921875 397.783203125 46.9443359375 399.537109375 c 2
 26.388671875 400.416992188 l 1
 26.388671875 415.486328125 l 2
 26.388671875 430.208007812 26.4609375 430.557617188 29.513671875 430.625 c 0
 31.232421875 430.663085938 75.138671875 433.079101562 127.083007812 435.993164062 c 0
425 412.470703125 m 0
 413.040039062 415.833984375 387.361328125 417.212890625 374.444335938 415.185546875 c 0
 321.805664062 406.922851562 278.348632812 372.327148438 256.796875 321.52734375 c 2
 252.083007812 310.416992188 l 1
 251.666992188 220.416992188 l 1
 251.25 130.416992188 l 1
 256.176757812 115.694335938 l 2
 275.001953125 59.4443359375 314.76171875 21.6552734375 364.166992188 13.056640625 c 0
 418.34765625 3.6259765625 473.53125 32.9169921875 508.34375 89.5830078125 c 0
 548.65625 155.203125 552.640625 252.22265625 518.006835938 324.861328125 c 0
 496.815429688 369.305664062 462.051757812 402.051757812 425 412.470703125 c 0
193.47265625 385.579101562 m 0
 190 386.623046875 184.80078125 387.463867188 182.083007812 387.419921875 c 0
 170 387.227539062 155.369140625 379.71875 147.870117188 369.861328125 c 0
 138.278320312 357.252929688 138.888671875 375 138.888671875 108.75 c 0
 138.888671875 -156.666992188 138.203125 -136.578125 147.5 -143.428710938 c 0
 155.68359375 -149.458984375 160.833007812 -150.694335938 177.77734375 -150.694335938 c 0
 194.72265625 -150.694335938 199.87109375 -149.458984375 208.055664062 -143.428710938 c 0
 217.35546875 -136.576171875 216.666992188 -157.22265625 216.666992188 114.861328125 c 2
 216.666992188 361.944335938 l 1
 213.150390625 369.02734375 l 2
 209.055664062 377.275390625 202.361328125 382.90625 193.47265625 385.579101562 c 0
EndSplineSet
Validated: 524833
EndChar

StartChar: The-letter-q
Encoding: 113 -1 48
Width: 630
Flags: HW
LayerCount: 2
Back
Fore
SplineSet
273.194335938 440.1953125 m 0
 289.305664062 442.033203125 331.928710938 440.915039062 346.52734375 438.272460938 c 0
 374.166992188 433.26953125 406.182617188 419.932617188 432.083007812 402.631835938 c 0
 448.611328125 391.591796875 471.810546875 368.577148438 482.618164062 352.5 c 0
 487.098632812 345.833007812 491.211914062 340.27734375 491.666992188 340.27734375 c 0
 492.124023438 340.27734375 501.333007812 362.986328125 512.083007812 390.625 c 2
 531.666992188 440.97265625 l 1
 542.916992188 441.388671875 l 1
 554.166992188 441.805664062 l 1
 554.513671875 149.72265625 l 1
 554.861328125 -142.361328125 l 1
 557.724609375 -147.77734375 l 2
 563.794921875 -159.263671875 572.916992188 -162.096679688 608.055664062 -163.411132812 c 2
 631.944335938 -164.305664062 l 1
 631.944335938 -179.444335938 l 1
 631.944335938 -194.583007812 l 1
 612.15234375 -193.47265625 l 2
 601.2578125 -192.860351562 559.583007812 -192.361328125 519.444335938 -192.361328125 c 0
 479.305664062 -192.361328125 437.630859375 -192.860351562 426.736328125 -193.47265625 c 2
 406.944335938 -194.583007812 l 1
 406.944335938 -179.444335938 l 1
 406.944335938 -164.305664062 l 1
 430.833007812 -163.411132812 l 2
 465.97265625 -162.096679688 475.09375 -159.263671875 481.165039062 -147.77734375 c 0
 483.979492188 -142.453125 484.03515625 -140.486328125 484.444335938 -32.15234375 c 2
 484.861328125 78.0556640625 l 1
 477.194335938 69.02734375 l 2
 448.380859375 35.09765625 405 8.4814453125 359.02734375 -3.4736328125 c 0
 282.77734375 -23.302734375 187.716796875 -3.5498046875 122.916992188 45.5888671875 c 0
 58.212890625 94.6533203125 24.7275390625 169.583007812 35.291015625 241.666992188 c 0
 50.4921875 345.40625 146.805664062 425.778320312 273.194335938 440.1953125 c 0
347.916992188 413.173828125 m 0
 334.772460938 415.947265625 298.75 417.079101562 283.333007812 415.204101562 c 0
 271.52734375 413.768554688 246.501953125 409.123046875 238.611328125 406.90234375 c 2
 233.333007812 405.416992188 l 1
 233.680664062 212.77734375 l 1
 234.02734375 20.138671875 l 1
 247.77734375 17.1015625 l 2
 298.194335938 5.9658203125 349.48828125 11.2548828125 392.638671875 32.0380859375 c 0
 427.77734375 48.9619140625 462.3203125 81.875 480.145507812 115.416992188 c 2
 484.72265625 124.02734375 l 1
 484.72265625 209.65234375 l 1
 484.72265625 295.27734375 l 1
 481.286132812 304.02734375 l 2
 472.28515625 326.944335938 459.166992188 346.124023438 439.305664062 365.404296875 c 0
 413.306640625 390.641601562 385.27734375 405.291992188 347.916992188 413.173828125 c 0
191.111328125 37.9169921875 m 0
 191.416992188 38.22265625 191.510742188 117.361328125 191.319335938 213.75 c 2
 190.97265625 389.02734375 l 1
 178.055664062 381.388671875 l 2
 133.611328125 355.102539062 98.197265625 313.11328125 84.2265625 270.138671875 c 0
 59.0771484375 192.77734375 88.4384765625 108.840820312 158.888671875 56.6923828125 c 0
 171.111328125 47.6455078125 189.89453125 36.7001953125 191.111328125 37.9169921875 c 0
EndSplineSet
Validated: 524833
EndChar

StartChar: The-letter-r
Encoding: 114 -1 49
Width: 494
Flags: HW
LayerCount: 2
Back
Fore
SplineSet
127.77734375 435.999023438 m 0
 244.166992188 442.68359375 240.854492188 442.6171875 245.138671875 438.333007812 c 2
 248.611328125 434.861328125 l 1
 248.611328125 380.97265625 l 1
 248.611328125 327.083007812 l 1
 254.638671875 340.416992188 l 2
 265.563476562 364.583007812 280.50390625 386.213867188 296.944335938 401.6640625 c 0
 322.51171875 425.69140625 353.47265625 439.421875 386.111328125 441.20703125 c 0
 408.333007812 442.422851562 424.021484375 438.4609375 440.416992188 427.4921875 c 0
 468.055664062 409.000976562 475.017578125 369.600585938 454.305664062 348.888671875 c 0
 438.266601562 332.850585938 408.888671875 332.868164062 392.77734375 348.926757812 c 0
 384.296875 357.379882812 381.25 365.555664062 381.25 379.861328125 c 0
 381.25 390.833007812 381.708007812 393.235351562 385 399.513671875 c 0
 387.051757812 403.427734375 392.083007812 409.623046875 396.111328125 413.194335938 c 2
 403.47265625 419.72265625 l 1
 388.888671875 418.951171875 l 2
 354.444335938 417.130859375 329.796875 405.254882812 303.71875 377.916992188 c 0
 275.374023438 348.200195312 257.479492188 305.416992188 252.833007812 256.25 c 0
 252.032226562 247.77734375 251.017578125 237.87890625 250.555664062 234.02734375 c 0
 250.09765625 230.213867188 249.45703125 189.583007812 249.134765625 143.888671875 c 0
 248.469726562 49.5830078125 248.428710938 50.0390625 258.194335938 41.2587890625 c 0
 262.005859375 37.83203125 265.833007812 35.9267578125 271.111328125 34.828125 c 0
 282.735351562 32.4091796875 305.833007812 30.6572265625 326.805664062 30.603515625 c 2
 345.833007812 30.5556640625 l 1
 345.833007812 15.2080078125 l 1
 345.833007812 -0.138671875 l 1
 317.638671875 0.974609375 l 2
 281.25 2.412109375 85.6796875 2.408203125 53.75 0.96875 c 2
 29.1669921875 -0.138671875 l 1
 29.1669921875 15 l 1
 29.1669921875 30.138671875 l 1
 53.0556640625 31.033203125 l 2
 88.1943359375 32.34765625 97.31640625 35.1806640625 103.38671875 46.6669921875 c 0
 106.223632812 52.0341796875 106.25390625 53.47265625 106.666992188 205.555664062 c 0
 106.956054688 312.22265625 106.622070312 361.73828125 105.569335938 367.916992188 c 0
 101.528320312 391.649414062 90.6943359375 397.783203125 49.72265625 399.537109375 c 2
 29.1669921875 400.416992188 l 1
 29.1669921875 415.486328125 l 2
 29.1669921875 430.208007812 29.23828125 430.557617188 32.2919921875 430.625 c 0
 34.01171875 430.663085938 76.9443359375 433.079101562 127.77734375 435.999023438 c 0
193.47265625 385.579101562 m 0
 190 386.623046875 184.80078125 387.463867188 182.083007812 387.419921875 c 0
 170 387.227539062 155.369140625 379.71875 147.870117188 369.861328125 c 0
 138.495117188 357.538085938 138.888671875 364.72265625 138.888671875 205.97265625 c 0
 138.888671875 47.9169921875 138.341796875 57.7646484375 147.5 51.015625 c 0
 155.68359375 44.9853515625 160.833007812 43.75 177.77734375 43.75 c 0
 194.72265625 43.75 199.87109375 44.9853515625 208.055664062 51.015625 c 0
 217.23046875 57.77734375 216.666992188 47.22265625 216.666992188 212.083007812 c 2
 216.666992188 361.944335938 l 1
 213.150390625 369.02734375 l 2
 209.055664062 377.275390625 202.361328125 382.90625 193.47265625 385.579101562 c 0
EndSplineSet
Validated: 524833
EndChar

StartChar: The-letter-s
Encoding: 115 -1 50
Width: 497
Flags: HW
LayerCount: 2
Back
Fore
SplineSet
209.02734375 446.2421875 m 0
 226.388671875 447.337890625 267.436523438 447.053710938 281.944335938 445.737304688 c 0
 319.583007812 442.3203125 354.520507812 431.573242188 379.583007812 415.703125 c 2
 384.861328125 412.361328125 l 1
 403.47265625 429.791992188 l 2
 420.416992188 445.661132812 422.549804688 447.22265625 427.291992188 447.22265625 c 0
 430.763671875 447.22265625 433.564453125 446.2265625 435.694335938 444.236328125 c 2
 438.888671875 441.25 l 1
 438.888671875 371.041992188 l 2
 438.888671875 300.90234375 438.885742188 300.830078125 435.90234375 297.638671875 c 0
 433.615234375 295.192382812 431.388671875 294.444335938 426.388671875 294.444335938 c 0
 416.786132812 294.444335938 414.508789062 297.638671875 413.516601562 312.5 c 0
 410.493164062 357.77734375 388.760742188 389.280273438 346.944335938 409 c 0
 321.400390625 421.045898438 294.305664062 426.283203125 251.666992188 427.413085938 c 2
 222.22265625 428.194335938 l 1
 222.569335938 352.638671875 l 1
 222.916992188 277.083007812 l 1
 270.138671875 267.990234375 l 2
 325.833007812 257.266601562 333.106445312 255.56640625 354.166992188 248.352539062 c 0
 384.583007812 237.934570312 412.006835938 221.924804688 430.416992188 203.838867188 c 0
 476.825195312 158.24609375 474.72265625 87.4140625 425.555664062 40.138671875 c 0
 399.479492188 15.0654296875 357.77734375 -1.669921875 304.166992188 -8.578125 c 0
 296.6484375 -9.546875 275.138671875 -10.27734375 254.166992188 -10.27734375 c 0
 221.944335938 -10.27734375 215.354492188 -9.896484375 201.25 -7.21484375 c 0
 164.305664062 -0.1923828125 134.442382812 13.3359375 106.805664062 35.5693359375 c 2
 97.5 43.0556640625 l 1
 77.0830078125 19.09765625 l 2
 65.83984375 5.90234375 55.1064453125 -6.2939453125 53.1943359375 -8.05078125 c 0
 48.75 -12.1337890625 40.826171875 -12.1748046875 36.52734375 -8.138671875 c 2
 33.3330078125 -5.138671875 l 1
 33.3330078125 80.8330078125 l 1
 33.3330078125 166.805664062 l 1
 36.736328125 170.208007812 l 2
 39.2880859375 172.760742188 41.6669921875 173.611328125 46.25 173.611328125 c 0
 54.404296875 173.611328125 57.13671875 170.27734375 61.0537109375 155.555664062 c 0
 76.1669921875 98.75 109.068359375 55.0546875 154.02734375 32.078125 c 0
 181.32421875 18.1279296875 206.25 12.6328125 247.5 11.4697265625 c 2
 275 10.6943359375 l 1
 275 100.416992188 l 2
 275 184.72265625 274.853515625 190.180664062 272.569335938 190.833007812 c 0
 271.235351562 191.21484375 247.083007812 195.975585938 219.02734375 201.388671875 c 0
 190.97265625 206.801757812 161.83984375 212.826171875 154.444335938 214.743164062 c 0
 72.9169921875 235.8828125 31.115234375 275.510742188 33.7431640625 329.166992188 c 0
 35.212890625 359.166992188 52.1787109375 388.90234375 78.47265625 407.560546875 c 0
 108.633789062 428.963867188 155.555664062 442.866210938 209.02734375 446.2421875 c 0
186.111328125 354.861328125 m 0
 186.111328125 420.833007812 185.962890625 424.993164062 183.611328125 424.889648438 c 0
 179.024414062 424.686523438 153.47265625 419.838867188 144.444335938 417.458984375 c 0
 118.194335938 410.5390625 100.860351562 402.024414062 87.638671875 389.557617188 c 0
 74.234375 376.91796875 70.138671875 368.47265625 70.138671875 353.47265625 c 0
 70.138671875 344.166992188 70.7705078125 341.07421875 74.0234375 334.444335938 c 0
 81.4697265625 319.271484375 97.638671875 308.109375 125.694335938 298.772460938 c 0
 139.166992188 294.2890625 179.360351562 284.72265625 184.72265625 284.72265625 c 0
 185.588867188 284.72265625 186.111328125 311.111328125 186.111328125 354.861328125 c 0
333.888671875 178.272460938 m 0
 326.388671875 180.124023438 318.086914062 182.108398438 315.625 182.638671875 c 2
 311.111328125 183.611328125 l 1
 311.111328125 99.4443359375 l 1
 311.111328125 15.27734375 l 1
 314.444335938 15.27734375 l 2
 319.323242188 15.27734375 342.22265625 20.201171875 353.47265625 23.669921875 c 0
 404.72265625 39.46875 433.056640625 72.7744140625 426.6796875 109.72265625 c 0
 424.498046875 122.361328125 419.90625 131.2734375 410.795898438 140.555664062 c 0
 394.275390625 157.384765625 369.72265625 169.426757812 333.888671875 178.272460938 c 0
EndSplineSet
Validated: 524833
EndChar

StartChar: The-letter-t
Encoding: 116 -1 51
Width: 491
Flags: HW
LayerCount: 2
Back
Fore
SplineSet
244.444335938 609.305664062 m 2
 244.444335938 615.27734375 l 1
 256.944335938 615.27734375 l 1
 269.444335938 615.27734375 l 1
 269.444335938 522.916992188 l 1
 269.444335938 430.555664062 l 1
 344.444335938 430.555664062 l 1
 419.444335938 430.555664062 l 1
 419.444335938 415.27734375 l 1
 419.444335938 400 l 1
 344.444335938 400 l 1
 269.444335938 400 l 1
 269.444335938 206.944335938 l 1
 269.444335938 13.888671875 l 1
 281.666992188 13.9228515625 l 2
 335.555664062 14.072265625 382.013671875 39.6572265625 401.400390625 79.861328125 c 0
 409.711914062 97.09765625 411.111328125 106.805664062 411.111328125 147.22265625 c 2
 411.111328125 181.944335938 l 1
 423.611328125 181.944335938 l 1
 436.111328125 181.944335938 l 1
 436.111328125 145.97265625 l 2
 436.111328125 105.97265625 434.984375 96.65625 427.9296875 78.3330078125 c 0
 414.237304688 42.7734375 380.555664062 13.07421875 337.5 -1.40234375 c 0
 293.333007812 -16.251953125 233.498046875 -13.6591796875 193.47265625 4.83984375 c 0
 158.431640625 21.0341796875 137.497070312 46.111328125 126.08984375 85.5556640625 c 2
 122.916992188 96.52734375 l 1
 122.5 248.263671875 l 1
 122.083007812 400 l 1
 70.0693359375 400 l 1
 18.0556640625 400 l 1
 18.0556640625 411.111328125 l 1
 18.0556640625 422.22265625 l 1
 25 422.22265625 l 2
 59.3056640625 422.22265625 107.16015625 434.627929688 138.888671875 451.74609375 c 0
 166.52734375 466.658203125 194.771484375 490.8203125 211.043945312 513.47265625 c 0
 221.356445312 527.829101562 233.416992188 552.083007812 237.494140625 566.666992188 c 0
 240.833007812 578.611328125 244.444335938 600.764648438 244.444335938 609.305664062 c 2
234.72265625 209.65234375 m 1
 234.72265625 400 l 1
 195.763671875 400 l 1
 156.805664062 400 l 1
 157.22265625 250.34765625 l 1
 157.638671875 100.694335938 l 1
 160.736328125 89.72265625 l 2
 170.811523438 54.02734375 193.47265625 31.796875 231.52734375 20.2724609375 c 2
 234.72265625 19.3056640625 l 1
 234.72265625 209.65234375 l 1
EndSplineSet
Validated: 524833
EndChar

StartChar: The-letter-u
Encoding: 117 -1 52
Width: 658
Flags: HW
LayerCount: 2
Back
Fore
SplineSet
132.638671875 435.979492188 m 0
 251.52734375 442.631835938 249.079101562 442.5859375 253.47265625 438.271484375 c 2
 256.944335938 434.861328125 l 1
 256.944335938 224.513671875 l 1
 256.944335938 14.1669921875 l 1
 266.319335938 12.986328125 l 2
 271.485351562 12.3359375 290.97265625 11.8056640625 309.72265625 11.8056640625 c 0
 336.944335938 11.8056640625 346.194335938 12.3017578125 355.97265625 14.287109375 c 0
 421.805664062 27.6552734375 471.287109375 70.7333984375 486.331054688 127.77734375 c 0
 489.405273438 139.43359375 489.450195312 140.97265625 489.930664062 249.305664062 c 0
 490.267578125 325.416992188 489.943359375 361.750976562 488.87109375 367.916992188 c 0
 484.743164062 391.649414062 473.888671875 397.784179688 432.916992188 399.541015625 c 2
 412.5 400.416992188 l 1
 412.5 415.486328125 l 2
 412.5 423.819335938 412.686523438 430.555664062 412.916992188 430.555664062 c 0
 413.145507812 430.555664062 446.111328125 433.057617188 486.111328125 436.111328125 c 0
 526.111328125 439.1640625 559.076171875 441.666992188 559.305664062 441.666992188 c 0
 559.53515625 441.666992188 559.72265625 358.055664062 559.72265625 255.833007812 c 0
 559.72265625 127.5 560.19140625 67.46484375 561.237304688 61.8056640625 c 0
 565.493164062 38.791015625 576.388671875 32.76953125 616.944335938 31.0234375 c 2
 637.5 30.138671875 l 1
 637.5 15.0693359375 l 2
 637.5 6.736328125 637.313476562 -0 637.083007812 -0 c 0
 636.854492188 -0 603.888671875 -2.501953125 563.888671875 -5.5556640625 c 0
 523.888671875 -8.609375 490.923828125 -11.111328125 490.694335938 -11.111328125 c 0
 490.46484375 -11.111328125 490.122070312 10.138671875 489.930664062 36.25 c 2
 489.583007812 83.611328125 l 1
 482.754882812 72.77734375 l 2
 473.180664062 57.5859375 450 34.529296875 433.333007812 23.6201171875 c 0
 410.40625 8.6123046875 386.666992188 -1.3056640625 359.305664062 -7.30859375 c 0
 346.504882812 -10.1171875 341.388671875 -10.4169921875 306.25 -10.4169921875 c 0
 264.305664062 -10.4169921875 248.12890625 -9.0419921875 222.22265625 -3.2734375 c 0
 166.805664062 9.0634765625 134.04296875 33.7626953125 118.02734375 75.27734375 c 0
 109.7890625 96.6328125 109.72265625 97.9169921875 109.72265625 235.27734375 c 0
 109.72265625 319.861328125 109.23046875 363.217773438 108.20703125 368.75 c 0
 103.951171875 391.764648438 93.0556640625 397.786132812 52.5 399.53125 c 2
 31.9443359375 400.416992188 l 1
 31.9443359375 415.486328125 l 2
 31.9443359375 430.208007812 32.0166015625 430.557617188 35.0693359375 430.625 c 0
 36.7880859375 430.663085938 80.6943359375 433.072265625 132.638671875 435.979492188 c 0
199.02734375 385.579101562 m 0
 195.555664062 386.623046875 190.356445312 387.463867188 187.638671875 387.419921875 c 0
 175.555664062 387.227539062 160.943359375 379.71875 153.46875 369.861328125 c 0
 143.982421875 357.3515625 144.288085938 362.5 144.80859375 224.02734375 c 0
 145.270507812 101.111328125 145.321289062 99.154296875 148.282226562 88.888671875 c 0
 154.971679688 65.6943359375 166.076171875 49.6796875 183.47265625 38.140625 c 0
 191.9453125 32.51953125 209.02734375 24.603515625 219.166992188 21.599609375 c 2
 222.22265625 20.6943359375 l 1
 222.22265625 191.319335938 l 1
 222.22265625 361.944335938 l 1
 218.706054688 369.02734375 l 2
 214.611328125 377.275390625 207.916992188 382.90625 199.02734375 385.579101562 c 0
EndSplineSet
Validated: 524833
EndChar

StartChar: The-letter-v
Encoding: 118 -1 53
Width: 630
Flags: HW
LayerCount: 2
Back
Fore
SplineSet
19.4443359375 415.34765625 m 1
 19.4443359375 430.694335938 l 1
 42.77734375 429.573242188 l 2
 72.8984375 428.125976562 249.861328125 428.12890625 284.444335938 429.577148438 c 2
 311.111328125 430.694335938 l 1
 311.111328125 415.34765625 l 1
 311.111328125 400 l 1
 301.805664062 400 l 2
 279.861328125 400 262.010742188 394.078125 255.751953125 384.72265625 c 0
 253.032226562 380.65625 252.602539062 378.611328125 253.125 372.22265625 c 0
 253.58984375 366.53515625 269.86328125 321.388671875 316.805664062 195.555664062 c 0
 351.467773438 102.638671875 380.235351562 26.9658203125 380.69140625 27.5 c 0
 382.952148438 30.1474609375 497.357421875 340.555664062 498.631835938 347.5 c 0
 502.099609375 366.388671875 492.956054688 385.150390625 475.97265625 393.99609375 c 0
 470.416992188 396.889648438 458.975585938 400 453.888671875 400 c 2
 450 400 l 1
 450 415.34765625 l 1
 450 430.694335938 l 1
 466.25 429.58984375 l 2
 487.22265625 428.165039062 584.603515625 428.0859375 599.583007812 429.481445312 c 2
 611.111328125 430.555664062 l 1
 611.111328125 415.27734375 l 1
 611.111328125 400 l 1
 606.25 400 l 2
 596.291015625 400 579.72265625 395.670898438 568.194335938 390.056640625 c 0
 553.810546875 383.051757812 541.026367188 370.694335938 532.358398438 355.416992188 c 0
 528.540039062 348.685546875 504.744140625 286.666992188 463.40234375 175.694335938 c 0
 428.68359375 82.5 399.21484375 3.59375 397.916992188 0.34765625 c 0
 396.47265625 -3.263671875 393.802734375 -6.6337890625 391.041992188 -8.3330078125 c 0
 386.668945312 -11.0244140625 384.305664062 -11.111328125 315.27734375 -11.111328125 c 0
 231.111328125 -11.111328125 237.581054688 -12.39453125 230.561523438 5.6943359375 c 0
 228.19140625 11.802734375 197.450195312 94.1669921875 162.291992188 188.611328125 c 0
 127.1328125 283.055664062 96.5048828125 364.857421875 94.2724609375 370.27734375 c 0
 89.1259765625 382.77734375 82.580078125 390.500976562 74.02734375 394.166992188 c 0
 66.005859375 397.604492188 48.611328125 400 31.6669921875 400 c 2
 19.4443359375 400 l 1
 19.4443359375 415.34765625 l 1
196.25 383.407226562 m 0
 184.444335938 387.99609375 157.771484375 388.747070312 147.77734375 384.771484375 c 0
 138.47265625 381.0703125 132.703125 375.00390625 132.805664062 369.02734375 c 0
 132.897460938 363.698242188 247.604492188 55.4169921875 251.924804688 48.888671875 c 0
 258.693359375 38.662109375 272.083007812 33.291015625 293.194335938 32.333984375 c 0
 304.305664062 31.830078125 309.82421875 32.21875 315.694335938 33.9189453125 c 0
 325.555664062 36.775390625 333.333007812 43.7431640625 333.333007812 49.72265625 c 0
 333.333007812 53.19921875 224.834960938 347.638671875 216.797851562 365.97265625 c 0
 213.588867188 373.293945312 206.25 379.520507812 196.25 383.407226562 c 0
EndSplineSet
Validated: 524833
EndChar

StartChar: The-letter-w
Encoding: 119 -1 54
Width: 825
Flags: HW
LayerCount: 2
Back
Fore
SplineSet
18.0556640625 415.34765625 m 1
 18.0556640625 430.694335938 l 1
 42.0830078125 429.586914062 l 2
 73.21875 428.151367188 245.416992188 428.153320312 280.97265625 429.588867188 c 2
 308.333007812 430.694335938 l 1
 308.333007812 415.555664062 l 1
 308.333007812 400.416992188 l 1
 293.333007812 399.567382812 l 2
 265.138671875 397.969726562 250.999023438 390.182617188 248.977539062 375.138671875 c 0
 248.290039062 370.014648438 255.264648438 348.611328125 306.319335938 199.166992188 c 2
 364.444335938 29.02734375 l 1
 368.194335938 40.138671875 l 2
 370.256835938 46.248046875 392.763671875 112.083007812 418.194335938 186.388671875 c 2
 464.444335938 321.52734375 l 1
 455.625 347.569335938 l 2
 450.780273438 361.875 445.017578125 376.741210938 442.836914062 380.555664062 c 0
 435.096679688 394.102539062 424.861328125 398.282226562 396.25 399.579101562 c 2
 377.77734375 400.416992188 l 1
 377.77734375 415.555664062 l 1
 377.77734375 430.694335938 l 1
 392.638671875 429.60546875 l 2
 412.002929688 428.1875 530 428.178710938 553.75 429.59375 c 2
 572.22265625 430.694335938 l 1
 572.22265625 415.555664062 l 1
 572.22265625 400.416992188 l 1
 557.22265625 399.603515625 l 2
 535.27734375 398.4140625 523.16015625 393.90625 516.095703125 384.305664062 c 0
 509.827148438 375.786132812 509.575195312 376.666992188 561.575195312 225 c 0
 588.146484375 147.5 609.985351562 84.0419921875 610.137695312 83.888671875 c 0
 610.8671875 83.15625 697.31640625 337.638671875 698.5546875 344.166992188 c 0
 702.192382812 363.333007812 691.844726562 383.1640625 673.333007812 392.502929688 c 0
 665.97265625 396.216796875 651.872070312 399.913085938 644.861328125 399.965820312 c 2
 640.27734375 400 l 1
 640.27734375 415.34765625 l 1
 640.27734375 430.694335938 l 1
 659.444335938 429.600585938 l 2
 684.02734375 428.198242188 775.918945312 428.130859375 793.47265625 429.502929688 c 2
 806.944335938 430.555664062 l 1
 806.944335938 415.27734375 l 1
 806.944335938 400 l 1
 801.805664062 399.966796875 l 2
 792.889648438 399.909179688 777.5 395.999023438 768.055664062 391.390625 c 0
 751.752929688 383.4375 734.20703125 362.77734375 727.004882812 343.055664062 c 0
 725.749023438 339.6171875 698.569335938 260.34765625 666.59765625 166.875 c 0
 634.625 73.40234375 607.694335938 -3.9931640625 606.744140625 -5.138671875 c 0
 599.471679688 -13.9052734375 580.727539062 -12.638671875 575.912109375 -3.0556640625 c 0
 574.875 -0.9921875 552.53515625 63.611328125 526.25 140.555664062 c 0
 499.96484375 217.5 478.06640625 279.666992188 477.569335938 278.75 c 0
 477.073242188 277.833007812 455.323242188 214.583007812 429.236328125 138.194335938 c 0
 403.149414062 61.8056640625 380.680664062 -2.2568359375 379.305664062 -4.1669921875 c 0
 374.278320312 -11.1494140625 374.72265625 -11.111328125 298.611328125 -11.111328125 c 0
 229.305664062 -11.111328125 226.94140625 -11.0244140625 222.5 -8.3330078125 c 0
 220 -6.818359375 217.064453125 -3.50390625 216.041992188 -1.0419921875 c 0
 215.009765625 1.44140625 185.928710938 86.25 151.388671875 187.5 c 0
 116.849609375 288.75 87.1640625 374.338867188 85.39453125 377.77734375 c 0
 81.462890625 385.416992188 74.603515625 392.208984375 68.0556640625 394.947265625 c 0
 61.470703125 397.701171875 44.02734375 400 29.72265625 400 c 2
 18.0556640625 400 l 1
 18.0556640625 415.34765625 l 1
192.361328125 383.323242188 m 0
 180.27734375 387.940429688 154.034179688 388.76171875 143.055664062 384.865234375 c 0
 133.611328125 381.514648438 127.77734375 375.4140625 127.77734375 368.888671875 c 0
 127.77734375 363.46484375 231.764648438 58.0556640625 236.44921875 49.72265625 c 0
 243.23046875 37.6572265625 261.52734375 31.1611328125 285.833007812 32.189453125 c 0
 306.52734375 33.064453125 319.444335938 40.283203125 319.444335938 50.97265625 c 0
 319.444335938 52.34765625 295.2265625 124.375 265.625 211.041992188 c 0
 213.489257812 363.680664062 211.631835938 368.791015625 206.25 374.375 c 0
 202.731445312 378.025390625 197.638671875 381.306640625 192.361328125 383.323242188 c 0
EndSplineSet
Validated: 524833
EndChar

StartChar: The-letter-x
Encoding: 120 -1 55
Width: 630
Flags: HW
LayerCount: 2
Back
Fore
SplineSet
16.6669921875 415.555664062 m 1
 16.6669921875 430.694335938 l 1
 42.0830078125 429.59375 l 2
 75.0380859375 428.166015625 269.72265625 428.165039062 308.75 429.592773438 c 2
 338.888671875 430.694335938 l 1
 338.888671875 415.555664062 l 1
 338.888671875 400.416992188 l 1
 331.944335938 399.599609375 l 2
 319.166992188 398.096679688 307.646484375 391.435546875 303.329101562 383.055664062 c 0
 300.967773438 378.47265625 300.7890625 370.33203125 302.958984375 366.25 c 0
 303.854492188 364.565429688 317.326171875 345.90234375 332.986328125 324.65234375 c 2
 361.388671875 286.111328125 l 1
 373.333007812 297.020507812 l 2
 394.02734375 315.921875 425.654296875 348.958007812 429.50390625 355.694335938 c 0
 434.7421875 364.861328125 438.04296875 377.673828125 436.838867188 384.166992188 c 0
 435.654296875 390.555664062 428.337890625 398.325195312 422.361328125 399.541015625 c 2
 418.055664062 400.416992188 l 1
 418.055664062 415.555664062 l 1
 418.055664062 430.694335938 l 1
 436.388671875 429.607421875 l 2
 460.27734375 428.19140625 567.6171875 428.185546875 584.305664062 429.599609375 c 2
 597.22265625 430.694335938 l 1
 597.22265625 415.34765625 l 1
 597.22265625 400 l 1
 590.833007812 400 l 2
 580.71484375 400 556.666992188 396.055664062 543.47265625 392.231445312 c 0
 519.02734375 385.146484375 496.862304688 373.821289062 474.305664062 356.891601562 c 0
 461.805664062 347.510742188 377.77734375 267.638671875 377.77734375 265.138671875 c 0
 377.77734375 262.41015625 528.89453125 58.75 537 50.5556640625 c 0
 551.44921875 35.9482421875 562.77734375 32.328125 598.333007812 30.9541015625 c 2
 619.444335938 30.138671875 l 1
 619.444335938 15 l 1
 619.444335938 -0.138671875 l 1
 594.02734375 0.9619140625 l 2
 561.073242188 2.3896484375 366.388671875 2.390625 327.361328125 0.962890625 c 2
 297.22265625 -0.138671875 l 1
 297.22265625 15 l 1
 297.22265625 30.138671875 l 1
 304.166992188 30.9560546875 l 2
 316.944335938 32.458984375 328.4609375 39.1201171875 332.772460938 47.5 c 0
 336.400390625 54.552734375 335.217773438 61.388671875 328.759765625 70.6943359375 c 0
 313.43359375 92.77734375 265.919921875 156.727539062 265 156.51171875 c 0
 264.387695312 156.3671875 247.708007812 140.505859375 227.84765625 121.180664062 c 0
 205.34765625 99.287109375 189.739257812 82.927734375 186.305664062 77.638671875 c 0
 179.6328125 67.361328125 175.641601562 53.8994140625 177.040039062 46.388671875 c 0
 178.229492188 40 185.55078125 32.2822265625 191.52734375 31.1171875 c 2
 195.833007812 30.27734375 l 1
 195.833007812 15.0693359375 l 1
 195.833007812 -0.138671875 l 1
 177.5 0.9482421875 l 2
 153.611328125 2.3642578125 46.271484375 2.3701171875 29.5830078125 0.9560546875 c 2
 16.6669921875 -0.138671875 l 1
 16.6669921875 15.2080078125 l 1
 16.6669921875 30.5556640625 l 1
 23.0556640625 30.5556640625 l 2
 33.12109375 30.5556640625 57.361328125 34.5390625 70.5556640625 38.361328125 c 0
 86.6669921875 43.0283203125 99.783203125 48.61328125 114.72265625 57.1689453125 c 0
 139.926757812 71.6025390625 149.166992188 79.6640625 225.416992188 153.755859375 c 2
 250.138671875 177.77734375 l 1
 178.888671875 274.583007812 l 2
 139.737304688 327.77734375 103.799804688 375.268554688 99.1181640625 380 c 0
 84.6640625 394.607421875 73.3330078125 398.227539062 37.77734375 399.6015625 c 2
 16.6669921875 400.416992188 l 1
 16.6669921875 415.555664062 l 1
227.22265625 380.471679688 m 0
 214.861328125 382.163085938 182.245117188 382.141601562 170.416992188 380.432617188 c 0
 155.416992188 378.266601562 149.233398438 373.3046875 152.9140625 366.388671875 c 0
 156.684570312 359.305664062 375.135742188 64.033203125 379.02734375 60.759765625 c 0
 388.703125 52.6220703125 407.916992188 48.6318359375 437.22265625 48.6728515625 c 0
 473.333007812 48.724609375 488.654296875 53.888671875 483.184570312 64.1669921875 c 0
 479.415039062 71.25 260.975585938 366.641601562 257.083007812 369.919921875 c 0
 251.362304688 374.737304688 240.138671875 378.703125 227.22265625 380.471679688 c 0
EndSplineSet
Validated: 524833
EndChar

StartChar: The-letter-y
Encoding: 121 -1 56
Width: 630
Flags: HW
LayerCount: 2
Back
Fore
SplineSet
20.8330078125 415.555664062 m 1
 20.8330078125 430.694335938 l 1
 46.25 429.581054688 l 2
 79.0107421875 428.145507812 255.138671875 428.150390625 290.694335938 429.587890625 c 2
 318.055664062 430.694335938 l 1
 318.055664062 415.34765625 l 1
 318.055664062 400 l 1
 309.444335938 399.959960938 l 2
 298.055664062 399.907226562 282.973632812 396.657226562 276.944335938 392.958007812 c 0
 268.880859375 388.009765625 266.0234375 379.02734375 269.595703125 369.861328125 c 0
 270.407226562 367.77734375 271.3046875 365.004882812 271.52734375 363.888671875 c 0
 271.756835938 362.744140625 297.130859375 315 327.84765625 257.916992188 c 2
 383.75 154.02734375 l 1
 434.02734375 248.541992188 l 2
 461.66015625 300.486328125 485.150390625 346.02734375 486.180664062 349.65234375 c 0
 487.203125 353.250976562 488.068359375 359.72265625 488.083007812 363.888671875 c 0
 488.151367188 383.088867188 475.555664062 396.82421875 455.416992188 399.508789062 c 2
 448.611328125 400.416992188 l 1
 448.611328125 415.555664062 l 1
 448.611328125 430.694335938 l 1
 465.555664062 429.615234375 l 2
 487.5 428.21875 578.5390625 428.138671875 596.111328125 429.5 c 2
 609.72265625 430.555664062 l 1
 609.72265625 415.486328125 l 1
 609.72265625 400.416992188 l 1
 598.888671875 399.505859375 l 2
 572.77734375 397.3125 551.395507812 387.538085938 533.333007812 369.540039062 c 0
 526.805664062 363.036132812 519.05859375 354.080078125 516.25 349.791992188 c 0
 513.424804688 345.477539062 458.584960938 243.333007812 394.444335938 122.916992188 c 0
 330.303710938 2.5 274.911132812 -100.55078125 271.411132812 -105.97265625 c 0
 242.896484375 -150.138671875 202.98828125 -183.2265625 161.388671875 -197.192382812 c 0
 116.52734375 -212.251953125 73.78125 -206.28125 45.97265625 -181.071289062 c 0
 28.552734375 -165.279296875 20.24609375 -147.22265625 20.1787109375 -125 c 0
 20.1435546875 -113.333007812 20.59765625 -110.873046875 24.103515625 -103.75 c 0
 35.17578125 -81.25 66.8837890625 -74.91015625 87.9169921875 -90.9921875 c 0
 103.556640625 -102.950195312 107.353515625 -129.583007812 95.9716796875 -147.5 c 0
 91.0556640625 -155.23828125 82.77734375 -160.870117188 71.9443359375 -163.845703125 c 2
 63.1943359375 -166.25 l 1
 70.8330078125 -171.107421875 l 2
 85.7802734375 -180.611328125 92.9169921875 -182.486328125 113.888671875 -182.420898438 c 0
 129.583007812 -182.37109375 134.857421875 -181.770507812 146.25 -178.73828125 c 0
 183.611328125 -168.793945312 219.831054688 -141.607421875 243.747070312 -105.555664062 c 0
 248.564453125 -98.2939453125 263.553710938 -71.59765625 277.083007812 -46.1806640625 c 2
 301.666992188 0 l 1
 208.263671875 175.34765625 l 2
 156.919921875 271.736328125 111.747070312 356.323242188 107.9453125 363.194335938 c 0
 91.490234375 392.9375 82.5 397.899414062 42.0830078125 399.549804688 c 2
 20.8330078125 400.416992188 l 1
 20.8330078125 415.555664062 l 1
209.02734375 383.540039062 m 0
 196.52734375 387.987304688 168.762695312 388.578125 158.75 384.610351562 c 0
 149.583007812 380.977539062 144.064453125 374.720703125 144.76171875 368.75 c 0
 145.360351562 363.611328125 319.743164062 35.7734375 321.106445312 37.22265625 c 0
 322.936523438 39.1669921875 364.326171875 117.337890625 364.2734375 118.75 c 0
 364.202148438 120.66796875 235.3984375 362.083007812 231.112304688 368.333007812 c 0
 226.606445312 374.90234375 219.444335938 379.833984375 209.02734375 383.540039062 c 0
EndSplineSet
Validated: 524833
EndChar

StartChar: The-letter-z
Encoding: 122 -1 57
Width: 547
Flags: HW
LayerCount: 2
Back
Fore
SplineSet
52.77734375 430.208007812 m 0
 52.77734375 430.399414062 152.430664062 430.555664062 274.375 430.555664062 c 2
 495.97265625 430.555664062 l 1
 499.375 427.15234375 l 2
 501.986328125 424.541015625 502.76171875 422.361328125 502.708007812 417.77734375 c 0
 502.641601562 412.068359375 496.534179688 403.47265625 363.75 222.22265625 c 0
 287.3359375 117.916992188 223.548828125 30.8271484375 221.944335938 28.611328125 c 2
 219.02734375 24.5830078125 l 1
 275.833007812 25.4111328125 l 2
 344.166992188 26.4072265625 368.797851562 28.806640625 395.138671875 37.03125 c 0
 446.020507812 52.919921875 471.052734375 95 479.854492188 179.444335938 c 2
 480.694335938 187.5 l 1
 493.263671875 187.5 l 1
 505.833007812 187.5 l 1
 505 180.208007812 l 2
 504.541015625 176.19140625 501.047851562 137.361328125 497.22265625 93.75 c 0
 493.396484375 50.138671875 489.903320312 11.30859375 489.444335938 7.2919921875 c 2
 488.611328125 0 l 1
 261.59765625 0 l 1
 34.5830078125 0 l 1
 31.1806640625 3.40234375 l 2
 28.5146484375 6.0693359375 27.77734375 8.263671875 27.77734375 13.5419921875 c 2
 27.77734375 20.27734375 l 1
 169.583007812 213.958007812 l 1
 311.388671875 407.638671875 l 1
 275.416992188 408.080078125 l 2
 200.138671875 409.004882812 151.853515625 403.553710938 125.694335938 391.177734375 c 0
 95.673828125 376.975585938 75.4658203125 340.833007812 68.7353515625 289.305664062 c 0
 67.591796875 280.555664062 66.6669921875 272.571289062 66.6669921875 271.458007812 c 0
 66.6669921875 269.84765625 64.1669921875 269.444335938 54.1669921875 269.444335938 c 0
 47.22265625 269.444335938 41.6669921875 269.598632812 41.6669921875 269.791992188 c 0
 41.6669921875 269.982421875 44.1689453125 306.111328125 47.22265625 350 c 0
 50.275390625 393.888671875 52.77734375 430.017578125 52.77734375 430.208007812 c 0
454.65234375 404.375 m 2
 457.22265625 408.333007812 l 1
 405.763671875 408.333007812 l 1
 354.305664062 408.333007812 l 1
 348.888671875 401.041992188 l 2
 345.911132812 397.032226562 284.197265625 312.77734375 211.805664062 213.888671875 c 0
 139.4140625 115 78.607421875 31.99609375 76.736328125 29.513671875 c 2
 73.3330078125 25 l 1
 125.208007812 25 l 1
 177.083007812 25 l 1
 314.583007812 212.708007812 l 2
 390.174804688 315.90234375 453.240234375 402.19921875 454.65234375 404.375 c 2
EndSplineSet
Validated: 524833
EndChar
